<?xml version="1.0" encoding="UTF-8"?>
<svg version="1.1" xmlns="http://www.w3.org/2000/svg" width="200" height="200">
<path d="M0 0 C66 0 132 0 200 0 C200 66 200 132 200 200 C134 200 68 200 0 200 C0 134 0 68 0 0 Z " fill="#F37221" transform="translate(0,0)"/>
<path d="M0 0 C1.32 0.33 2.64 0.66 4 1 C3.67 2.98 3.34 4.96 3 7 C-0.63 7 -4.26 7 -8 7 C-8.33 9.31 -8.66 11.62 -9 14 C-3.72 14 1.56 14 7 14 C7 14.99 7 15.98 7 17 C6.01 17.33 5.02 17.66 4 18 C4.28875 18.75925781 4.5775 19.51851562 4.875 20.30078125 C5.24625 21.29464844 5.6175 22.28851563 6 23.3125 C6.37125 24.29863281 6.7425 25.28476563 7.125 26.30078125 C8 29 8 29 8 32 C8.66 32 9.32 32 10 32 C10.12246094 31.28457031 10.24492187 30.56914063 10.37109375 29.83203125 C11.01135375 26.94887287 11.93551556 24.41407527 13.0625 21.6875 C13.42472656 20.80449219 13.78695312 19.92148438 14.16015625 19.01171875 C14.43730469 18.34785156 14.71445313 17.68398437 15 17 C13.68 17 12.36 17 11 17 C11.495 15.515 11.495 15.515 12 14 C15.3 14 18.6 14 22 14 C22 14.99 22 15.98 22 17 C21.01 17 20.02 17 19 17 C18.63841797 18.17175781 18.63841797 18.17175781 18.26953125 19.3671875 C16.630055 24.05861185 14.68940872 28.57851639 12.6875 33.125 C12.30916016 34.01832031 11.93082031 34.91164062 11.54101562 35.83203125 C9.41243803 40.65104449 7.73254686 44.25849227 3 47 C-0.3125 47.25 -0.3125 47.25 -3 47 C-3.495 45.02 -3.495 45.02 -4 43 C-2.72125 42.9175 -1.4425 42.835 -0.125 42.75 C3.16338841 42.40229248 3.16338841 42.40229248 5.5625 40.25 C6.69434403 34.42908786 3.36313218 29.01689466 1.05859375 23.83984375 C0 21 0 21 0 17 C-2.97 17 -5.94 17 -9 17 C-9 22.61 -9 28.22 -9 34 C-7.35 34 -5.7 34 -4 34 C-4 34.99 -4 35.98 -4 37 C-7.96 37 -11.92 37 -16 37 C-16 36.01 -16 35.02 -16 34 C-15.01 34 -14.02 34 -13 34 C-13 28.72 -13 23.44 -13 18 C-14.32 18 -15.64 18 -17 18 C-17.33 17.01 -17.66 16.02 -18 15 C-18.33 19.62 -18.66 24.24 -19 29 C-19.99 29 -20.98 29 -22 29 C-22 30.32 -22 31.64 -22 33 C-21.01 33 -20.02 33 -19 33 C-19 34.32 -19 35.64 -19 37 C-27.56611881 39.49845132 -37.26677913 37.8535085 -46 37 C-46 36.01 -46 35.02 -46 34 C-44.68 34 -43.36 34 -42 34 C-42 25.09 -42 16.18 -42 7 C-43.32 7 -44.64 7 -46 7 C-45.67 5.35 -45.34 3.7 -45 2 C-42.66705225 1.95758277 -40.33297433 1.95907063 -38 2 C-37 3 -37 3 -36.88647461 5.77563477 C-36.89171143 6.98533936 -36.89694824 8.19504395 -36.90234375 9.44140625 C-36.90556641 10.74658203 -36.90878906 12.05175781 -36.91210938 13.39648438 C-36.92046599 14.7851569 -36.92893095 16.17382877 -36.9375 17.5625 C-36.94251334 18.95507656 -36.94707653 20.34765481 -36.95117188 21.74023438 C-36.96300566 25.1601987 -36.9794912 28.58007844 -37 32 C-36.01 32 -35.02 32 -34 32 C-34.01160156 31.29875 -34.02320312 30.5975 -34.03515625 29.875 C-34.08971184 24.13886898 -33.85618377 18.67221747 -33 13 C-31.35 13 -29.7 13 -28 13 C-28 12.34 -28 11.68 -28 11 C-26.35 11 -24.7 11 -23 11 C-23 9.02 -23 7.04 -23 5 C-22.34 5 -21.68 5 -21 5 C-19.33333333 7 -17.66666667 9 -16 11 C-15.34 11 -14.68 11 -14 11 C-14 9.68 -14 8.36 -14 7 C-14.66 7 -15.32 7 -16 7 C-16 5.68 -16 4.36 -16 3 C-12.32612505 2.14701624 -8.9552607 1.89210529 -5.1875 1.9375 C-4.21167969 1.94652344 -3.23585937 1.95554687 -2.23046875 1.96484375 C-1.12638672 1.98224609 -1.12638672 1.98224609 0 2 C0 1.34 0 0.68 0 0 Z " fill="#DF7A39" transform="translate(160,75)"/>
<path d="M0 0 C3.96 0 7.92 0 12 0 C14.21051754 5.92102912 16.32757962 11.85370473 18.25 17.875 C18.58515625 18.92429687 18.9203125 19.97359375 19.265625 21.0546875 C19.96106246 23.84383562 20.14762165 26.14246669 20 29 C22.64 29 25.28 29 28 29 C28 23.39 28 17.78 28 12 C27.01 12 26.02 12 25 12 C25 11.01 25 10.02 25 9 C27.31 9 29.62 9 32 9 C32.495 9.99 32.495 9.99 33 11 C33.53625 10.67 34.0725 10.34 34.625 10 C37.62841126 8.73540578 39.76034444 8.73553832 43 9 C43.886875 9.37125 44.77375 9.7425 45.6875 10.125 C46.450625 10.41375 47.21375 10.7025 48 11 C48.99 10.34 49.98 9.68 51 9 C57.25189577 8.44179502 57.25189577 8.44179502 59.70043945 10.26879883 C61.28146819 12.37495603 61.35176953 13.40488417 61.29296875 16.01171875 C61.28330078 16.76904297 61.27363281 17.52636719 61.26367188 18.30664062 C61.23853516 19.09232422 61.21339844 19.87800781 61.1875 20.6875 C61.16719727 21.88342773 61.16719727 21.88342773 61.14648438 23.10351562 C61.11117089 25.06929967 61.05736447 27.03473582 61 29 C62.32 29 63.64 29 65 29 C65 29.99 65 30.98 65 32 C61.37 32 57.74 32 54 32 C54 31.01 54 30.02 54 29 C55.32 29 56.64 29 58 29 C57.85975781 26.52039864 57.7130815 24.04147598 57.5625 21.5625 C57.52318359 20.85544922 57.48386719 20.14839844 57.44335938 19.41992188 C57.52375562 15.91309581 57.52375562 15.91309581 56 13 C52.27775401 12.70613847 51.22213757 12.85190829 48 15 C47.41312216 18.34613512 47.41312216 18.34613512 47.3125 22.125 C47.24675781 23.40632813 47.18101563 24.68765625 47.11328125 26.0078125 C47.07589844 26.99523437 47.03851563 27.98265625 47 29 C47.99 29 48.98 29 50 29 C50 29.99 50 30.98 50 32 C46.37 32 42.74 32 39 32 C39 31.01 39 30.02 39 29 C40.32 29 41.64 29 43 29 C42.67 23.72 42.34 18.44 42 13 C36.23112508 12.4452998 36.23112508 12.4452998 33 15 C32.41312216 18.34613512 32.41312216 18.34613512 32.3125 22.125 C32.24675781 23.40632813 32.18101563 24.68765625 32.11328125 26.0078125 C32.07589844 26.99523437 32.03851563 27.98265625 32 29 C33.32 29 34.64 29 36 29 C35.505 30.485 35.505 30.485 35 32 C27.74 32 20.48 32 13 32 C12.67 31.01 12.34 30.02 12 29 C13.32 29 14.64 29 16 29 C15.34 25.7 14.68 22.4 14 19 C10.37 19 6.74 19 3 19 C2.34 22.3 1.68 25.6 1 29 C2.32 29 3.64 29 5 29 C5 29.99 5 30.98 5 32 C1.04 32 -2.92 32 -7 32 C-7 31.01 -7 30.02 -7 29 C-5.68 29 -4.36 29 -3 29 C-2.91363281 28.46375 -2.82726562 27.9275 -2.73828125 27.375 C-1.24002776 19.01776954 1.38060626 11.05813494 4 3 C2.68 3 1.36 3 0 3 C0 2.01 0 1.02 0 0 Z " fill="#FCE2C9" transform="translate(20,80)"/>
<path d="M0 0 C2.31 0 4.62 0 7 0 C7.33 0.66 7.66 1.32 8 2 C8.99 1.34 9.98 0.68 11 0 C15.13930053 -0.30104004 18.57099387 -0.54000454 22 2 C24.73374591 6.45462912 24.54287766 10.92491642 24 16 C22.38727433 19.68623011 21.369675 20.75355 18 23 C11.67741935 23.4516129 11.67741935 23.4516129 8 21 C7.67 23.97 7.34 26.94 7 30 C8.65 30 10.3 30 12 30 C12 30.99 12 31.98 12 33 C8.04 33 4.08 33 0 33 C0 32.01 0 31.02 0 30 C0.99 30 1.98 30 3 30 C3 21.09 3 12.18 3 3 C2.01 3 1.02 3 0 3 C0 2.01 0 1.02 0 0 Z " fill="#FBF0DF" transform="translate(87,89)"/>
<path d="M0 0 C0 0.99 0 1.98 0 3 C-3.3 3 -6.6 3 -10 3 C-10.33 5.31 -10.66 7.62 -11 10 C-5.72 10 -0.44 10 5 10 C5 10.99 5 11.98 5 13 C4.01 13.33 3.02 13.66 2 14 C2.28875 14.75925781 2.5775 15.51851562 2.875 16.30078125 C3.24625 17.29464844 3.6175 18.28851563 4 19.3125 C4.37125 20.29863281 4.7425 21.28476563 5.125 22.30078125 C6 25 6 25 6 28 C6.66 28 7.32 28 8 28 C8.12246094 27.28457031 8.24492187 26.56914063 8.37109375 25.83203125 C9.01135375 22.94887287 9.93551556 20.41407527 11.0625 17.6875 C11.42472656 16.80449219 11.78695312 15.92148438 12.16015625 15.01171875 C12.57587891 14.01591797 12.57587891 14.01591797 13 13 C11.68 13 10.36 13 9 13 C9.33 12.01 9.66 11.02 10 10 C13.3 10 16.6 10 20 10 C20 10.99 20 11.98 20 13 C19.01 13 18.02 13 17 13 C16.75894531 13.78117187 16.51789063 14.56234375 16.26953125 15.3671875 C14.630055 20.05861185 12.68940872 24.57851639 10.6875 29.125 C10.30916016 30.01832031 9.93082031 30.91164063 9.54101562 31.83203125 C7.41243803 36.65104449 5.73254686 40.25849227 1 43 C-2.3125 43.25 -2.3125 43.25 -5 43 C-5.33 41.68 -5.66 40.36 -6 39 C-4.72125 38.9175 -3.4425 38.835 -2.125 38.75 C1.16338841 38.40229248 1.16338841 38.40229248 3.5625 36.25 C4.69434403 30.42908786 1.36313218 25.01689466 -0.94140625 19.83984375 C-2 17 -2 17 -2 13 C-4.97 13 -7.94 13 -11 13 C-11 18.61 -11 24.22 -11 30 C-9.35 30 -7.7 30 -6 30 C-6 30.99 -6 31.98 -6 33 C-9.96 33 -13.92 33 -18 33 C-18 32.01 -18 31.02 -18 30 C-16.68 30 -15.36 30 -14 30 C-14 24.39 -14 18.78 -14 13 C-15.32 13 -16.64 13 -18 13 C-18 12.01 -18 11.02 -18 10 C-16.68 10 -15.36 10 -14 10 C-14.020625 8.88625 -14.04125 7.7725 -14.0625 6.625 C-14 3 -14 3 -13 1 C-8.45848221 -1.61481327 -4.95982808 -0.84064883 0 0 Z " fill="#FBECD9" transform="translate(162,79)"/>
<path d="M0 0 C1.32 0.33 2.64 0.66 4 1 C3.67 2.98 3.34 4.96 3 7 C2.505 5.515 2.505 5.515 2 4 C-2.51617599 3.92345464 -6.59085217 3.89771304 -11 5 C-11.33 7.97 -11.66 10.94 -12 14 C-13.32 14 -14.64 14 -16 14 C-16 14.99 -16 15.98 -16 17 C-14.68 17 -13.36 17 -12 17 C-12 22.61 -12 28.22 -12 34 C-12.33 34 -12.66 34 -13 34 C-13 28.72 -13 23.44 -13 18 C-14.32 18 -15.64 18 -17 18 C-17.33 17.01 -17.66 16.02 -18 15 C-18.33 19.62 -18.66 24.24 -19 29 C-19.99 29 -20.98 29 -22 29 C-22 30.32 -22 31.64 -22 33 C-21.01 33 -20.02 33 -19 33 C-19 34.32 -19 35.64 -19 37 C-22.96 37 -26.92 37 -31 37 C-31 36.01 -31 35.02 -31 34 C-29.68 34 -28.36 34 -27 34 C-27 28.39 -27 22.78 -27 17 C-28.32 17 -29.64 17 -31 17 C-30.67 15.68 -30.34 14.36 -30 13 C-29.34 13 -28.68 13 -28 13 C-28 12.34 -28 11.68 -28 11 C-26.35 11 -24.7 11 -23 11 C-23 9.02 -23 7.04 -23 5 C-22.34 5 -21.68 5 -21 5 C-19.33333333 7 -17.66666667 9 -16 11 C-15.34 11 -14.68 11 -14 11 C-14 9.68 -14 8.36 -14 7 C-14.66 7 -15.32 7 -16 7 C-16 5.68 -16 4.36 -16 3 C-12.32612505 2.14701624 -8.9552607 1.89210529 -5.1875 1.9375 C-3.72376953 1.95103516 -3.72376953 1.95103516 -2.23046875 1.96484375 C-1.12638672 1.98224609 -1.12638672 1.98224609 0 2 C0 1.34 0 0.68 0 0 Z " fill="#E9813C" transform="translate(160,75)"/>
<path d="M0 0 C2.31 0 4.62 0 7 0 C7.33 0.66 7.66 1.32 8 2 C8.804375 1.505 8.804375 1.505 9.625 1 C12.62841126 -0.26459422 14.76034444 -0.26446168 18 0 C18.886875 0.37125 19.77375 0.7425 20.6875 1.125 C21.450625 1.41375 22.21375 1.7025 23 2 C23.99 1.34 24.98 0.68 26 0 C32.25189577 -0.55820498 32.25189577 -0.55820498 34.70043945 1.26879883 C36.28146819 3.37495603 36.35176953 4.40488417 36.29296875 7.01171875 C36.2784668 8.14770508 36.2784668 8.14770508 36.26367188 9.30664062 C36.23853516 10.09232422 36.21339844 10.87800781 36.1875 11.6875 C36.16719727 12.88342773 36.16719727 12.88342773 36.14648438 14.10351562 C36.11117089 16.06929967 36.05736447 18.03473582 36 20 C37.32 20 38.64 20 40 20 C40 20.99 40 21.98 40 23 C36.37 23 32.74 23 29 23 C29 22.01 29 21.02 29 20 C30.32 20 31.64 20 33 20 C32.85975781 17.52039864 32.7130815 15.04147598 32.5625 12.5625 C32.52318359 11.85544922 32.48386719 11.14839844 32.44335938 10.41992188 C32.52375562 6.91309581 32.52375562 6.91309581 31 4 C27.27775401 3.70613847 26.22213757 3.85190829 23 6 C22.41312216 9.34613512 22.41312216 9.34613512 22.3125 13.125 C22.24675781 14.40632813 22.18101563 15.68765625 22.11328125 17.0078125 C22.07589844 17.99523437 22.03851563 18.98265625 22 20 C22.99 20 23.98 20 25 20 C25 20.99 25 21.98 25 23 C21.37 23 17.74 23 14 23 C14 22.01 14 21.02 14 20 C15.32 20 16.64 20 18 20 C17.67 14.72 17.34 9.44 17 4 C11.47896184 3.57853109 11.47896184 3.57853109 8.671875 5.08203125 C6.25957002 7.8494185 6.39336002 10.06765961 6.25 13.6875 C6.19328125 14.86699219 6.1365625 16.04648438 6.078125 17.26171875 C6.05234375 18.16535156 6.0265625 19.06898437 6 20 C5.34 20 4.68 20 4 20 C3.67 14.39 3.34 8.78 3 3 C2.01 3 1.02 3 0 3 C0 2.01 0 1.02 0 0 Z " fill="#FBF7E3" transform="translate(45,89)"/>
<path d="M0 0 C0.99 0.33 1.98 0.66 3 1 C3.87890625 2.99609375 3.87890625 2.99609375 4.5625 5.4375 C5.58507259 9.09858228 5.58507259 9.09858228 8 12 C8 12.99 8 13.98 8 15 C9.32 15 10.64 15 12 15 C11.24029922 18.35867712 10.12906745 21.52123658 8.9375 24.75 C8.57527344 25.73484375 8.21304688 26.7196875 7.83984375 27.734375 C7.42412109 28.85585937 7.42412109 28.85585937 7 30 C6.34 30 5.68 30 5 30 C3.35 25.05 1.7 20.1 0 15 C1.32 15 2.64 15 4 15 C4 14.01 4 13.02 4 12 C-1.28 12 -6.56 12 -12 12 C-11.67 9.69 -11.34 7.38 -11 5 C-7.37 5 -3.74 5 0 5 C0 3.35 0 1.7 0 0 Z " fill="#F07324" transform="translate(163,77)"/>
<path d="M0 0 C1 1 1 1 1.09765625 4.59765625 C1.0909822 6.08596867 1.07902183 7.57426432 1.0625 9.0625 C1.05798828 9.82111328 1.05347656 10.57972656 1.04882812 11.36132812 C1.0370068 13.24091871 1.01907078 15.12046899 1 17 C-0.32 17 -1.64 17 -3 17 C-3 17.99 -3 18.98 -3 20 C-5.66178221 21.3308911 -7.68739396 21.11268993 -10.6640625 21.09765625 C-11.78554688 21.09443359 -12.90703125 21.09121094 -14.0625 21.08789062 C-15.238125 21.07951172 -16.41375 21.07113281 -17.625 21.0625 C-18.80835938 21.05798828 -19.99171875 21.05347656 -21.2109375 21.04882812 C-24.14067507 21.03701467 -27.07031272 21.02054258 -30 21 C-29.67 20.34 -29.34 19.68 -29 19 C-21.74 19 -14.48 19 -7 19 C-6.67 18.34 -6.34 17.68 -6 17 C-7.32 17 -8.64 17 -10 17 C-10.10794277 14.73020335 -10.18556176 12.45894804 -10.25 10.1875 C-10.29640625 8.92292969 -10.3428125 7.65835938 -10.390625 6.35546875 C-10 3 -10 3 -8.18359375 1.06640625 C-5.3210056 -0.33160192 -3.14378974 -0.27944798 0 0 Z " fill="#E77229" transform="translate(62,92)"/>
<path d="M0 0 C2.97 0 5.94 0 9 0 C9.98397585 2.5607445 10.96229967 5.12341492 11.9375 7.6875 C12.21529297 8.40873047 12.49308594 9.12996094 12.77929688 9.87304688 C15.63580785 17.41010595 15.63580785 17.41010595 16 21 C14.5625 23.8125 14.5625 23.8125 13 26 C12.01 25.67 11.02 25.34 10 25 C10.66 25 11.32 25 12 25 C11.67 23.68 11.34 22.36 11 21 C11.66 21 12.32 21 13 21 C13 19.68 13 18.36 13 17 C7.94359054 16.2286833 5.14808788 15.97038242 0 17 C0 11.39 0 5.78 0 0 Z " fill="#F2721E" transform="translate(151,92)"/>
<path d="M0 0 C2.55949546 1.85342775 2.97918798 2.93756393 4 6 C4.56 12.16 4.56 12.16 2.375 15.4375 C-0.68118452 17.44814771 -2.40649325 17.53520313 -6 17 C-8.03667615 15.45493534 -8.86073078 14.27853844 -10 12 C-10.57395143 4.88300221 -10.57395143 4.88300221 -8.375 1.5 C-5.31593299 -0.43204232 -3.5572204 -0.52979878 0 0 Z " fill="#EE7629" transform="translate(104,92)"/>
<path d="M0 0 C2 2 2 2 2.1953125 5.4765625 C2.18201493 6.85950968 2.15816232 8.24238654 2.125 9.625 C2.11597656 10.33140625 2.10695313 11.0378125 2.09765625 11.765625 C2.07407603 13.51056098 2.03820461 15.25532295 2 17 C0.68 17 -0.64 17 -2 17 C-2 17.66 -2 18.32 -2 19 C-3.32 19 -4.64 19 -6 19 C-6 18.34 -6 17.68 -6 17 C-6.99 17 -7.98 17 -9 17 C-9.10794277 14.73020335 -9.18556176 12.45894804 -9.25 10.1875 C-9.29640625 8.92292969 -9.3428125 7.65835938 -9.390625 6.35546875 C-9 3 -9 3 -7.1484375 1.0703125 C-4.5389123 -0.22970551 -2.88014899 -0.37896697 0 0 Z " fill="#EC7A33" transform="translate(76,92)"/>
<path d="M0 0 C0.99 0 1.98 0 3 0 C3 8.91 3 17.82 3 27 C2.01 27 1.02 27 0 27 C0 27.99 0 28.98 0 30 C3.96 30 7.92 30 12 30 C12 29.01 12 28.02 12 27 C10.35 27 8.7 27 7 27 C7 23.7 7 20.4 7 17 C8.32 17.66 9.64 18.32 11 19 C12.99110401 19.38290462 14.99100513 19.72604615 17 20 C17 20.66 17 21.32 17 22 C18.32 22 19.64 22 21 22 C21 22.66 21 23.32 21 24 C19.68 24.33 18.36 24.66 17 25 C16.690625 26.6396875 16.690625 26.6396875 16.375 28.3125 C15 32 15 32 12.25 33.875 C9.14199547 34.95084772 6.26142943 35.61173459 3 36 C3 34.68 3 33.36 3 32 C1.68 31.67 0.36 31.34 -1 31 C-1 29.02 -1 27.04 -1 25 C-0.01 25 0.98 25 2 25 C2 17.08 2 9.16 2 1 C1.34 0.67 0.68 0.34 0 0 Z " fill="#EB7426" transform="translate(87,92)"/>
<path d="M0 0 C2.87255066 2.42195448 3.70838919 4.59742703 4.6875 8.1875 C4.93886719 9.08855469 5.19023438 9.98960938 5.44921875 10.91796875 C5.63097656 11.60503906 5.81273437 12.29210937 6 13 C6.99 12.67 7.98 12.34 9 12 C11.97 12.495 11.97 12.495 15 13 C15 18.28 15 23.56 15 29 C12.36 29 9.72 29 7 29 C5.82483331 24.919064 4.66134593 20.83488859 3.5 16.75 C3.16613281 15.59113281 2.83226562 14.43226562 2.48828125 13.23828125 C2.17246094 12.12324219 1.85664062 11.00820312 1.53125 9.859375 C1.23798828 8.83295898 0.94472656 7.80654297 0.64257812 6.74902344 C0 4 0 4 0 0 Z " fill="#F37321" transform="translate(33,80)"/>
<path d="M0 0 C2.64 0 5.28 0 8 0 C8 9.9 8 19.8 8 30 C9.32 30 10.64 30 12 30 C12 30.99 12 31.98 12 33 C8.04 33 4.08 33 0 33 C0 32.01 0 31.02 0 30 C1.32 30 2.64 30 4 30 C4 21.09 4 12.18 4 3 C2.68 3 1.36 3 0 3 C0 2.01 0 1.02 0 0 Z " fill="#FDF9F0" transform="translate(114,79)"/>
<path d="M0 0 C3.96 0 7.92 0 12 0 C15 7.625 15 7.625 15 11 C14.34 11 13.68 11 13 11 C13 12.65 13 14.3 13 16 C10.36 16 7.72 16 5 16 C5 13.36 5 10.72 5 8 C4.34 8 3.68 8 3 8 C3.33 6.35 3.66 4.7 4 3 C2.68 3 1.36 3 0 3 C0 2.01 0 1.02 0 0 Z " fill="#FAEAD2" transform="translate(20,80)"/>
<path d="M0 0 C2.33294775 -0.04241723 4.66702567 -0.04092937 7 0 C8 1 8 1 8.11352539 2.85766602 C8.10828857 3.64842529 8.10305176 4.43918457 8.09765625 5.25390625 C8.09443359 6.10791016 8.09121094 6.96191406 8.08789062 7.84179688 C8.07951172 8.73962891 8.07113281 9.63746094 8.0625 10.5625 C8.05798828 11.46419922 8.05347656 12.36589844 8.04882812 13.29492188 C8.03700225 15.53001314 8.0205222 17.76497437 8 20 C9.32 20 10.64 20 12 20 C12 20.99 12 21.98 12 23 C8.04 23 4.08 23 0 23 C0 22.01 0 21.02 0 20 C1.32 20 2.64 20 4 20 C4 14.39 4 8.78 4 3 C2.68 3 1.36 3 0 3 C0 2.01 0 1.02 0 0 Z " fill="#FAEED6" transform="translate(129,89)"/>
<path d="M0 0 C0.66 0 1.32 0 2 0 C3.84532714 5.47059581 4.25309068 10.18819928 4.125 15.9375 C4.11597656 16.71673828 4.10695312 17.49597656 4.09765625 18.29882812 C4.07433691 20.19935447 4.03847586 22.09972008 4 24 C3.01 24 2.02 24 1 24 C1 25.32 1 26.64 1 28 C1.99 28.33 2.98 28.66 4 29 C2.68 29 1.36 29 0 29 C-0.33 22.73 -0.66 16.46 -1 10 C-3.97 9.505 -3.97 9.505 -7 9 C-6.34 8.67 -5.68 8.34 -5 8 C-5 7.34 -5 6.68 -5 6 C-3.35 6 -1.7 6 0 6 C0 4.02 0 2.04 0 0 Z " fill="#F17423" transform="translate(137,80)"/>
<path d="M0 0 C1.125 3.75 1.125 3.75 0 6 C0.66 6 1.32 6 2 6 C2.99 7.485 2.99 7.485 4 9 C7.55672179 10.2188121 7.55672179 10.2188121 11 11 C10.625 13.9375 10.625 13.9375 10 17 C7.29120665 18.35439668 4.99066732 18.06501451 2 18 C1.34 15.36 0.68 12.72 0 10 C-1.32 10 -2.64 10 -4 10 C-2.8905928 6.51329166 -1.73662334 3.22515763 0 0 Z " fill="#E57E3E" transform="translate(178,94)"/>
<path d="M0 0 C1 1 1 1 1.09765625 4.59765625 C1.0909822 6.08596867 1.07902183 7.57426432 1.0625 9.0625 C1.05798828 9.82111328 1.05347656 10.57972656 1.04882812 11.36132812 C1.0370068 13.24091871 1.01907078 15.12046899 1 17 C-0.32 16.67 -1.64 16.34 -3 16 C-2.01 16 -1.02 16 0 16 C-0.33 11.38 -0.66 6.76 -1 2 C-1.99 1.67 -2.98 1.34 -4 1 C-5.37336561 5.12009682 -6.00135467 9.99729065 -4 14 C-6.1385485 16.1385485 -7.13275314 16.42655063 -10 17 C-10.10794277 14.73020335 -10.18556176 12.45894804 -10.25 10.1875 C-10.29640625 8.92292969 -10.3428125 7.65835938 -10.390625 6.35546875 C-10 3 -10 3 -8.18359375 1.06640625 C-5.3210056 -0.33160192 -3.14378974 -0.27944798 0 0 Z " fill="#E37D3C" transform="translate(62,92)"/>
<path d="M0 0 C2.97 0 5.94 0 9 0 C9.98397585 2.5607445 10.96229967 5.12341492 11.9375 7.6875 C12.21529297 8.40873047 12.49308594 9.12996094 12.77929688 9.87304688 C15.63580785 17.41010595 15.63580785 17.41010595 16 21 C14.5625 23.8125 14.5625 23.8125 13 26 C12.01 25.67 11.02 25.34 10 25 C10.66 25 11.32 25 12 25 C11.67 23.68 11.34 22.36 11 21 C11.66 21 12.32 21 13 21 C13 19.68 13 18.36 13 17 C12.34 16.67 11.68 16.34 11 16 C10.27840576 14.35636866 9.60648579 12.68949614 9 11 C8.34 11 7.68 11 7 11 C7.33 8.69 7.66 6.38 8 4 C7.34 3.67 6.68 3.34 6 3 C6.33 2.34 6.66 1.68 7 1 C5.02 1 3.04 1 1 1 C1 6.28 1 11.56 1 17 C0.67 17 0.34 17 0 17 C0 11.39 0 5.78 0 0 Z " fill="#E18549" transform="translate(151,92)"/>
<path d="M0 0 C0.66 0 1.32 0 2 0 C2 2.64 2 5.28 2 8 C4.64 8 7.28 8 10 8 C9.67 5.69 9.34 3.38 9 1 C9.33 1.66 9.66 2.32 10 3 C10.99 3 11.98 3 13 3 C13.33 5.97 13.66 8.94 14 12 C9.05 11.67 4.1 11.34 -1 11 C-0.67 7.37 -0.34 3.74 0 0 Z " fill="#FAF0DD" transform="translate(23,88)"/>
<path d="M0 0 C1.32 0 2.64 0 4 0 C4 8.91 4 17.82 4 27 C2.02 26.67 0.04 26.34 -2 26 C-4.8971941 28.31273442 -4.8971941 28.31273442 -7 31 C-7.66 30.34 -8.32 29.68 -9 29 C-8.360625 28.566875 -7.72125 28.13375 -7.0625 27.6875 C-4.73253997 26.08760823 -4.73253997 26.08760823 -4 23 C-3.90691456 21.33541327 -3.87003815 19.66718003 -3.875 18 C-3.87113281 16.700625 -3.87113281 16.700625 -3.8671875 15.375 C-3.90405795 12.84988305 -3.90405795 12.84988305 -5 10 C-4.34 10 -3.68 10 -3 10 C-1.21590198 13.06246747 -0.77119979 15.22079273 -0.875 18.75 C-0.89304687 19.54921875 -0.91109375 20.3484375 -0.9296875 21.171875 C-0.96449219 22.07679687 -0.96449219 22.07679687 -1 23 C0.32 23 1.64 23 3 23 C3 15.74 3 8.48 3 1 C2.01 0.67 1.02 0.34 0 0 Z " fill="#DE7F3E" transform="translate(114,82)"/>
<path d="M0 0 C0.33 0 0.66 0 1 0 C1 7.92 1 15.84 1 24 C1.66 24 2.32 24 3 24 C3 21.69 3 19.38 3 17 C3.33 17 3.66 17 4 17 C4 20.3 4 23.6 4 27 C5.65 27 7.3 27 9 27 C9 27.99 9 28.98 9 30 C5.04 30 1.08 30 -3 30 C-3 29.01 -3 28.02 -3 27 C-2.01 27 -1.02 27 0 27 C0 18.09 0 9.18 0 0 Z " fill="#FBDCBF" transform="translate(90,92)"/>
<path d="M0 0 C3.63 0 7.26 0 11 0 C12.31626692 3.61973402 13 6.09567131 13 10 C12.34 10 11.68 10 11 10 C10.34 8.02 9.68 6.04 9 4 C6.03 4 3.06 4 0 4 C0.33 5.98 0.66 7.96 1 10 C0.01 10 -0.98 10 -2 10 C-1.34 6.7 -0.68 3.4 0 0 Z " fill="#E07B3B" transform="translate(23,99)"/>
<path d="M0 0 C0.66 0 1.32 0 2 0 C2.99 4.29 3.98 8.58 5 13 C2.36 13 -0.28 13 -3 13 C-2.52060632 8.28596212 -2.03165952 4.33420699 0 0 Z " fill="#E18044" transform="translate(28,83)"/>
<path d="M0 0 C0.33 0 0.66 0 1 0 C1.02505615 0.7113208 1.0501123 1.4226416 1.07592773 2.15551758 C1.19188439 5.37469517 1.31461245 8.59357985 1.4375 11.8125 C1.47681641 12.93205078 1.51613281 14.05160156 1.55664062 15.20507812 C1.59853516 16.27822266 1.64042969 17.35136719 1.68359375 18.45703125 C1.72025146 19.44678955 1.75690918 20.43654785 1.79467773 21.45629883 C1.90790331 24.1218351 1.90790331 24.1218351 3 27 C4.65 27 6.3 27 8 27 C8 27.99 8 28.98 8 30 C4.04 30 0.08 30 -4 30 C-4 29.01 -4 28.02 -4 27 C-2.68 27 -1.36 27 0 27 C0 18.09 0 9.18 0 0 Z " fill="#F9D7B8" transform="translate(118,82)"/>
<path d="M0 0 C2.97 0.33 5.94 0.66 9 1 C9 1.66 9 2.32 9 3 C8.34 3 7.68 3 7 3 C7 4.32 7 5.64 7 7 C6.34 7 5.68 7 5 7 C5.33 11.29 5.66 15.58 6 20 C5.01 20 4.02 20 3 20 C2.67 13.73 2.34 7.46 2 1 C1.34 0.67 0.68 0.34 0 0 Z " fill="#E38648" transform="translate(78,89)"/>
<path d="M0 0 C2.33294775 -0.04241723 4.66702567 -0.04092937 7 0 C8 1 8 1 8.11352539 2.85766602 C8.10828857 3.64842529 8.10305176 4.43918457 8.09765625 5.25390625 C8.09443359 6.10791016 8.09121094 6.96191406 8.08789062 7.84179688 C8.07951172 8.73962891 8.07113281 9.63746094 8.0625 10.5625 C8.05798828 11.46419922 8.05347656 12.36589844 8.04882812 13.29492188 C8.03700225 15.53001314 8.0205222 17.76497437 8 20 C7.67 20 7.34 20 7 20 C7 14.72 7 9.44 7 4 C6.34 4 5.68 4 5 4 C5 9.28 5 14.56 5 20 C4.67 20 4.34 20 4 20 C4 14.39 4 8.78 4 3 C2.68 3 1.36 3 0 3 C0 2.01 0 1.02 0 0 Z " fill="#FCE2BE" transform="translate(129,89)"/>
<path d="M0 0 C5.44693314 -0.09688221 10.63904667 -0.12862175 16 1 C16 1.33 16 1.66 16 2 C14.35 2 12.7 2 11 2 C11.33 2.99 11.66 3.98 12 5 C12.928125 5 13.85625 5 14.8125 5 C16.875 5 18.9375 5 21 5 C18.57477793 7.42522207 17.8279321 7.29629254 14.5 7.3125 C13.7059375 7.32925781 12.911875 7.34601563 12.09375 7.36328125 C11.4028125 7.24339844 10.711875 7.12351562 10 7 C9.34 6.01 8.68 5.02 8 4 C5.80545319 3.42006301 5.80545319 3.42006301 3.375 3.3125 C2.55773437 3.24675781 1.74046875 3.18101563 0.8984375 3.11328125 C0.27195313 3.07589844 -0.35453125 3.03851563 -1 3 C-0.67 2.01 -0.34 1.02 0 0 Z " fill="#EB7830" transform="translate(145,116)"/>
<path d="M0 0 C0.33 0 0.66 0 1 0 C1 4.29 1 8.58 1 13 C1.99 13 2.98 13 4 13 C4 13.99 4 14.98 4 16 C0.37 16 -3.26 16 -7 16 C-7 15.01 -7 14.02 -7 13 C-5.68 13 -4.36 13 -3 13 C-2.67 12.01 -2.34 11.02 -2 10 C-1.34 10.33 -0.68 10.66 0 11 C0 7.37 0 3.74 0 0 Z " fill="#FBDCBD" transform="translate(66,96)"/>
<path d="M0 0 C0.99 0.33 1.98 0.66 3 1 C2.95875 2.216875 2.9175 3.43375 2.875 4.6875 C2.86245492 8.21894127 3.40001783 10.80003566 5 14 C3.02 13.34 1.04 12.68 -1 12 C-1.02698189 10.37509046 -1.04638757 8.75005367 -1.0625 7.125 C-1.07410156 6.22007813 -1.08570312 5.31515625 -1.09765625 4.3828125 C-1 2 -1 2 0 0 Z " fill="#F1721F" transform="translate(69,95)"/>
<path d="M0 0 C0.66 0 1.32 0 2 0 C1.83628906 1.27746094 1.67257813 2.55492188 1.50390625 3.87109375 C0.9396186 8.94968256 0.88601907 13.95796735 0.9375 19.0625 C0.94201172 19.92810547 0.94652344 20.79371094 0.95117188 21.68554688 C0.96280087 23.79039539 0.98072927 25.89520758 1 28 C1.99 28.33 2.98 28.66 4 29 C2.68 29 1.36 29 0 29 C-0.33 22.73 -0.66 16.46 -1 10 C-3.97 9.505 -3.97 9.505 -7 9 C-6.34 8.67 -5.68 8.34 -5 8 C-5 7.34 -5 6.68 -5 6 C-3.35 6 -1.7 6 0 6 C0 4.02 0 2.04 0 0 Z " fill="#D5763A" transform="translate(137,80)"/>
<path d="M0 0 C2.64 0 5.28 0 8 0 C8 8.25 8 16.5 8 25 C7.67 25 7.34 25 7 25 C6.97494385 24.44014404 6.9498877 23.88028809 6.92407227 23.3034668 C6.80796255 20.76458695 6.6853042 18.22606447 6.5625 15.6875 C6.52318359 14.80642578 6.48386719 13.92535156 6.44335938 13.01757812 C6.38051758 11.74624023 6.38051758 11.74624023 6.31640625 10.44921875 C6.27974854 9.66893311 6.24309082 8.88864746 6.20532227 8.0847168 C6.05874737 5.80670899 6.05874737 5.80670899 5 3 C3.35 3 1.7 3 0 3 C0 2.01 0 1.02 0 0 Z " fill="#FCEDCE" transform="translate(114,79)"/>
<path d="M0 0 C1.65 0 3.3 0 5 0 C5.9154645 4.46204176 5.97847873 8.34545385 5.5625 12.875 C5.46066406 14.02742188 5.35882813 15.17984375 5.25390625 16.3671875 C5.12822266 17.67042969 5.12822266 17.67042969 5 19 C4.34 19 3.68 19 3 19 C2.67 13.39 2.34 7.78 2 2 C1.34 2 0.68 2 0 2 C0 1.34 0 0.68 0 0 Z " fill="#FCF9EF" transform="translate(46,90)"/>
<path d="M0 0 C-0.99 0.66 -1.98 1.32 -3 2 C-3.33 2.99 -3.66 3.98 -4 5 C-4.99 4.34 -5.98 3.68 -7 3 C-7.33 6.96 -7.66 10.92 -8 15 C-6.02 15.66 -4.04 16.32 -2 17 C-2 17.66 -2 18.32 -2 19 C-3.32 19 -4.64 19 -6 19 C-6 18.34 -6 17.68 -6 17 C-6.99 17 -7.98 17 -9 17 C-9.10794277 14.73020335 -9.18556176 12.45894804 -9.25 10.1875 C-9.29640625 8.92292969 -9.3428125 7.65835938 -9.390625 6.35546875 C-9 3 -9 3 -7.15625 1.0625 C-4.60010003 -0.19705216 -2.81486043 -0.2345717 0 0 Z " fill="#DE7E3C" transform="translate(76,92)"/>
<path d="M0 0 C0.66 0.33 1.32 0.66 2 1 C1.34 2.32 0.68 3.64 0 5 C-1.0725 4.79375 -2.145 4.5875 -3.25 4.375 C-6.87619096 4.0123809 -8.08291076 4.01637931 -11 6 C-11.99 5.01 -12.98 4.02 -14 3 C-13.67 2.34 -13.34 1.68 -13 1 C-11.68 1 -10.36 1 -9 1 C-6.01405576 -0.49297212 -3.29146376 -0.11755228 0 0 Z " fill="#FBECD7" transform="translate(78,89)"/>
<path d="M0 0 C0.84181889 3.33130037 1.63570111 6.57559039 2 10 C1.01 11.485 1.01 11.485 0 13 C-0.33 12.67 -0.66 12.34 -1 12 C-1.99 12.99 -2.98 13.98 -4 15 C-5.11346788 12.19966161 -5.03510273 11.09856297 -4.00390625 8.203125 C-3.52824219 7.22859375 -3.05257812 6.2540625 -2.5625 5.25 C-2.08941406 4.26515625 -1.61632812 3.2803125 -1.12890625 2.265625 C-0.75636719 1.51796875 -0.38382813 0.7703125 0 0 Z " fill="#E97F39" transform="translate(173,105)"/>
<path d="M0 0 C0.66 1.32 1.32 2.64 2 4 C3.27875 4.020625 4.5575 4.04125 5.875 4.0625 C6.59429687 4.07410156 7.31359375 4.08570312 8.0546875 4.09765625 C10.08185404 4.12649242 10.08185404 4.12649242 12 3 C12 3.66 12 4.32 12 5 C12.66 5.33 13.32 5.66 14 6 C10.28986601 8.47342266 8.38939738 8.38503486 4 8 C1.5625 6.8125 1.5625 6.8125 0 5 C-0.25 2.3125 -0.25 2.3125 0 0 Z " fill="#F9EDD3" transform="translate(94,104)"/>
<path d="M0 0 C2 2 2 2 2 5 C3.32 5 4.64 5 6 5 C5.67 6.32 5.34 7.64 5 9 C4.67 8.34 4.34 7.68 4 7 C2.35636866 6.27840576 0.68949614 5.60648579 -1 5 C-1.33 5.66 -1.66 6.32 -2 7 C-2.66 6.67 -3.32 6.34 -4 6 C-3.34 7.65 -2.68 9.3 -2 11 C-2.66 11 -3.32 11 -4 11 C-4.66 9.02 -5.32 7.04 -6 5 C-4.68 5 -3.36 5 -2 5 C-2 4.01 -2 3.02 -2 2 C-2.99 1.67 -3.98 1.34 -5 1 C-3 0 -3 0 0 0 Z " fill="#DF7A34" transform="translate(169,87)"/>
<path d="M0 0 C3.48877479 2.66906266 4.1717259 6.24545116 5.1875 10.3125 C5.36474609 10.96412109 5.54199219 11.61574219 5.72460938 12.28710938 C6.75857357 16.27525698 7.18489968 19.88757602 7 24 C4.55089476 20.32634213 3.59065459 16.77135062 2.375 12.5625 C2.14554688 11.79873047 1.91609375 11.03496094 1.6796875 10.24804688 C1.463125 9.50748047 1.2465625 8.76691406 1.0234375 8.00390625 C0.82669434 7.33174072 0.62995117 6.6595752 0.42724609 5.96704102 C0 4 0 4 0 0 Z " fill="#E07938" transform="translate(33,80)"/>
<path d="M0 0 C0.99 0 1.98 0 3 0 C3 4.62 3 9.24 3 14 C0.36 14 -2.28 14 -5 14 C-5 12.68 -5 11.36 -5 10 C-4.34 10 -3.68 10 -3 10 C-3 10.66 -3 11.32 -3 12 C-1.68 11.67 -0.36 11.34 1 11 C1.020625 9.741875 1.04125 8.48375 1.0625 7.1875 C1.07410156 6.47980469 1.08570313 5.77210937 1.09765625 5.04296875 C1.08263217 2.79694539 1.08263217 2.79694539 0 0 Z " fill="#E07838" transform="translate(45,95)"/>
<path d="M0 0 C0.33 1.32 0.66 2.64 1 4 C2.32 4 3.64 4 5 4 C5 7.63 5 11.26 5 15 C3.68 15 2.36 15 1 15 C0.67 10.05 0.34 5.1 0 0 Z " fill="#EB7624" transform="translate(142,89)"/>
<path d="M0 0 C3.3 0 6.6 0 10 0 C10 0.33 10 0.66 10 1 C7.69 1 5.38 1 3 1 C4.51398455 4.78496138 5.0144396 5.0072198 9 7 C5.7 7 2.4 7 -1 7 C-0.67 4.69 -0.34 2.38 0 0 Z " fill="#DD7E3F" transform="translate(152,82)"/>
<path d="M0 0 C0.99 0 1.98 0 3 0 C3.24042276 4.08718695 2.42258812 7.17679443 1 11 C0.01 11 -0.98 11 -2 11 C-2.25 3.375 -2.25 3.375 0 0 Z " fill="#F3731C" transform="translate(58,93)"/>
<path d="M0 0 C2.97 0.99 5.94 1.98 9 3 C9 3.99 9 4.98 9 6 C6.36 5.67 3.72 5.34 1 5 C1 6.32 1 7.64 1 9 C1.99 9.33 2.98 9.66 4 10 C2.68 10 1.36 10 0 10 C0 6.7 0 3.4 0 0 Z " fill="#DD7E3E" transform="translate(94,109)"/>
<path d="M0 0 C0 1.65 0 3.3 0 5 C-1.65614657 5.38218767 -3.32457024 5.71395102 -5 6 C-6 5 -6 5 -6.0625 2.4375 C-6.041875 1.633125 -6.02125 0.82875 -6 0 C-3.50907189 -1.24546405 -2.58919267 -0.7767578 0 0 Z " fill="#F9EDD6" transform="translate(187,106)"/>
<path d="M0 0 C3.96 0 7.92 0 12 0 C12 0.99 12 1.98 12 3 C8.04 3 4.08 3 0 3 C0 2.01 0 1.02 0 0 Z " fill="#F9E2C4" transform="translate(13,109)"/>
<path d="M0 0 C1.88391785 3.26545761 2.49287967 6.28111761 3 10 C2.67 9.34 2.34 8.68 2 8 C1.34 8 0.68 8 0 8 C0 9.65 0 11.3 0 13 C-1.65 13.33 -3.3 13.66 -5 14 C-5 13.34 -5 12.68 -5 12 C-3.68 12 -2.36 12 -1 12 C-1.66 9.03 -2.32 6.06 -3 3 C-2.01 3 -1.02 3 0 3 C0 2.01 0 1.02 0 0 Z " fill="#F7E0C5" transform="translate(37,97)"/>
<path d="M0 0 C0.99 0 1.98 0 3 0 C3 3.96 3 7.92 3 12 C2.01 11.67 1.02 11.34 0 11 C0 7.37 0 3.74 0 0 Z " fill="#F37220" transform="translate(128,93)"/>
<path d="M0 0 C1.65 0 3.3 0 5 0 C6.125 3.75 6.125 3.75 5 6 C3.35 6 1.7 6 0 6 C0 4.02 0 2.04 0 0 Z " fill="#F9E0C4" transform="translate(132,80)"/>
<path d="M0 0 C1.32 0.33 2.64 0.66 4 1 C3.67 2.98 3.34 4.96 3 7 C2.67 6.01 2.34 5.02 2 4 C-4.08408472 3.80185739 -4.08408472 3.80185739 -10 5 C-9.67 4.01 -9.34 3.02 -9 2 C-6.03 2 -3.06 2 0 2 C0 1.34 0 0.68 0 0 Z " fill="#E37A37" transform="translate(160,75)"/>
<path d="M0 0 C3.3 0 6.6 0 10 0 C10 0.99 10 1.98 10 3 C6.37 3 2.74 3 -1 3 C-0.67 2.01 -0.34 1.02 0 0 Z " fill="#FCDFC5" transform="translate(172,89)"/>
<path d="M0 0 C0 0.99 0 1.98 0 3 C-2.64 3 -5.28 3 -8 3 C-8 2.34 -8 1.68 -8 1 C-8.66 0.67 -9.32 0.34 -10 0 C-6.7169902 -1.6415049 -3.57454967 -0.51888624 0 0 Z " fill="#FADDBA" transform="translate(162,79)"/>
<path d="M0 0 C5.625 -0.25 5.625 -0.25 9 2 C9.99 2.33 10.98 2.66 12 3 C12 3.66 12 4.32 12 5 C11.15695313 4.75443359 11.15695313 4.75443359 10.296875 4.50390625 C7.86940944 3.97135003 5.73110319 3.90101319 3.25 3.9375 C2.05117187 3.95103516 2.05117187 3.95103516 0.828125 3.96484375 C-0.07679687 3.98224609 -0.07679687 3.98224609 -1 4 C-0.67 2.68 -0.34 1.36 0 0 Z " fill="#DE7E39" transform="translate(97,86)"/>
<path d="M0 0 C0.33 0 0.66 0 1 0 C1.48275862 6.27586207 1.48275862 6.27586207 -0.625 9.4375 C-3.602598 11.39644605 -5.50355037 11.31785906 -9 11 C-6.66785852 9.79371992 -4.50357861 8.8345262 -2 8 C-1.19787372 6.12612784 -1.19787372 6.12612784 -0.8125 3.9375 C-0.57466797 2.83728516 -0.57466797 2.83728516 -0.33203125 1.71484375 C-0.22246094 1.14894531 -0.11289063 0.58304687 0 0 Z " fill="#DC864C" transform="translate(107,98)"/>
<path d="M0 0 C2.31 0 4.62 0 7 0 C7 1.32 7 2.64 7 4 C5.02 4 3.04 4 1 4 C0.67 2.68 0.34 1.36 0 0 Z " fill="#F7D7BD" transform="translate(156,118)"/>
<path d="M0 0 C2.31 0 4.62 0 7 0 C7.33 0.66 7.66 1.32 8 2 C8.99 1.67 9.98 1.34 11 1 C10.6875 2.9375 10.6875 2.9375 10 5 C9.01 5.33 8.02 5.66 7 6 C7 5.34 7 4.68 7 4 C6.34 3.67 5.68 3.34 5 3 C5.33 2.34 5.66 1.68 6 1 C4.35 1 2.7 1 1 1 C0.67 1.66 0.34 2.32 0 3 C0 2.01 0 1.02 0 0 Z " fill="#F9D9B6" transform="translate(45,89)"/>
<path d="M0 0 C0.33 0.99 0.66 1.98 1 3 C2.32 3 3.64 3 5 3 C4.34 5.97 3.68 8.94 3 12 C2.67 12 2.34 12 2 12 C1.855625 10.948125 1.71125 9.89625 1.5625 8.8125 C1.12473034 5.84539451 0.62195134 2.93205634 0 0 Z " fill="#DE7F44" transform="translate(19,80)"/>
<path d="M0 0 C0.33 0.66 0.66 1.32 1 2 C1.66 2.33 2.32 2.66 3 3 C1.35 4.65 -0.3 6.3 -2 8 C-2.99 7.34 -3.98 6.68 -5 6 C-4.360625 5.38125 -3.72125 4.7625 -3.0625 4.125 C-0.96116416 2.17402388 -0.96116416 2.17402388 0 0 Z " fill="#FCEED9" transform="translate(166,113)"/>
<path d="M0 0 C0 0.99 0 1.98 0 3 C-4.455 3.495 -4.455 3.495 -9 4 C-9 3.01 -9 2.02 -9 1 C-4.545 0.505 -4.545 0.505 0 0 Z " fill="#E77025" transform="translate(70,111)"/>
<path d="M0 0 C0.66 0.33 1.32 0.66 2 1 C1.67 1.99 1.34 2.98 1 4 C-0.32 4 -1.64 4 -3 4 C-3 4.99 -3 5.98 -3 7 C-3.99 7 -4.98 7 -6 7 C-5.67 5.35 -5.34 3.7 -5 2 C-3.35 2 -1.7 2 0 2 C0 1.34 0 0.68 0 0 Z " fill="#E08042" transform="translate(16,105)"/>
<path d="M0 0 C1.77049689 -0.05410687 3.54146849 -0.09284119 5.3125 -0.125 C6.29863281 -0.14820312 7.28476563 -0.17140625 8.30078125 -0.1953125 C11 0 11 0 14 2 C11.6875 3.125 11.6875 3.125 9 4 C8.01 3.34 7.02 2.68 6 2 C4.0103005 1.60986284 2.00980131 1.26797351 0 1 C0 0.67 0 0.34 0 0 Z " fill="#DC7F40" transform="translate(57,88)"/>
<path d="M0 0 C0.99 0.33 1.98 0.66 3 1 C3 2.32 3 3.64 3 5 C1.02 5 -0.96 5 -3 5 C-3 4.01 -3 3.02 -3 2 C-2.34 2 -1.68 2 -1 2 C-0.67 1.34 -0.34 0.68 0 0 Z " fill="#E9712A" transform="translate(28,91)"/>
<path d="M0 0 C1.32 0.33 2.64 0.66 4 1 C4 3.64 4 6.28 4 9 C3.896875 8.360625 3.79375 7.72125 3.6875 7.0625 C3.460625 6.381875 3.23375 5.70125 3 5 C2.01 4.67 1.02 4.34 0 4 C0 2.68 0 1.36 0 0 Z " fill="#E7742A" transform="translate(82,113)"/>
<path d="M0 0 C0.66 0 1.32 0 2 0 C2.66 1.65 3.32 3.3 4 5 C3 6 3 6 -0.5625 6.0625 C-1.696875 6.041875 -2.83125 6.02125 -4 6 C-2.68 5.67 -1.36 5.34 0 5 C0 3.35 0 1.7 0 0 Z " fill="#FBFBE7" transform="translate(37,105)"/>
<path d="M0 0 C1.45823212 -0.0270043 2.91660675 -0.04639787 4.375 -0.0625 C5.18710937 -0.07410156 5.99921875 -0.08570312 6.8359375 -0.09765625 C9 0 9 0 11 1 C11 2.32 11 3.64 11 5 C9.68 4.34 8.36 3.68 7 3 C7 2.67 7 2.34 7 2 C5.02 2 3.04 2 1 2 C0.67 1.34 0.34 0.68 0 0 Z " fill="#F66F22" transform="translate(23,103)"/>
<path d="M0 0 C0.33 0 0.66 0 1 0 C1 2.31 1 4.62 1 7 C-0.32 7 -1.64 7 -3 7 C-2.25 2.25 -2.25 2.25 0 0 Z " fill="#FAF1DF" transform="translate(20,102)"/>
<path d="M0 0 C0.99 0.495 0.99 0.495 2 1 C2.59355614 3.64860427 2.74209269 6.29197322 3 9 C2.01 9.66 1.02 10.32 0 11 C0 7.37 0 3.74 0 0 Z " fill="#E6772B" transform="translate(152,95)"/>
<path d="M0 0 C2 1 2 1 2.8125 3.375 C3 6 3 6 1.5625 7.8125 C1.046875 8.204375 0.53125 8.59625 0 9 C-0.66 6.69 -1.32 4.38 -2 2 C-1.34 2 -0.68 2 0 2 C0 1.34 0 0.68 0 0 Z " fill="#FAE6CC" transform="translate(162,92)"/>
<path d="M0 0 C2.31 0 4.62 0 7 0 C7 1.65 7 3.3 7 5 C6.01 5 5.02 5 4 5 C3.67 4.01 3.34 3.02 3 2 C2.01 1.34 1.02 0.68 0 0 Z " fill="#E87625" transform="translate(95,117)"/>
<path d="M0 0 C0.99 0 1.98 0 3 0 C3 0.99 3 1.98 3 3 C5.64 3 8.28 3 11 3 C11 3.33 11 3.66 11 4 C7.37 4 3.74 4 0 4 C0 2.68 0 1.36 0 0 Z " fill="#E17934" transform="translate(126,109)"/>
<path d="M0 0 C0.185625 0.639375 0.37125 1.27875 0.5625 1.9375 C1.94246056 4.42126213 1.94246056 4.42126213 5.625 4.75 C6.73875 4.8325 7.8525 4.915 9 5 C9 5.33 9 5.66 9 6 C5.625 6.625 5.625 6.625 2 7 C0 5 0 5 -0.125 2.375 C-0.08375 1.59125 -0.0425 0.8075 0 0 Z " fill="#FBE7CA" transform="translate(94,104)"/>
<path d="M0 0 C0.33 0.66 0.66 1.32 1 2 C3.31 2 5.62 2 8 2 C8 1.34 8 0.68 8 0 C8.99 0 9.98 0 11 0 C11 0.99 11 1.98 11 3 C7.37 3 3.74 3 0 3 C0 2.01 0 1.02 0 0 Z " fill="#FAD5AE" transform="translate(74,109)"/>
<path d="M0 0 C1.134375 0.020625 2.26875 0.04125 3.4375 0.0625 C3.4375 0.7225 3.4375 1.3825 3.4375 2.0625 C2.4475 2.0625 1.4575 2.0625 0.4375 2.0625 C0.4375 2.7225 0.4375 3.3825 0.4375 4.0625 C-0.2225 4.0625 -0.8825 4.0625 -1.5625 4.0625 C-1.5625 3.4025 -1.5625 2.7425 -1.5625 2.0625 C-2.5525 1.7325 -3.5425 1.4025 -4.5625 1.0625 C-3.5625 0.0625 -3.5625 0.0625 0 0 Z " fill="#F8F7ED" transform="translate(161.5625,89.9375)"/>
<path d="M0 0 C1.65 0 3.3 0 5 0 C5 0.66 5 1.32 5 2 C4.34 2 3.68 2 3 2 C2.67 2.99 2.34 3.98 2 5 C2 4.34 2 3.68 2 3 C1.34 3 0.68 3 0 3 C-0.33 3.99 -0.66 4.98 -1 6 C-0.67 4.02 -0.34 2.04 0 0 Z " fill="#FBE8D7" transform="translate(149,80)"/>
<path d="M0 0 C0.33 0.99 0.66 1.98 1 3 C1.99 3 2.98 3 4 3 C3.67 4.65 3.34 6.3 3 8 C2.34 8 1.68 8 1 8 C0.34 5.69 -0.32 3.38 -1 1 C-0.67 0.67 -0.34 0.34 0 0 Z " fill="#DD8148" transform="translate(167,99)"/>
<path d="M0 0 C1.41377341 2.63904371 2.37240135 5.07120629 3 8 C2.67 7.34 2.34 6.68 2 6 C1.34 6 0.68 6 0 6 C0 5.34 0 4.68 0 4 C-0.99 3.67 -1.98 3.34 -3 3 C-3 2.34 -3 1.68 -3 1 C-2.01 0.67 -1.02 0.34 0 0 Z " fill="#F77423" transform="translate(168,92)"/>
<path d="M0 0 C0.928125 0.2784375 0.928125 0.2784375 1.875 0.5625 C4.04160178 1.23686176 4.04160178 1.23686176 6 0 C6.33 0.99 6.66 1.98 7 3 C5.02 3.99 5.02 3.99 3 5 C1.5 3.625 1.5 3.625 0 2 C0 1.34 0 0.68 0 0 Z " fill="#F7DBBB" transform="translate(64,90)"/>
<path d="M0 0 C2.76223278 2.76223278 2.57856291 5.20706617 3 9 C1.68 8.67 0.36 8.34 -1 8 C-1 7.34 -1 6.68 -1 6 C-0.34 6 0.32 6 1 6 C0.67 4.02 0.34 2.04 0 0 Z " fill="#FAE3C5" transform="translate(32,82)"/>
<path d="M0 0 C1.32 0.33 2.64 0.66 4 1 C4.33 2.98 4.66 4.96 5 7 C4.01 7 3.02 7 2 7 C2 5.02 2 3.04 2 1 C1.34 0.67 0.68 0.34 0 0 Z " fill="#F8F2E2" transform="translate(28,81)"/>
</svg>
