<?xml version="1.0" encoding="UTF-8"?>
<svg version="1.1" xmlns="http://www.w3.org/2000/svg" width="200" height="200">
<path d="M0 0 C66 0 132 0 200 0 C200 66 200 132 200 200 C134 200 68 200 0 200 C0 134 0 68 0 0 Z " fill="#FEFEFE" transform="translate(0,0)"/>
<path d="M0 0 C0.72888428 0.00386719 1.45776855 0.00773437 2.20874023 0.01171875 C8.86590058 0.11636138 15.27394989 0.97640415 21.8125 2.25 C22.1425 1.59 22.4725 0.93 22.8125 0.25 C23.3075 2.23 23.3075 2.23 23.8125 4.25 C23.1525 4.25 22.4925 4.25 21.8125 4.25 C21.8125 4.91 21.8125 5.57 21.8125 6.25 C22.8025 6.745 22.8025 6.745 23.8125 7.25 C22.8225 7.91 21.8325 8.57 20.8125 9.25 C21.8025 9.91 22.7925 10.57 23.8125 11.25 C23.4825 12.9 23.1525 14.55 22.8125 16.25 C23.41191406 16.51683594 24.01132813 16.78367187 24.62890625 17.05859375 C31.2574744 20.67525437 36.09263395 29.14348413 38.4453125 36.12890625 C38.93239723 38.94259783 38.90601643 41.64648885 38.875 44.5 C38.86597656 45.57765625 38.85695313 46.6553125 38.84765625 47.765625 C38.83605469 48.58546875 38.82445312 49.4053125 38.8125 50.25 C36.8325 50.25 34.8525 50.25 32.8125 50.25 C32.3175 51.24 32.3175 51.24 31.8125 52.25 C34.1225 52.58 36.4325 52.91 38.8125 53.25 C36.85092653 64.3061414 32.78449485 73.17684004 23.8125 80.25 C16.50409391 85.0163518 8.17285475 87.0936549 -0.1875 89.25 C-0.1875 89.91 -0.1875 90.57 -0.1875 91.25 C-0.8475 91.25 -1.5075 91.25 -2.1875 91.25 C-2.001875 91.889375 -1.81625 92.52875 -1.625 93.1875 C-1.480625 93.868125 -1.33625 94.54875 -1.1875 95.25 C-2.1875 96.25 -2.1875 96.25 -5.28515625 96.5078125 C-9.60173092 96.22263339 -12.81429148 95.01856857 -16.625 93.125 C-17.28242187 92.80660156 -17.93984375 92.48820312 -18.6171875 92.16015625 C-23.58761434 89.68970647 -28.02785294 86.94959393 -32.1875 83.25 C-32.78820312 82.75242187 -33.38890625 82.25484375 -34.0078125 81.7421875 C-42.42165603 74.20250953 -46.89091159 62.92593671 -47.55859375 51.76953125 C-47.95313967 36.66064966 -44.81824589 25.47464231 -34.1875 14.25 C-24.81303191 4.61146239 -13.41104574 -0.17483845 0 0 Z " fill="#E6F4F3" transform="translate(104.1875,31.75)"/>
<path d="M0 0 C8.08502506 5.14501594 14.41618881 13.04914683 17.44140625 22.21875 C18.20557155 26.53025107 17.86441904 30.95130089 17.8125 35.3125 C13.8525 35.3125 9.8925 35.3125 5.8125 35.3125 C1.88329874 26.06732057 -1.7081405 16.73427075 -5.1875 7.3125 C-6.87554192 9.84456289 -7.70207542 11.50975891 -8.60791016 14.32495117 C-8.86802887 15.12555466 -9.12814758 15.92615814 -9.39614868 16.75102234 C-9.67018524 17.61048965 -9.9442218 18.46995697 -10.2265625 19.35546875 C-10.51228119 20.2390657 -10.79799988 21.12266266 -11.09237671 22.03303528 C-12.00344627 24.85397208 -12.90804432 27.67693651 -13.8125 30.5 C-14.42926225 32.41354857 -15.04644468 34.32696177 -15.6640625 36.24023438 C-17.17675407 40.929433 -18.68364517 45.62046029 -20.1875 50.3125 C-23.17051325 48.82099338 -23.36865008 46.41040565 -24.39614868 43.40550232 C-24.67018524 42.57945999 -24.9442218 41.75341766 -25.2265625 40.90234375 C-25.51228119 40.06030899 -25.79799988 39.21827423 -26.09237671 38.35072327 C-27.00605512 35.65277899 -27.90936668 32.95149034 -28.8125 30.25 C-29.42900937 28.42359908 -30.04618825 26.59742401 -30.6640625 24.77148438 C-32.18094498 20.288118 -33.68377344 15.8003825 -35.1875 11.3125 C-38.4875 20.2225 -41.7875 29.1325 -45.1875 38.3125 C-50.1375 38.3125 -55.0875 38.3125 -60.1875 38.3125 C-60.81975824 25.6673352 -59.28188522 16.8243727 -51.0625 6.9375 C-37.11744989 -7.54300279 -17.27033288 -9.53114612 0 0 Z " fill="#1C345C" transform="translate(125.1875,45.6875)"/>
<path d="M0 0 C2.23674043 2.15249609 3.5215009 3.76430739 4.60546875 6.6875 C4.86650391 7.38617188 5.12753906 8.08484375 5.39648438 8.8046875 C5.65751953 9.52914062 5.91855469 10.25359375 6.1875 11 C6.46013672 11.72445312 6.73277344 12.44890625 7.01367188 13.1953125 C8.13810391 16.25016043 9 18.7198137 9 22 C13.95 22 18.9 22 24 22 C21.85366753 32.53654119 17.6093309 41.27723552 9 48 C-2.13755767 54.76516254 -13.81290114 57.06384118 -26.58203125 54.1953125 C-37.45287716 50.45563834 -45.83874947 43.29996284 -51 33 C-52.43005439 29.93559774 -53 28.38480801 -53 25 C-47.72 24.67 -42.44 24.34 -37 24 C-34.69 17.4 -32.38 10.8 -30 4 C-28 5 -28 5 -26.77905273 8.23120117 C-26.3224005 9.66588341 -25.87453981 11.10338167 -25.43359375 12.54296875 C-25.19463882 13.30418533 -24.9556839 14.06540192 -24.70948792 14.84968567 C-24.20413489 16.46514422 -23.70252654 18.08177816 -23.2043457 19.69946289 C-22.44519951 22.16251889 -21.67384022 24.62148107 -20.90039062 27.08007812 C-20.41072413 28.65081297 -19.92176921 30.22176986 -19.43359375 31.79296875 C-19.20441757 32.52444626 -18.97524139 33.25592377 -18.73912048 34.00956726 C-17.51898424 37.98944993 -16.57851729 41.86431181 -16 46 C-15.34 46 -14.68 46 -14 46 C-13.84349976 44.80383057 -13.84349976 44.80383057 -13.68383789 43.58349609 C-12.83490071 39.13483494 -11.47928337 34.9586463 -10.05859375 30.6640625 C-9.77146011 29.78471039 -9.48432648 28.90535828 -9.18849182 27.99935913 C-8.27553922 25.20656267 -7.35661299 22.41577438 -6.4375 19.625 C-5.81535914 17.72539009 -5.19361003 15.82565182 -4.57226562 13.92578125 C-3.05270956 9.28235561 -1.52779505 4.64072102 0 0 Z " fill="#0C4678" transform="translate(119,64)"/>
<path d="M0 0 C0.495 0.185625 0.99 0.37125 1.5 0.5625 C4.38998463 1.06824731 6.88507417 0.67691719 9.76953125 0.265625 C13.47713423 -0.17591091 17.28601554 -0.45461635 21 0 C23.5654594 2.5654594 23.54046087 4.47686668 24 8 C24.66 8 25.32 8 26 8 C26.2577375 13.97482379 25.52325318 18.58594456 23.59375 24.21875 C23.34959351 24.96209595 23.10543701 25.70544189 22.85388184 26.47131348 C22.08029147 28.81803983 21.29048871 31.15891874 20.5 33.5 C19.96896578 35.10120264 19.43900736 36.70276249 18.91015625 38.3046875 C17.61916501 42.20736288 16.31361676 46.10488494 15 50 C12.01698675 48.50849338 11.81884992 46.09790565 10.79135132 43.09300232 C10.51731476 42.26695999 10.2432782 41.44091766 9.9609375 40.58984375 C9.67521881 39.74780899 9.38950012 38.90577423 9.09512329 38.03822327 C8.18144488 35.34027899 7.27813332 32.63899034 6.375 29.9375 C5.75849063 28.11109908 5.14131175 26.28492401 4.5234375 24.45898438 C3.00783514 19.97524294 1.50152315 15.48847493 0 11 C-1.98 16.28 -3.96 21.56 -6 27 C-9 25 -9 25 -9.546875 22.6875 C-9.61390625 21.800625 -9.6809375 20.91375 -9.75 20 C-9.82734375 19.113125 -9.9046875 18.22625 -9.984375 17.3125 C-10 15 -10 15 -9 13 C-8.34 13.33 -7.68 13.66 -7 14 C-7 12.68 -7 11.36 -7 10 C-7.99 10 -8.98 10 -10 10 C-10.75 7.75 -10.75 7.75 -11 5 C-9.5 2.625 -9.5 2.625 -7 1 C-3.25 1.25 -3.25 1.25 0 2 C0 1.34 0 0.68 0 0 Z " fill="#193D6C" transform="translate(90,46)"/>
<path d="M0 0 C0 2.64 0 5.28 0 8 C2.31 8.33 4.62 8.66 7 9 C7.33 13.29 7.66 17.58 8 22 C9.65 22.33 11.3 22.66 13 23 C14.87824891 21.12175109 14.39102397 17.96064724 14.5625 15.4375 C14.64628906 14.23996094 14.73007812 13.04242188 14.81640625 11.80859375 C14.90728516 10.41833984 14.90728516 10.41833984 15 9 C15.99 9 16.98 9 18 9 C18.1079859 11.43868168 18.18726589 13.87259133 18.25 16.3125 C18.30027344 17.34793945 18.30027344 17.34793945 18.3515625 18.40429688 C18.4498209 23.48916891 18.4498209 23.48916891 16.30078125 25.9296875 C13.75614183 27.11344166 11.73033807 27.5639669 8.9375 27.8125 C8.08027344 27.90144531 7.22304688 27.99039063 6.33984375 28.08203125 C4 28 4 28 1 26 C0.54625 26.66 0.0925 27.32 -0.375 28 C-4.37285351 31.04598363 -8.14377056 30.62141325 -13 30 C-17.08476733 28.66316706 -18.51362911 27.79903789 -20.75 24.125 C-21.1625 23.09375 -21.575 22.0625 -22 21 C-22.391875 20.195625 -22.78375 19.39125 -23.1875 18.5625 C-24.70485799 13.77698634 -24.66551426 10.30543181 -22.375 5.8125 C-15.94138058 -1.80625984 -9.27687899 -2.39403329 0 0 Z " fill="#F6FBF6" transform="translate(24,140)"/>
<path d="M0 0 C3.48465218 3.1761248 4.68554489 6.60024736 6.3125 10.9375 C6.60189453 11.65357422 6.89128906 12.36964844 7.18945312 13.10742188 C9.19762594 18.40526654 9.19762594 18.40526654 8.16796875 21.50390625 C7.78253906 21.99761719 7.39710937 22.49132812 7 23 C8.0725 22.95875 9.145 22.9175 10.25 22.875 C13.65747485 22.9885825 15.20739631 23.21273364 18 25 C17.34 27.64 16.68 30.28 16 33 C15.34 33 14.68 33 14 33 C13.67 34.32 13.34 35.64 13 37 C12.01 37 11.02 37 10 37 C10 38.32 10 39.64 10 41 C8.68 41 7.36 41 6 41 C6 41.66 6 42.32 6 43 C5.34 43 4.68 43 4 43 C4 43.66 4 44.32 4 45 C3.34 45 2.68 45 2 45 C1.67 45.99 1.34 46.98 1 48 C-1.0625 48.6875 -1.0625 48.6875 -3 49 C-3 49.66 -3 50.32 -3 51 C-5.97 51.495 -5.97 51.495 -9 52 C-9 51.34 -9 50.68 -9 50 C-9.66 50 -10.32 50 -11 50 C-10.67 46.04 -10.34 42.08 -10 38 C-10.66 38 -11.32 38 -12 38 C-9.80345089 29.47459602 -7.13081612 21.15058039 -4.3125 12.8125 C-3.68891602 10.9552832 -3.68891602 10.9552832 -3.05273438 9.06054688 C-2.03791686 6.03942347 -1.02029029 3.0192786 0 0 Z " fill="#094479" transform="translate(119,64)"/>
<path d="M0 0 C0.73404053 -0.00128906 1.46808105 -0.00257812 2.22436523 -0.00390625 C8.57559835 0.11854057 13.95307927 1.60067982 19.6875 4.375 C19.3575 5.695 19.0275 7.015 18.6875 8.375 C17.79289062 8.1584375 16.89828125 7.941875 15.9765625 7.71875 C2.33733917 4.57794804 -9.1553057 4.05261641 -21.76171875 10.77734375 C-32.26255861 17.35443947 -39.07612199 26.39165439 -42.3125 38.375 C-43.91815611 52.87764276 -41.31679279 64.723776 -32.3125 76.375 C-25.03557767 85.06687945 -14.95727933 88.53861679 -4.3125 91.375 C-4.8075 93.355 -4.8075 93.355 -5.3125 95.375 C-18.06703561 94.12255061 -28.42245648 88.44716844 -37.15234375 79.12109375 C-46.83536192 66.81157879 -48.84969646 52.54157715 -47.3125 37.375 C-44.55769389 24.9975921 -36.52886718 14.70982772 -26.3125 7.375 C-17.9631691 2.36006643 -9.69805393 -0.01786219 0 0 Z " fill="#5B9458" transform="translate(104.3125,31.625)"/>
<path d="M0 0 C2.97 0 5.94 0 9 0 C9 1.65 9 3.3 9 5 C9.99 5 10.98 5 12 5 C12 6.32 12 7.64 12 9 C11.01 9 10.02 9 9 9 C9 13.62 9 18.24 9 23 C7.35 23 5.7 23 4 23 C3.67 23.33 3.34 23.66 3 24 C1.68 24 0.36 24 -1 24 C-2.3921875 24.309375 -2.3921875 24.309375 -3.8125 24.625 C-9.12383379 25.2498628 -12.68087392 23.98232793 -16.9375 20.8125 C-19 18 -19 18 -19.5625 14.5 C-18.91877781 10.49461748 -17.84054174 8.84054174 -15 6 C-12.59454362 4.79727181 -11.05003047 4.89928528 -8.375 4.9375 C-7.14910156 4.95103516 -7.14910156 4.95103516 -5.8984375 4.96484375 C-4.95871094 4.98224609 -4.95871094 4.98224609 -4 5 C-4 4.01 -4 3.02 -4 2 C-2.02 2 -0.04 2 2 2 C1.34 1.34 0.68 0.68 0 0 Z " fill="#E4F1F6" transform="translate(139,144)"/>
<path d="M0 0 C0.66 0.33 1.32 0.66 2 1 C4.54615009 1.23172827 7.07396225 1.41894529 9.625 1.5625 C10.33140625 1.60568359 11.0378125 1.64886719 11.765625 1.69335938 C13.51018537 1.79944751 15.25506697 1.90022889 17 2 C14.85366753 12.53654119 10.6093309 21.27723552 2 28 C-9.13755767 34.76516254 -20.81290114 37.06384118 -33.58203125 34.1953125 C-44.45287716 30.45563834 -52.83874947 23.29996284 -58 13 C-59.43005439 9.93559774 -60 8.38480801 -60 5 C-54.72 5 -49.44 5 -44 5 C-44 5.99 -44 6.98 -44 8 C-44.99 8.495 -44.99 8.495 -46 9 C-46 12.63 -46 16.26 -46 20 C-45.01 20.33 -44.02 20.66 -43 21 C-42.3125 23.0625 -42.3125 23.0625 -42 25 C-42.66 25 -43.32 25 -44 25 C-44 25.66 -44 26.32 -44 27 C-42.700625 27.12375 -41.40125 27.2475 -40.0625 27.375 C-37.84765625 27.5859375 -37.84765625 27.5859375 -36 28 C-35.67 28.66 -35.34 29.32 -35 30 C-31.99984088 31.00005304 -30.02576244 31.11575585 -26.89453125 31.09765625 C-25.42016602 31.09282227 -25.42016602 31.09282227 -23.91601562 31.08789062 C-22.89185547 31.07951172 -21.86769531 31.07113281 -20.8125 31.0625 C-19.77673828 31.05798828 -18.74097656 31.05347656 -17.67382812 31.04882812 C-15.11582734 31.0370401 -12.55794267 31.02058515 -10 31 C-10 30.34 -10 29.68 -10 29 C-9.360625 28.71125 -8.72125 28.4225 -8.0625 28.125 C-5.84793921 27.17176549 -5.84793921 27.17176549 -5 25 C-4.34 25 -3.68 25 -3 25 C-3 24.34 -3 23.68 -3 23 C-2.34 23 -1.68 23 -1 23 C-1 22.34 -1 21.68 -1 21 C0.32 21 1.64 21 3 21 C3 19.68 3 18.36 3 17 C3.99 16.67 4.98 16.34 6 16 C6.33 15.01 6.66 14.02 7 13 C7.66 13 8.32 13 9 13 C9.33 10.36 9.66 7.72 10 5 C5.05 4.01 5.05 4.01 0 3 C0 2.01 0 1.02 0 0 Z " fill="#163C63" transform="translate(126,84)"/>
<path d="M0 0 C2.06309376 0.11478413 4.12548354 0.24226198 6.1875 0.375 C7.91033203 0.47941406 7.91033203 0.47941406 9.66796875 0.5859375 C12.79959117 0.97509574 15.15285809 1.6809851 18 3 C17.67 3.99 17.34 4.98 17 6 C17 6.86625 17 7.7325 17 8.625 C17 9.40875 17 10.1925 17 11 C16 12 16 12 12.62109375 12.09765625 C11.22652923 12.09098369 9.83198257 12.07902532 8.4375 12.0625 C7.72658203 12.05798828 7.01566406 12.05347656 6.28320312 12.04882812 C4.52209987 12.03700864 2.76103964 12.01907263 1 12 C1.33 13.32 1.66 14.64 2 16 C6.16138263 16.08159574 9.9472484 15.98248524 14 15 C14.33 15.99 14.66 16.98 15 18 C9.62669111 21.39366878 5.13053511 21.32712342 -1 21 C-2.84827434 17.3874638 -4.55049545 13.7910119 -6 10 C-9.12606964 11.60480784 -9.12606964 11.60480784 -9.51171875 13.9453125 C-9.56972656 14.66460937 -9.62773438 15.38390625 -9.6875 16.125 C-9.8421875 18.043125 -9.8421875 18.043125 -10 20 C-11.65 20 -13.3 20 -15 20 C-15 14.06 -15 8.12 -15 2 C-12.525 2.495 -12.525 2.495 -10 3 C-9.67 2.67 -9.34 2.34 -9 2 C-7.48530552 1.76807135 -5.96245438 1.58784762 -4.4375 1.4375 C-3.61121094 1.35371094 -2.78492188 1.26992187 -1.93359375 1.18359375 C-0.97646484 1.09271484 -0.97646484 1.09271484 0 1 C0 0.67 0 0.34 0 0 Z " fill="#DEF6DA" transform="translate(62,147)"/>
<path d="M0 0 C2.44015354 2.44015354 2.69053029 4.04245663 3.5078125 7.375 C3.77207031 8.44234375 4.03632812 9.5096875 4.30859375 10.609375 C4.57800781 11.72828125 4.84742187 12.8471875 5.125 14 C5.54072266 15.67835938 5.54072266 15.67835938 5.96484375 17.390625 C8 25.6916564 8 25.6916564 8 28 C6.68 28 5.36 28 4 28 C3.49411853 26.08487728 2.99551609 24.16783078 2.5 22.25 C2.2215625 21.18265625 1.943125 20.1153125 1.65625 19.015625 C1 16 1 16 1 12 C0.34 12 -0.32 12 -1 12 C-1.18175781 12.556875 -1.36351563 13.11375 -1.55078125 13.6875 C-3.24862185 18.84196991 -5.06422235 23.93010615 -7 29 C-10.93479571 24.24593598 -12.71457167 18.68268665 -15 13 C-16.65 17.95 -18.3 22.9 -20 28 C-20.99 28 -21.98 28 -23 28 C-22.43755107 21.54153469 -21.26271535 15.64936738 -19.4375 9.4375 C-19.20353516 8.61958984 -18.96957031 7.80167969 -18.72851562 6.95898438 C-18.15880046 4.97079473 -17.58033086 2.98511701 -17 1 C-16.34 1 -15.68 1 -15 1 C-12.69 6.61 -10.38 12.22 -8 18 C-4.64550233 11.31360804 -4.64550233 11.31360804 -1.75 4.5 C-1.24726562 3.21609375 -1.24726562 3.21609375 -0.734375 1.90625 C-0.49203125 1.2771875 -0.2496875 0.648125 0 0 Z " fill="#1F4F75" transform="translate(110,139)"/>
<path d="M0 0 C2.25 -0.25 2.25 -0.25 5 0 C7.3125 2 7.3125 2 9 4 C9.56654297 3.01773438 9.56654297 3.01773438 10.14453125 2.015625 C12 0 12 0 14.69921875 -0.390625 C17.46614583 -0.26041667 20.23307292 -0.13020833 23 0 C23 6.27 23 12.54 23 19 C13.63013699 18.63013699 13.63013699 18.63013699 10.5 15.5 C10.005 14.675 9.51 13.85 9 13 C8.34 12.67 7.68 12.34 7 12 C6.71125 12.61875 6.4225 13.2375 6.125 13.875 C5 16 5 16 3 18 C1.68 18 0.36 18 -1 18 C0.52708963 14.56404834 2.59927045 11.88087546 5 9 C3.99554337 6.75928906 3.12245015 5.12245015 1.375 3.375 C0.92125 2.92125 0.4675 2.4675 0 2 C0 1.34 0 0.68 0 0 Z " fill="#E8EFF2" transform="translate(177,149)"/>
<path d="M0 0 C0.66 0 1.32 0 2 0 C2.9765625 1.7578125 3.953125 3.515625 4.9296875 5.2734375 C6.00897274 7.1612614 6.00897274 7.1612614 8 9 C7.01 9.495 7.01 9.495 6 10 C5.11360611 12.65918166 4.82010975 14.48064641 4.68359375 17.23046875 C4.64169922 18.03291016 4.59980469 18.83535156 4.55664062 19.66210938 C4.51732422 20.49548828 4.47800781 21.32886719 4.4375 22.1875 C4.39431641 23.03248047 4.35113281 23.87746094 4.30664062 24.74804688 C4.20068482 26.83184433 4.0998498 28.91590103 4 31 C2.35 31 0.7 31 -1 31 C-1.33 26.05 -1.66 21.1 -2 16 C-2.33 16.33 -2.66 16.66 -3 17 C-4.98 17 -6.96 17 -9 17 C-9.33 21.62 -9.66 26.24 -10 31 C-11.32 31 -12.64 31 -14 31 C-14 25.06 -14 19.12 -14 13 C-12.35 12.67 -10.7 12.34 -9 12 C-9 11.34 -9 10.68 -9 10 C-8.236875 9.979375 -7.47375 9.95875 -6.6875 9.9375 C-3.60820804 9.21100766 -3.60820804 9.21100766 -2.25 5.5625 C-1.8375 4.386875 -1.425 3.21125 -1 2 C-0.67 1.34 -0.34 0.68 0 0 Z " fill="#CCE1EC" transform="translate(169,136)"/>
<path d="M0 0 C0 1.32 0 2.64 0 4 C-0.83144531 3.98839844 -1.66289062 3.97679687 -2.51953125 3.96484375 C-4.14955078 3.95130859 -4.14955078 3.95130859 -5.8125 3.9375 C-7.43091797 3.92009766 -7.43091797 3.92009766 -9.08203125 3.90234375 C-12.06512169 3.86375234 -12.06512169 3.86375234 -15 5 C-17.0624118 7.67349678 -17.93881419 9.58918096 -18.4375 12.9375 C-17.88393677 16.8124426 -16.40826469 18.95425348 -14 22 C-11.23547967 23.38226016 -8.9538637 23.09525387 -5.875 23.0625 C-4.77929688 23.05347656 -3.68359375 23.04445312 -2.5546875 23.03515625 C-1.71164063 23.02355469 -0.86859375 23.01195312 0 23 C-0.375 24.9375 -0.375 24.9375 -1 27 C-5.04555956 29.02277978 -9.8804883 28.2195121 -14.1875 27.375 C-18.36543958 25.33245176 -20.98037117 22.4314226 -22.8125 18.0625 C-22.874375 17.381875 -22.93625 16.70125 -23 16 C-23.103125 14.88625 -23.20625 13.7725 -23.3125 12.625 C-22.82973945 7.02497765 -20.43995438 4.27251783 -16.3125 0.625 C-10.90674607 -2.02687928 -5.71460607 -1.59026368 0 0 Z " fill="#5E905B" transform="translate(23,140)"/>
<path d="M0 0 C3.51978232 0.04423425 4.18876339 0.32939827 7.1875 2.5625 C9.25 5.375 9.25 5.375 10.25 10.375 C5.3 10.375 0.35 10.375 -4.75 10.375 C-4.42 11.695 -4.09 13.015 -3.75 14.375 C0.41138263 14.45659574 4.1972484 14.35748524 8.25 13.375 C8.58 14.365 8.91 15.355 9.25 16.375 C4.94048611 18.82358744 1.11645309 19.08170918 -3.75 18.375 C-7.11212535 16.27367166 -7.62491411 14.79716489 -8.75 11 C-8.75 4.92355887 -6.00502933 0.60050293 0 0 Z " fill="#629660" transform="translate(67.75,148.625)"/>
<path d="M0 0 C2.80555823 3.14769948 4 4.76393124 4 9 C-0.95 9 -5.9 9 -11 9 C-10.01 10.32 -9.02 11.64 -8 13 C-5.70154505 13.2677441 -5.70154505 13.2677441 -3.3125 12.75 C-2.10013672 12.55664062 -2.10013672 12.55664062 -0.86328125 12.359375 C-0.24839844 12.24078125 0.36648437 12.1221875 1 12 C1 13.32 1 14.64 1 16 C-2.48660044 17.74330022 -6.19592935 17.5706106 -10 17 C-13.0625 14.9375 -13.0625 14.9375 -15 12 C-15.69151325 7.69725091 -15.51557405 5.79054688 -13.125 2.125 C-9.14593197 -1.85406803 -5.23284047 -1.53360334 0 0 Z " fill="#265071" transform="translate(135,150)"/>
<path d="M0 0 C2.19423461 2.19423461 2.79396533 3.69797168 3.875 6.578125 C4.22046875 7.49207031 4.5659375 8.40601563 4.921875 9.34765625 C5.45554687 10.78431641 5.45554687 10.78431641 6 12.25 C6.35578125 13.19230469 6.7115625 14.13460937 7.078125 15.10546875 C8.8086963 19.70956328 10.49146782 24.31726468 12 29 C15.96 29.33 19.92 29.66 24 30 C24 30.33 24 30.66 24 31 C22.02 31 20.04 31 18 31 C17.67 31.66 17.34 32.32 17 33 C20.465 33.495 20.465 33.495 24 34 C24 34.33 24 34.66 24 35 C19.05 35 14.1 35 9 35 C8.44570312 33.50726563 7.89140625 32.01453125 7.3203125 30.4765625 C6.58882705 28.52593463 5.8570406 26.5754196 5.125 24.625 C4.57779297 23.14773437 4.57779297 23.14773437 4.01953125 21.640625 C3.66503906 20.69960937 3.31054688 19.75859375 2.9453125 18.7890625 C2.62062988 17.91975098 2.29594727 17.05043945 1.96142578 16.15478516 C1.08599485 13.84757782 1.08599485 13.84757782 -1 12 C-1.99 12.33 -2.98 12.66 -4 13 C-3.52343588 11.20763933 -3.04366502 9.41613103 -2.5625 7.625 C-2.29566406 6.62726562 -2.02882813 5.62953125 -1.75390625 4.6015625 C-1 2 -1 2 0 0 Z " fill="#E2EBF2" transform="translate(119,51)"/>
<path d="M0 0 C0.33 0 0.66 0 1 0 C1 1.65 1 3.3 1 5 C1.66 5.33 2.32 5.66 3 6 C1.8588375 9.31412795 0.71129255 12.62600993 -0.4375 15.9375 C-0.76298828 16.88302734 -1.08847656 17.82855469 -1.42382812 18.80273438 C-1.73642578 19.70185547 -2.04902344 20.60097656 -2.37109375 21.52734375 C-2.65911865 22.35999756 -2.94714355 23.19265137 -3.24389648 24.05053711 C-4 26 -4 26 -5 27 C-6.34015221 27.15582303 -7.68758903 27.25044142 -9.03515625 27.31640625 C-9.84404297 27.35830078 -10.65292969 27.40019531 -11.48632812 27.44335938 C-12.33646484 27.48267578 -13.18660156 27.52199219 -14.0625 27.5625 C-14.91650391 27.60568359 -15.77050781 27.64886719 -16.65039062 27.69335938 C-18.76672037 27.79976702 -20.88333813 27.90041731 -23 28 C-23.33 27.01 -23.66 26.02 -24 25 C-23.34 25 -22.68 25 -22 25 C-22 24.01 -22 23.02 -22 22 C-17.05 22 -12.1 22 -7 22 C-6.38125 19.6178125 -6.38125 19.6178125 -5.75 17.1875 C-4.15953777 11.3279023 -2.16077478 5.67066274 0 0 Z " fill="#DBE9EF" transform="translate(87,62)"/>
<path d="M0 0 C0.66 0.33 1.32 0.66 2 1 C2 2.98 2 4.96 2 7 C3.98 7 5.96 7 8 7 C8 7.99 8 8.98 8 10 C9.32 10.33 10.64 10.66 12 11 C12 12.65 12 14.3 12 16 C12.66 16 13.32 16 14 16 C12.9318153 21.11365014 11.76892524 26.07227969 10 31 C6.29467837 29.14733919 5.83492045 24.20305448 4.57617188 20.4609375 C4.36919678 19.83155273 4.16222168 19.20216797 3.94897461 18.55371094 C3.3160192 16.63566423 2.66574139 14.7241205 2.01367188 12.8125 C1.61341797 11.60851562 1.21316406 10.40453125 0.80078125 9.1640625 C0.43122314 8.05498535 0.06166504 6.9459082 -0.3190918 5.80322266 C-1 3 -1 3 0 0 Z " fill="#214B7D" transform="translate(95,65)"/>
<path d="M0 0 C2.29985123 2.08569667 3.54730486 3.82302856 4.640625 6.72265625 C4.90617187 7.42583984 5.17171875 8.12902344 5.4453125 8.85351562 C5.71085937 9.58248047 5.97640625 10.31144531 6.25 11.0625 C6.53101562 11.79533203 6.81203125 12.52816406 7.1015625 13.28320312 C7.7999567 15.1657558 8.40715137 17.08159192 9 19 C7.93453047 21.13093906 6.70840281 22.36587557 5 24 C5 23.34 5 22.68 5 22 C4.34 22 3.68 22 3 22 C2.34 20.35 1.68 18.7 1 17 C-2.38005327 18.44859426 -4.4587228 20.37330171 -7 23 C-4.97810834 15.21878058 -2.61369593 7.60227292 0 0 Z " fill="#063F73" transform="translate(119,64)"/>
<path d="M0 0 C2.25 -0.25 2.25 -0.25 5 0 C7.3125 2 7.3125 2 9 4 C9.4125 3.34 9.825 2.68 10.25 2 C10.8275 1.34 11.405 0.68 12 0 C13.32 0 14.64 0 16 0 C14.79618552 2.49361571 13.54571278 4.68143083 12 7 C12.25818693 10.87280389 14.62676144 13.09086886 17 16 C17 16.66 17 17.32 17 18 C15.68 18 14.36 18 13 18 C10.875 15.5625 10.875 15.5625 9 13 C8.34 12.67 7.68 12.34 7 12 C6.71125 12.61875 6.4225 13.2375 6.125 13.875 C5 16 5 16 3 18 C1.68 18 0.36 18 -1 18 C0.52708963 14.56404834 2.59927045 11.88087546 5 9 C3.99554337 6.75928906 3.12245015 5.12245015 1.375 3.375 C0.92125 2.92125 0.4675 2.4675 0 2 C0 1.34 0 0.68 0 0 Z " fill="#2A5271" transform="translate(177,149)"/>
<path d="M0 0 C1.32 0 2.64 0 4 0 C4.33 4.29 4.66 8.58 5 13 C6.65 13.33 8.3 13.66 10 14 C11.87824891 12.12175109 11.39102397 8.96064724 11.5625 6.4375 C11.64628906 5.23996094 11.73007812 4.04242188 11.81640625 2.80859375 C11.87699219 1.88175781 11.93757813 0.95492187 12 0 C12.99 0 13.98 0 15 0 C15.1079859 2.43868168 15.18726589 4.87259133 15.25 7.3125 C15.30027344 8.34793945 15.30027344 8.34793945 15.3515625 9.40429688 C15.45023529 14.51061381 15.45023529 14.51061381 13.203125 16.953125 C9.94453731 18.50153192 7.55487618 18.44435952 4 18 C1.796875 16.42578125 1.796875 16.42578125 0 14 C-0.390625 10.546875 -0.390625 10.546875 -0.25 6.75 C-0.21390625 5.48671875 -0.1778125 4.2234375 -0.140625 2.921875 C-0.09421875 1.95765625 -0.0478125 0.9934375 0 0 Z " fill="#568C52" transform="translate(27,149)"/>
<path d="M0 0 C0.66 1.32 1.32 2.64 2 4 C1.34 4 0.68 4 0 4 C0 4.66 0 5.32 0 6 C0.66 6.33 1.32 6.66 2 7 C1.01 7.66 0.02 8.32 -1 9 C-0.01 9.66 0.98 10.32 2 11 C1.67 12.32 1.34 13.64 1 15 C0.34 14.731875 -0.32 14.46375 -1 14.1875 C-3.34537353 13.25912298 -5.69595909 12.37141787 -8.0625 11.5 C-10.80119207 10.480109 -13.42531697 9.39461998 -16 8 C-14.68 7.67 -13.36 7.34 -12 7 C-19.92 7 -27.84 7 -36 7 C-29.90690631 2.93793754 -21.60825667 3.2927201 -14.53125 4.37890625 C-10.51919605 5.22812434 -6.75005872 6.30642509 -3 8 C-2.67 6.68 -2.34 5.36 -2 4 C-4.97 3.34 -7.94 2.68 -11 2 C-6.80104745 0.95026186 -4.20594226 1.27204845 0 2 C0 1.34 0 0.68 0 0 Z " fill="#E0F5D5" transform="translate(126,32)"/>
<path d="M0 0 C0.33 0.99 0.66 1.98 1 3 C1.598125 2.649375 2.19625 2.29875 2.8125 1.9375 C5 1 5 1 8 2 C7.67 2.66 7.34 3.32 7 4 C8.32 4.33 9.64 4.66 11 5 C8.69 5.66 6.38 6.32 4 7 C4 6.34 4 5.68 4 5 C2.68 5 1.36 5 0 5 C0 9.95 0 14.9 0 20 C-0.66 20 -1.32 20 -2 20 C-2.33 20.99 -2.66 21.98 -3 23 C-5.52475462 24.26237731 -7.31200466 24.09856404 -10.125 24.0625 C-11.03507812 24.05347656 -11.94515625 24.04445312 -12.8828125 24.03515625 C-13.93082031 24.01775391 -13.93082031 24.01775391 -15 24 C-15 23.67 -15 23.34 -15 23 C-14.15115234 22.80083984 -14.15115234 22.80083984 -13.28515625 22.59765625 C-12.18494141 22.33275391 -12.18494141 22.33275391 -11.0625 22.0625 C-9.96615234 21.80146484 -9.96615234 21.80146484 -8.84765625 21.53515625 C-7.00030102 21.16112431 -7.00030102 21.16112431 -6 20 C-5.76346477 17.47403741 -5.57826308 14.96892793 -5.4375 12.4375 C-5.39431641 11.72658203 -5.35113281 11.01566406 -5.30664062 10.28320312 C-5.20028223 8.52238088 -5.09961154 6.7612168 -5 5 C-3.68 5 -2.36 5 -1 5 C-0.67 3.35 -0.34 1.7 0 0 Z " fill="#EAF8E8" transform="translate(47,144)"/>
<path d="M0 0 C1.32 0 2.64 0 4 0 C4 1.65 4 3.3 4 5 C4.99 5 5.98 5 7 5 C7 6.32 7 7.64 7 9 C6.01 9 5.02 9 4 9 C4 13.62 4 18.24 4 23 C2.68 23 1.36 23 0 23 C0 18.38 0 13.76 0 9 C-0.99 9 -1.98 9 -3 9 C-3 7.68 -3 6.36 -3 5 C-2.01 5 -1.02 5 0 5 C0 3.35 0 1.7 0 0 Z " fill="#4D718F" transform="translate(144,144)"/>
<path d="M0 0 C0.99 0.495 0.99 0.495 2 1 C4.54615009 1.23172827 7.07396225 1.41894529 9.625 1.5625 C10.33140625 1.60568359 11.0378125 1.64886719 11.765625 1.69335938 C13.51018537 1.79944751 15.25506697 1.90022889 17 2 C14.27272727 14.72727273 14.27272727 14.72727273 10 19 C8.33382885 19.04063832 6.66611905 19.042721 5 19 C5.66 17.02 6.32 15.04 7 13 C7.66 13 8.32 13 9 13 C9.33 10.36 9.66 7.72 10 5 C6.7 4.34 3.4 3.68 0 3 C0 2.01 0 1.02 0 0 Z " fill="#1D3251" transform="translate(126,84)"/>
<path d="M0 0 C3.3 0 6.6 0 10 0 C9.01 0.66 8.02 1.32 7 2 C7.22773256 4.12750156 7.48290818 6.25208056 7.75 8.375 C7.88921875 9.55835937 8.0284375 10.74171875 8.171875 11.9609375 C8.65432454 15.1034319 8.65432454 15.1034319 11 16.21875 C11.99 16.60546875 11.99 16.60546875 13 17 C14.25 20.125 14.25 20.125 15 23 C8.05322378 17.58151455 2.90961989 11.42833556 0 3 C0 2.01 0 1.02 0 0 Z " fill="#2B3D5E" transform="translate(66,89)"/>
<path d="M0 0 C2.475 0.495 2.475 0.495 5 1 C5.33 0.67 5.66 0.34 6 0 C7.66617115 -0.04063832 9.33388095 -0.042721 11 0 C10 3 10 3 7.48828125 4.30078125 C4.70502022 5.79413242 4.70502022 5.79413242 4.29296875 8.91796875 C4.25816406 9.99691406 4.22335938 11.07585937 4.1875 12.1875 C4.13980469 13.27417969 4.09210937 14.36085937 4.04296875 15.48046875 C4.02878906 16.31191406 4.01460937 17.14335937 4 18 C2.68 18 1.36 18 0 18 C0 12.06 0 6.12 0 0 Z " fill="#659863" transform="translate(47,149)"/>
<path d="M0 0 C2.475 0.495 2.475 0.495 5 1 C7.72502965 0.62277985 7.72502965 0.62277985 10 0 C10 1.32 10 2.64 10 4 C8.35 4 6.7 4 5 4 C4.67 8.62 4.34 13.24 4 18 C2.68 18 1.36 18 0 18 C0 12.06 0 6.12 0 0 Z " fill="#3F6786" transform="translate(155,149)"/>
<path d="M0 0 C0.66 0.66 1.32 1.32 2 2 C2.66 1.34 3.32 0.68 4 0 C4 5.94 4 11.88 4 18 C3.01 18 2.02 18 1 18 C0.67 16.35 0.34 14.7 0 13 C-0.33 13 -0.66 13 -1 13 C-1.33 14.65 -1.66 16.3 -2 18 C-2.33 18 -2.66 18 -3 18 C-3 13.38 -3 8.76 -3 4 C-2.01 4 -1.02 4 0 4 C0 2.68 0 1.36 0 0 Z " fill="#E6F7FC" transform="translate(151,149)"/>
<path d="M0 0 C0.66 0.33 1.32 0.66 2 1 C3.425 8.3625 3.425 8.3625 1 12 C1.99 12 2.98 12 4 12 C3.67 13.32 3.34 14.64 3 16 C1.35 16.33 -0.3 16.66 -2 17 C-2.33 18.32 -2.66 19.64 -3 21 C-4.32 20.67 -5.64 20.34 -7 20 C-4.69 13.4 -2.38 6.8 0 0 Z " fill="#124570" transform="translate(89,68)"/>
<path d="M0 0 C0.33 0 0.66 0 1 0 C1.03738281 0.74765625 1.07476563 1.4953125 1.11328125 2.265625 C1.17902344 3.25046875 1.24476562 4.2353125 1.3125 5.25 C1.37050781 6.22453125 1.42851562 7.1990625 1.48828125 8.203125 C2.04636524 11.25341611 2.96369776 12.70711276 5 15 C4.01 15.33 3.02 15.66 2 16 C1.01 15.34 0.02 14.68 -1 14 C-1.45375 14.66 -1.9075 15.32 -2.375 16 C-6.36634861 19.04102751 -10.15014746 18.63391773 -15 18 C-18.5625 16.75 -18.5625 16.75 -21 15 C-21.875 12.8125 -21.875 12.8125 -22 11 C-21.01 11.495 -21.01 11.495 -20 12 C-20 12.66 -20 13.32 -20 14 C-11.86309912 15.65573422 -11.86309912 15.65573422 -4 14 C-3.67 13.01 -3.34 12.02 -3 11 C-3.66 10.67 -4.32 10.34 -5 10 C-4.0409375 9.4740625 -4.0409375 9.4740625 -3.0625 8.9375 C-0.17836168 6.22815794 -0.2899178 3.84141089 0 0 Z " fill="#DDF0DB" transform="translate(26,152)"/>
<path d="M0 0 C-1.66153012 5.85659906 -3.47041916 11.4590134 -6 17 C-8.40804568 14.59195432 -9.00768759 12.57796225 -10.125 9.375 C-10.47820312 8.37210938 -10.83140625 7.36921875 -11.1953125 6.3359375 C-11.46085937 5.56507813 -11.72640625 4.79421875 -12 4 C-11.0925 3.71125 -10.185 3.4225 -9.25 3.125 C-6.11648882 2.11919787 -6.11648882 2.11919787 -3.75 0.875 C-2 0 -2 0 0 0 Z " fill="#F9FBFC" transform="translate(109,142)"/>
<path d="M0 0 C0.33 0.99 0.66 1.98 1 3 C0.67 3.66 0.34 4.32 0 5 C0.66 5.33 1.32 5.66 2 6 C1.52433594 7.25683594 1.52433594 7.25683594 1.0390625 8.5390625 C-0.07028251 12.2340989 -0.40729602 15.52889627 -0.625 19.375 C-0.69976562 20.62023437 -0.77453125 21.86546875 -0.8515625 23.1484375 C-0.90054688 24.08945313 -0.94953125 25.03046875 -1 26 C-1.33 26 -1.66 26 -2 26 C-2.33 24.02 -2.66 22.04 -3 20 C-3.33 23.3 -3.66 26.6 -4 30 C-4.33 30 -4.66 30 -5 30 C-5.76204487 10.56785583 -5.76204487 10.56785583 -1 2 C-0.67 1.34 -0.34 0.68 0 0 Z " fill="#DAF3DD" transform="translate(66,58)"/>
<path d="M0 0 C2.61850518 3.49134024 3.80304871 5.73986524 5.1875 9.75 C5.53167969 10.73484375 5.87585938 11.7196875 6.23046875 12.734375 C6.48441406 13.48203125 6.73835938 14.2296875 7 15 C6.34 15 5.68 15 5 15 C4.67 15.66 4.34 16.32 4 17 C2.68 16.01 1.36 15.02 0 14 C-1.98 14.99 -1.98 14.99 -4 16 C-2.68 10.72 -1.36 5.44 0 0 Z " fill="#FBFCF7" transform="translate(94,150)"/>
<path d="M0 0 C0.66 0.33 1.32 0.66 2 1 C1.52877252 7.9113364 -1.20636006 13.72204161 -4 20 C-7.20878901 16.09670598 -7.94276458 12.87954811 -9 8 C-7.68 8.33 -6.36 8.66 -5 9 C-3.35 6.03 -1.7 3.06 0 0 Z " fill="#184B71" transform="translate(107,148)"/>
<path d="M0 0 C1.31677734 0.11408203 1.31677734 0.11408203 2.66015625 0.23046875 C4.9375 0.8125 4.9375 0.8125 6.9375 3.8125 C6.9375 4.8025 6.9375 5.7925 6.9375 6.8125 C1.9875 6.8125 -2.9625 6.8125 -8.0625 6.8125 C-8.0625 6.4825 -8.0625 6.1525 -8.0625 5.8125 C-5.7525 5.8125 -3.4425 5.8125 -1.0625 5.8125 C-1.0625 5.1525 -1.0625 4.4925 -1.0625 3.8125 C-3.3725 3.8125 -5.6825 3.8125 -8.0625 3.8125 C-8.0625 3.1525 -8.0625 2.4925 -8.0625 1.8125 C-4.68666252 -0.43805832 -3.87890641 -0.39417458 0 0 Z " fill="#2D597B" transform="translate(132.0625,152.1875)"/>
<path d="M0 0 C7.18781726 -0.60913706 7.18781726 -0.60913706 11 2.25 C13 5 13 5 13 9 C8.71 8.67 4.42 8.34 0 8 C0 7.67 0 7.34 0 7 C2.97 7 5.94 7 9 7 C8.01 6.01 7.02 5.02 6 4 C3.00224356 4.24471481 0.69322172 4.65338914 -2 6 C-1.34 4.02 -0.68 2.04 0 0 Z " fill="#5A9256" transform="translate(64,149)"/>
<path d="M0 0 C-0.53837351 7.40263571 -2.26408874 13.88410106 -7.25 19.5625 C-7.8275 20.036875 -8.405 20.51125 -9 21 C-8.5359375 19.515 -8.5359375 19.515 -8.0625 18 C-7.26860138 15.26299286 -6.79238802 12.64600574 -6.5 9.8125 C-5.82022472 4.62921348 -5.82022472 4.62921348 -4 2 C-1 0 -1 0 0 0 Z " fill="#E5F2F8" transform="translate(119,62)"/>
<path d="M0 0 C0.66 1.32 1.32 2.64 2 4 C1.34 4 0.68 4 0 4 C0 4.66 0 5.32 0 6 C0.66 6.33 1.32 6.66 2 7 C0.02 7.99 0.02 7.99 -2 9 C-2 7.35 -2 5.7 -2 4 C-6.455 3.01 -6.455 3.01 -11 2 C-6.80104745 0.95026186 -4.20594226 1.27204845 0 2 C0 1.34 0 0.68 0 0 Z M-9 9 C-1.57142857 8.71428571 -1.57142857 8.71428571 2 11 C1.67 12.32 1.34 13.64 1 15 C-2.59007126 13.66654496 -5.79570907 12.1056769 -9 10 C-9 9.67 -9 9.34 -9 9 Z " fill="#E5F4E7" transform="translate(126,32)"/>
<path d="M0 0 C0.20367187 0.64453125 0.40734375 1.2890625 0.6171875 1.953125 C1.8667935 4.31153872 1.8667935 4.31153872 4.8203125 4.609375 C5.91085938 4.65578125 7.00140625 4.7021875 8.125 4.75 C9.76855469 4.83507812 9.76855469 4.83507812 11.4453125 4.921875 C12.28835937 4.94765625 13.13140625 4.9734375 14 5 C14 5.33 14 5.66 14 6 C12.02 6 10.04 6 8 6 C7.67 6.66 7.34 7.32 7 8 C9.31 8.33 11.62 8.66 14 9 C14 9.33 14 9.66 14 10 C9.05 10 4.1 10 -1 10 C-2 3 -2 3 0 0 Z " fill="#D1DEE8" transform="translate(129,76)"/>
<path d="M0 0 C3.20105523 6.18870678 3.20105523 6.18870678 2.22265625 10.13671875 C1.83980469 11.30847656 1.45695312 12.48023438 1.0625 13.6875 C0.68222656 14.86699219 0.30195312 16.04648438 -0.08984375 17.26171875 C-0.39019531 18.16535156 -0.69054687 19.06898438 -1 20 C-1.99 20 -2.98 20 -4 20 C-3.42978625 13.04339229 -1.98697306 6.68572695 0 0 Z " fill="#2A5273" transform="translate(91,147)"/>
<path d="M0 0 C0.91007812 -0.01224609 1.82015625 -0.02449219 2.7578125 -0.03710938 C3.62664062 -0.03904297 4.49546875 -0.04097656 5.390625 -0.04296875 C6.17985352 -0.04707764 6.96908203 -0.05118652 7.78222656 -0.05541992 C9.75 0.1875 9.75 0.1875 11.75 2.1875 C11.17556152 2.20731934 10.60112305 2.22713867 10.00927734 2.24755859 C7.38076167 2.34342024 4.75297509 2.45284874 2.125 2.5625 C0.76955078 2.60890625 0.76955078 2.60890625 -0.61328125 2.65625 C-5.54936083 2.87242867 -9.57738356 3.46157861 -14.25 5.1875 C-15.57 5.1875 -16.89 5.1875 -18.25 5.1875 C-17.625 3.25 -17.625 3.25 -16.25 1.1875 C-10.92503688 -0.15650028 -5.45738933 0.00393184 0 0 Z " fill="#F4F9F5" transform="translate(104.25,37.8125)"/>
<path d="M0 0 C1.32 0.33 2.64 0.66 4 1 C3.01 1.495 3.01 1.495 2 2 C1.62356731 4.326769 1.2994949 6.66208247 1 9 C0.39385905 11.66873133 -0.33025979 14.30091776 -1.0625 16.9375 C-1.24876953 17.62134766 -1.43503906 18.30519531 -1.62695312 19.00976562 C-2.08089057 20.67420293 -2.53990916 22.33725312 -3 24 C-3.66 24 -4.32 24 -5 24 C-3.77409993 15.86579246 -2.1142355 7.94952546 0 0 Z " fill="#E7FAFD" transform="translate(91,138)"/>
<path d="M0 0 C0.33 0 0.66 0 1 0 C1 4.95 1 9.9 1 15 C0.67 15 0.34 15 0 15 C0 13.35 0 11.7 0 10 C-0.66 9.67 -1.32 9.34 -2 9 C-2 8.34 -2 7.68 -2 7 C-3.32 6.67 -4.64 6.34 -6 6 C-6.33 9.63 -6.66 13.26 -7 17 C-7.33 17 -7.66 17 -8 17 C-8.02694851 15.04174127 -8.04637218 13.08337774 -8.0625 11.125 C-8.07410156 10.03445312 -8.08570313 8.94390625 -8.09765625 7.8203125 C-8 5 -8 5 -7 3 C-5 2.66666667 -3 2.33333333 -1 2 C-0.67 1.34 -0.34 0.68 0 0 Z " fill="#EEFEFE" transform="translate(167,150)"/>
<path d="M0 0 C0.66 0.33 1.32 0.66 2 1 C2 2.65 2 4.3 2 6 C2.99 6 3.98 6 5 6 C6.4783226 8.95664519 6.06032783 11.74229737 6 15 C3.36 15 0.72 15 -2 15 C-1.01 14.67 -0.02 14.34 1 14 C0.83628906 13.44828125 0.67257813 12.8965625 0.50390625 12.328125 C-0.05760414 9.73385993 -0.09739008 7.40164589 -0.0625 4.75 C-0.05347656 3.85796875 -0.04445312 2.9659375 -0.03515625 2.046875 C-0.02355469 1.37140625 -0.01195312 0.6959375 0 0 Z " fill="#1B2D4F" transform="translate(137,66)"/>
<path d="M0 0 C4.62 0 9.24 0 14 0 C13 3 13 3 10.875 4.25 C7.30033417 5.18252152 4.59483517 4.70486964 1 4 C0.67 2.68 0.34 1.36 0 0 Z " fill="#DFF9DF" transform="translate(63,159)"/>
<path d="M0 0 C0.99 0 1.98 0 3 0 C3 5.94 3 11.88 3 18 C2.01 18 1.02 18 0 18 C0 12.06 0 6.12 0 0 Z " fill="#1E4364" transform="translate(169,149)"/>
<path d="M0 0 C0.33 0 0.66 0 1 0 C1.19551338 1.60320974 1.38111983 3.20762986 1.5625 4.8125 C1.66691406 5.70582031 1.77132812 6.59914063 1.87890625 7.51953125 C2 10 2 10 1 13 C1.66 13 2.32 13 3 13 C2.95875 13.763125 2.9175 14.52625 2.875 15.3125 C2.77919176 18.22718416 2.77919176 18.22718416 5 21 C5 21.66 5 22.32 5 23 C2 22 2 22 0.3125 18.75 C-1.67792898 13.0288193 -1.45659498 6.97963809 -1 1 C-0.67 0.67 -0.34 0.34 0 0 Z " fill="#EBFCF2" transform="translate(63,77)"/>
<path d="M0 0 C1 2 1 2 0.8125 5.375 C0.64339949 9.05710884 0.64339949 9.05710884 3 11.4375 C3.66 11.953125 4.32 12.46875 5 13 C4.67 13.66 4.34 14.32 4 15 C1.625 15.1875 1.625 15.1875 -1 15 C-3.29633824 11.55549263 -3.54016485 9.06187717 -4 5 C-3.34 5 -2.68 5 -2 5 C-1.34 3.35 -0.68 1.7 0 0 Z " fill="#E3F5FB" transform="translate(120,153)"/>
<path d="M0 0 C4.81340411 6.06514727 4.13230127 12.56172883 4 20 C1.46686943 17.79727776 0.47158638 16.33021492 0 13 C-0.06790675 10.75092848 -0.08499984 8.49998395 -0.0625 6.25 C-0.05347656 5.07953125 -0.04445312 3.9090625 -0.03515625 2.703125 C-0.02355469 1.81109375 -0.01195312 0.9190625 0 0 Z " fill="#4D8D47" transform="translate(57,75)"/>
<path d="M0 0 C1.32 0 2.64 0 4 0 C4.10815225 1.76949095 4.18566083 3.54087487 4.25 5.3125 C4.29640625 6.29863281 4.3428125 7.28476563 4.390625 8.30078125 C4 11 4 11 0 14 C0 9.38 0 4.76 0 0 Z " fill="#699465" transform="translate(27,149)"/>
<path d="M0 0 C1.42892578 0.83144531 1.42892578 0.83144531 2.88671875 1.6796875 C4.15354557 2.41163189 5.42047827 3.14339305 6.6875 3.875 C7.31333984 4.23980469 7.93917969 4.60460937 8.58398438 4.98046875 C11.98194942 6.93741197 15.30067619 8.65607739 19 10 C16 12 16 12 14 12 C14 11.34 14 10.68 14 10 C13.443125 10.268125 12.88625 10.53625 12.3125 10.8125 C11.549375 10.874375 10.78625 10.93625 10 11 C7.5625 8.75 7.5625 8.75 5 6 C4.071875 5.46375 3.14375 4.9275 2.1875 4.375 C1.465625 3.92125 0.74375 3.4675 0 3 C0 2.01 0 1.02 0 0 Z " fill="#DEF9DE" transform="translate(72,115)"/>
<path d="M0 0 C0.66 0 1.32 0 2 0 C3.14077657 3.42232972 3.09815117 6.08673217 3.0625 9.6875 C3.05347656 10.86699219 3.04445312 12.04648438 3.03515625 13.26171875 C3.02355469 14.16535156 3.01195312 15.06898438 3 16 C2.01 16 1.02 16 0 16 C0 10.72 0 5.44 0 0 Z " fill="#19466C" transform="translate(144,151)"/>
<path d="M0 0 C-0.33 5.61 -0.66 11.22 -1 17 C-1.33 17 -1.66 17 -2 17 C-2.33 15.35 -2.66 13.7 -3 12 C-3.33 12 -3.66 12 -4 12 C-4.33 8.37 -4.66 4.74 -5 1 C-3 0 -3 0 0 0 Z " fill="#5D9956" transform="translate(62,68)"/>
<path d="M0 0 C1.65 1.32 3.3 2.64 5 4 C3.53112033 8.65145228 3.53112033 8.65145228 1 10.3125 C-1 11 -1 11 -3 11 C-2.625 9.0625 -2.625 9.0625 -2 7 C-1.34 6.67 -0.68 6.34 0 6 C-0.66 4.68 -1.32 3.36 -2 2 C-1.34 2 -0.68 2 0 2 C0 1.34 0 0.68 0 0 Z " fill="#E5F3F8" transform="translate(178,152)"/>
<path d="M0 0 C3.3 0 6.6 0 10 0 C9.01 0.66 8.02 1.32 7 2 C6.7497843 5.08365871 6.7497843 5.08365871 7 8 C4.625 7.75 4.625 7.75 2 7 C0.2058242 4.43689172 0 3.16880694 0 0 Z " fill="#1F3150" transform="translate(66,89)"/>
<path d="M0 0 C0.99 0.33 1.98 0.66 3 1 C2.34 1 1.68 1 1 1 C1 2.32 1 3.64 1 5 C1.66 5 2.32 5 3 5 C3 8.96 3 12.92 3 17 C2.01 17 1.02 17 0 17 C0 11.39 0 5.78 0 0 Z " fill="#1B425E" transform="translate(155,150)"/>
<path d="M0 0 C0.79921875 0.01804688 1.5984375 0.03609375 2.421875 0.0546875 C3.02515625 0.07789063 3.6284375 0.10109375 4.25 0.125 C4.25 0.455 4.25 0.785 4.25 1.125 C3.198125 1.351875 2.14625 1.57875 1.0625 1.8125 C-2.9097906 2.91860531 -5.04599637 5.01129885 -7.75 8.125 C-8.74 7.795 -9.73 7.465 -10.75 7.125 C-9.27961672 2.4687863 -9.27961672 2.4687863 -6.96875 0.96875 C-4.4784107 0.02171956 -2.65311901 -0.07803291 0 0 Z " fill="#ECFBE8" transform="translate(15.75,142.875)"/>
<path d="M0 0 C2.25956374 2.25956374 3.34444269 4.41459644 4.8125 7.25 C7.17414164 11.66574763 9.61909584 15.32078076 13 19 C6.97186193 17.27767484 4.22649141 13.07234755 1.1875 7.9375 C0.00461606 5.01141868 -0.27484451 3.11490441 0 0 Z " fill="#E0FADC" transform="translate(59,96)"/>
<path d="M0 0 C0.33 0.99 0.66 1.98 1 3 C0.67 3.66 0.34 4.32 0 5 C-0.15270643 6.41394844 -0.27367453 7.83144348 -0.375 9.25 C-0.78146714 13.37464197 -1.87423608 16.39544378 -4 20 C-4.33 20 -4.66 20 -5 20 C-5.73226358 12.38445882 -3.19164467 6.83923859 0 0 Z " fill="#2D3C59" transform="translate(70,58)"/>
<path d="M0 0 C-0.639375 0.495 -1.27875 0.99 -1.9375 1.5 C-6.79035738 5.46151623 -11.56845819 9.56845819 -16 14 C-16 12.68 -16 11.36 -16 10 C-15.34 10 -14.68 10 -14 10 C-14 9.34 -14 8.68 -14 8 C-13.34 8 -12.68 8 -12 8 C-11.67 7.01 -11.34 6.02 -11 5 C-10.34 5 -9.68 5 -9 5 C-8.7525 4.38125 -8.505 3.7625 -8.25 3.125 C-6.05756043 -0.60214727 -4.06146667 -1.35382222 0 0 Z " fill="#E0F7DD" transform="translate(82,37)"/>
<path d="M0 0 C-0.50603992 2.16874252 -0.99983813 3.99967627 -2 6 C-3.11375 5.95875 -4.2275 5.9175 -5.375 5.875 C-9.04366025 5.58878141 -9.04366025 5.58878141 -11 8 C-11.99 7.67 -12.98 7.34 -14 7 C-12.56542672 6.0165504 -11.12722594 5.03839079 -9.6875 4.0625 C-8.88699219 3.51722656 -8.08648437 2.97195312 -7.26171875 2.41015625 C-4.82325391 0.88980079 -2.90418447 0 0 0 Z " fill="#293B5B" transform="translate(92,42)"/>
<path d="M0 0 C2.64 0 5.28 0 8 0 C8.33 0.66 8.66 1.32 9 2 C11.11015954 3.12706706 11.11015954 3.12706706 13.5625 4.125 C14.38878906 4.47820312 15.21507813 4.83140625 16.06640625 5.1953125 C16.70449219 5.46085937 17.34257813 5.72640625 18 6 C13.95784338 7.64680455 11.22181397 6.24159458 7.3125 4.6875 C5.57419922 4.01267578 5.57419922 4.01267578 3.80078125 3.32421875 C1 2 1 2 0 0 Z " fill="#28476D" transform="translate(82,112)"/>
<path d="M0 0 C2 3 2 3 1.625 5.1875 C1.41875 5.785625 1.2125 6.38375 1 7 C1.99 6.01 2.98 5.02 4 4 C3.01 7.3 2.02 10.6 1 14 C0.67 13.34 0.34 12.68 0 12 C-1.98 12.99 -1.98 12.99 -4 14 C-3.52188823 12.22888156 -3.0424722 10.45811517 -2.5625 8.6875 C-2.29566406 7.70136719 -2.02882813 6.71523437 -1.75390625 5.69921875 C-1.21920575 3.78482474 -0.62855462 1.88566385 0 0 Z " fill="#CFE2EF" transform="translate(111,74)"/>
<path d="M0 0 C1.32 0 2.64 0 4 0 C5.81502739 3.73682109 6.33059914 6.00820257 5 10 C4.01 10.495 4.01 10.495 3 11 C2.49384702 9.73160474 1.99530901 8.46016898 1.5 7.1875 C1.2215625 6.47980469 0.943125 5.77210937 0.65625 5.04296875 C0 3 0 3 0 0 Z " fill="#E7F4FA" transform="translate(123,69)"/>
<path d="M0 0 C0.66 0.33 1.32 0.66 2 1 C1.8125 2.8125 1.8125 2.8125 1 5 C-1.25 6.8125 -1.25 6.8125 -4 8 C-6.8125 7.6875 -6.8125 7.6875 -9 7 C-3.51752022 1.21293801 -3.51752022 1.21293801 0 0 Z " fill="#DEF0E3" transform="translate(85,40)"/>
<path d="M0 0 C0.80824219 0.19464844 1.61648437 0.38929687 2.44921875 0.58984375 C3.06410156 0.74582031 3.67898437 0.90179688 4.3125 1.0625 C3.9825 2.3825 3.6525 3.7025 3.3125 5.0625 C1.66403231 4.61373384 0.01876545 4.15319512 -1.625 3.6875 C-2.54152344 3.43226562 -3.45804687 3.17703125 -4.40234375 2.9140625 C-6.6875 2.0625 -6.6875 2.0625 -7.6875 0.0625 C-4.39053895 -1.03648702 -3.28255097 -0.80874444 0 0 Z " fill="#568F55" transform="translate(119.6875,34.9375)"/>
<path d="M0 0 C0.99 0.495 0.99 0.495 2 1 C2 1.66 2 2.32 2 3 C7.61 3.66 13.22 4.32 19 5 C16.51997407 7.48002593 15.67167487 7.29694693 12.25 7.3125 C7.82236057 7.21638626 4.68344013 6.64452112 1 4 C0.125 1.8125 0.125 1.8125 0 0 Z " fill="#E8F9E6" transform="translate(4,163)"/>
<path d="M0 0 C0 0.66 0 1.32 0 2 C-3.63423209 4.32590854 -6.77088331 4.16265833 -11 4 C-11 3.01 -11 2.02 -11 1 C-3.57142857 -1.42857143 -3.57142857 -1.42857143 0 0 Z " fill="#638E5E" transform="translate(77,163)"/>
<path d="M0 0 C3.375 4.5 3.375 4.5 4 8 C3.01 8.495 3.01 8.495 2 9 C2 8.01 2 7.02 2 6 C1.34 6 0.68 6 0 6 C-0.33 8.97 -0.66 11.94 -1 15 C-1.99 15.33 -2.98 15.66 -4 16 C-2.68 10.72 -1.36 5.44 0 0 Z " fill="#C8E5F3" transform="translate(94,150)"/>
<path d="M0 0 C0.99 0.33 1.98 0.66 3 1 C2.67386719 1.47308594 2.34773438 1.94617187 2.01171875 2.43359375 C-1.28545186 7.42311741 -3.36458649 12.25610865 -5 18 C-5.33 18 -5.66 18 -6 18 C-6.4147967 12.60764288 -5.25669675 7.8755794 -3 3 C-1.39453125 1.23046875 -1.39453125 1.23046875 0 0 Z " fill="#DCF7D9" transform="translate(63,51)"/>
<path d="M0 0 C-1 3 -1 3 -3 4 C-5.3329866 4.04022391 -7.66706666 4.04320247 -10 4 C-10.33 3.01 -10.66 2.02 -11 1 C-3.375 -1.125 -3.375 -1.125 0 0 Z " fill="#284662" transform="translate(137,163)"/>
<path d="M0 0 C0.66 0 1.32 0 2 0 C0.33846988 5.85659906 -1.47041916 11.4590134 -4 17 C-6.1385485 14.8614515 -6.42655063 13.86724686 -7 11 C-6.06414062 10.64808594 -6.06414062 10.64808594 -5.109375 10.2890625 C-2.39744059 8.63176925 -2.11024003 7.3858401 -1.25 4.375 C-1.00765625 3.55773437 -0.7653125 2.74046875 -0.515625 1.8984375 C-0.34546875 1.27195313 -0.1753125 0.64546875 0 0 Z " fill="#D1E7F3" transform="translate(107,142)"/>
<path d="M0 0 C0.99 0.33 1.98 0.66 3 1 C3 3.64 3 6.28 3 9 C2.01 9.33 1.02 9.66 0 10 C-1.49106457 7.01787087 -1.11941467 4.28390342 -1 1 C-0.67 0.67 -0.34 0.34 0 0 Z " fill="#4D954A" transform="translate(1,148)"/>
<path d="M0 0 C0.66 0 1.32 0 2 0 C1.125 7.75 1.125 7.75 0 10 C-0.99 9.67 -1.98 9.34 -3 9 C-2.25 2.25 -2.25 2.25 0 0 Z " fill="#F0F9FD" transform="translate(109,86)"/>
<path d="M0 0 C0.33 0 0.66 0 1 0 C1.92017937 8.77578475 1.92017937 8.77578475 -0.3359375 11.77734375 C-2 13.125 -2 13.125 -5 15 C-4.54705135 13.24859857 -4.08741252 11.49892656 -3.625 9.75 C-3.36976562 8.77546875 -3.11453125 7.8009375 -2.8515625 6.796875 C-2.10401491 4.34162697 -1.22876183 2.24382595 0 0 Z " fill="#1E5076" transform="translate(117,72)"/>
<path d="M0 0 C1.27230469 0.00902344 2.54460937 0.01804688 3.85546875 0.02734375 C5.31919922 0.04474609 5.31919922 0.04474609 6.8125 0.0625 C3.33033717 2.11387315 0.03974343 2.63068592 -3.9375 3.1875 C-5.10796875 3.35507812 -6.2784375 3.52265625 -7.484375 3.6953125 C-8.37640625 3.81648438 -9.2684375 3.93765625 -10.1875 4.0625 C-10.1875 3.0725 -10.1875 2.0825 -10.1875 1.0625 C-6.62704823 -0.12431726 -3.74941663 -0.03439832 0 0 Z " fill="#2D445E" transform="translate(103.1875,39.9375)"/>
<path d="M0 0 C0.12375 0.804375 0.2475 1.60875 0.375 2.4375 C0.58125 3.283125 0.7875 4.12875 1 5 C1.66 5.33 2.32 5.66 3 6 C2.01 6.66 1.02 7.32 0 8 C-1.5 6.625 -1.5 6.625 -3 5 C-3 4.34 -3 3.68 -3 3 C-4.65 3 -6.3 3 -8 3 C-5.53387212 -0.1151089 -3.89156016 -0.31553191 0 0 Z " fill="#DDF0F7" transform="translate(185,146)"/>
<path d="M0 0 C1.05960938 0.00676758 1.05960938 0.00676758 2.140625 0.01367188 C3.88545275 0.02546125 5.630237 0.04339676 7.375 0.0625 C7.375 0.3925 7.375 0.7225 7.375 1.0625 C4.29882812 1.35546875 4.29882812 1.35546875 1.22265625 1.6484375 C0.61292969 1.78507812 0.00320312 1.92171875 -0.625 2.0625 C-0.955 2.7225 -1.285 3.3825 -1.625 4.0625 C-3.9681213 3.80688677 -6.30343403 3.46979228 -8.625 3.0625 C-8.955 2.4025 -9.285 1.7425 -9.625 1.0625 C-6.55966836 -0.47016582 -3.35745728 -0.04026471 0 0 Z " fill="#DBF0EA" transform="translate(101.625,118.9375)"/>
<path d="M0 0 C3.53790403 3.69172595 3.59115883 7.09390595 4 12 C3.67 11.34 3.34 10.68 3 10 C2.01 10 1.02 10 0 10 C-1.125 6.6875 -1.125 6.6875 -2 3 C-1.34 2.01 -0.68 1.02 0 0 Z " fill="#313F5E" transform="translate(139,62)"/>
<path d="M0 0 C0.33 0 0.66 0 1 0 C1.06058594 0.9178125 1.12117188 1.835625 1.18359375 2.78125 C1.62311242 9.218508 2.10530999 15.60935705 3 22 C2.01 21.67 1.02 21.34 0 21 C0 14.07 0 7.14 0 0 Z " fill="#CFEAC9" transform="translate(56,74)"/>
<path d="M0 0 C0.33 0 0.66 0 1 0 C1 1.65 1 3.3 1 5 C1.61875 5.103125 2.2375 5.20625 2.875 5.3125 C5 6 5 6 7 9 C7 9.99 7 10.98 7 12 C4.12768348 10.71240983 1.80774366 9.62122831 0 7 C-0.1875 3.3125 -0.1875 3.3125 0 0 Z " fill="#365E7B" transform="translate(120,155)"/>
<path d="M0 0 C0.66 0 1.32 0 2 0 C2 0.66 2 1.32 2 2 C4.31 2 6.62 2 9 2 C9 2.66 9 3.32 9 4 C6.69 4 4.38 4 2 4 C2 4.66 2 5.32 2 6 C1.01 6 0.02 6 -1 6 C-1.042721 4.33388095 -1.04063832 2.66617115 -1 1 C-0.67 0.67 -0.34 0.34 0 0 Z " fill="#13446D" transform="translate(122,154)"/>
<path d="M0 0 C0.928125 0.20625 1.85625 0.4125 2.8125 0.625 C3.1425 1.615 3.4725 2.605 3.8125 3.625 C0.5125 3.625 -2.7875 3.625 -6.1875 3.625 C-6.1875 2.965 -6.1875 2.305 -6.1875 1.625 C-3.1875 -0.375 -3.1875 -0.375 0 0 Z " fill="#C1E5F6" transform="translate(130.1875,152.375)"/>
<path d="M0 0 C1.32 0 2.64 0 4 0 C5.4783226 2.95664519 5.06032783 5.74229737 5 9 C4.34 9 3.68 9 3 9 C3 8.01 3 7.02 3 6 C2.34 7.32 1.68 8.64 1 10 C-0.60725635 6.78548731 -0.05748185 3.56387464 0 0 Z " fill="#16437C" transform="translate(117,70)"/>
<path d="M0 0 C2.97 0.99 5.94 1.98 9 3 C9.33 2.34 9.66 1.68 10 1 C10 1.99 10 2.98 10 4 C5.02936879 4.91297308 0.97063121 4.91297308 -4 4 C-2.68 3.34 -1.36 2.68 0 2 C0 1.34 0 0.68 0 0 Z " fill="#D2E4D2" transform="translate(114,37)"/>
<path d="M0 0 C0.33 0 0.66 0 1 0 C1.05386629 2.12472576 1.09273071 4.24983652 1.125 6.375 C1.14820313 7.55835938 1.17140625 8.74171875 1.1953125 9.9609375 C1 13 1 13 -1 15 C-3.625 14.625 -3.625 14.625 -6 14 C-4.6875 12.5 -4.6875 12.5 -3 11 C-2.01 11 -1.02 11 0 11 C0 7.37 0 3.74 0 0 Z " fill="#CDF1CA" transform="translate(38,149)"/>
<path d="M0 0 C0.66 0 1.32 0 2 0 C2.66 2.97 3.32 5.94 4 9 C3.34 9 2.68 9 2 9 C2 8.01 2 7.02 2 6 C1.54625 6.495 1.0925 6.99 0.625 7.5 C-1 9 -1 9 -3 9 C-2.01 6.03 -1.02 3.06 0 0 Z " fill="#CEE9F4" transform="translate(109,151)"/>
<path d="M0 0 C0.33 0.99 0.66 1.98 1 3 C-1.97 3 -4.94 3 -8 3 C-8 2.01 -8 1.02 -8 0 C-5.13822943 -1.43088528 -3.06624227 -0.59991697 0 0 Z " fill="#D0F4CC" transform="translate(72,153)"/>
<path d="M0 0 C1.65 0.99 3.3 1.98 5 3 C4.67 7.62 4.34 12.24 4 17 C3.67 17 3.34 17 3 17 C3 12.71 3 8.42 3 4 C1.68 4 0.36 4 -1 4 C-0.67 2.68 -0.34 1.36 0 0 Z " fill="#E6FCE3" transform="translate(28,145)"/>
<path d="M0 0 C3.44725363 2.66378689 4.1815435 5.83331235 5 10 C4.01 11.485 4.01 11.485 3 13 C2.34 11.02 1.68 9.04 1 7 C0.34 7 -0.32 7 -1 7 C-0.67 4.69 -0.34 2.38 0 0 Z " fill="#2B486B" transform="translate(119,64)"/>
<path d="M0 0 C2.0625 0.4375 2.0625 0.4375 4 1 C4 1.99 4 2.98 4 4 C2.68 4 1.36 4 0 4 C0 7.63 0 11.26 0 15 C-0.33 15 -0.66 15 -1 15 C-1.02685412 12.68756208 -1.04632841 10.3750373 -1.0625 8.0625 C-1.07410156 6.77472656 -1.08570313 5.48695313 -1.09765625 4.16015625 C-1 1 -1 1 0 0 Z " fill="#EDFDEB" transform="translate(38,145)"/>
<path d="M0 0 C2.97 0.99 5.94 1.98 9 3 C5.12468923 3.96882769 2.14885657 4.04517415 -1.78125 3.9375 C-4.00210533 4.00005931 -5.87297365 4.3812287 -8 5 C-7.34 3.68 -6.68 2.36 -6 1 C-3.03 1.495 -3.03 1.495 0 2 C0 1.34 0 0.68 0 0 Z " fill="#DCF5DB" transform="translate(14,136)"/>
<path d="M0 0 C3.63 0 7.26 0 11 0 C7.81928996 1.59035502 5.12342347 2.64848268 1.75 3.625 C0.41195312 4.01558594 0.41195312 4.01558594 -0.953125 4.4140625 C-1.62859375 4.60742188 -2.3040625 4.80078125 -3 5 C-3 4.34 -3 3.68 -3 3 C-2.34 3 -1.68 3 -1 3 C-0.67 2.01 -0.34 1.02 0 0 Z " fill="#EAFAE2" transform="translate(85,32)"/>
<path d="M0 0 C0.33 0 0.66 0 1 0 C1.13277344 0.77085937 1.26554687 1.54171875 1.40234375 2.3359375 C1.57894531 3.33882812 1.75554688 4.34171875 1.9375 5.375 C2.19853516 6.87160156 2.19853516 6.87160156 2.46484375 8.3984375 C2.87712062 10.96909656 2.87712062 10.96909656 4 13 C2.68 14.32 1.36 15.64 0 17 C-0.66 16.67 -1.32 16.34 -2 16 C-1.67 15.67 -1.34 15.34 -1 15 C-0.76346477 12.47403741 -0.57826308 9.96892793 -0.4375 7.4375 C-0.39431641 6.72658203 -0.35113281 6.01566406 -0.30664062 5.28320312 C-0.20028223 3.52238088 -0.09961154 1.7612168 0 0 Z " fill="#CBE6CB" transform="translate(42,149)"/>
<path d="M0 0 C1.65 0 3.3 0 5 0 C5.33 1.32 5.66 2.64 6 4 C4.35 3.67 2.7 3.34 1 3 C0.67 6.63 0.34 10.26 0 14 C-0.33 14 -0.66 14 -1 14 C-1.02694851 12.04174127 -1.04637218 10.08337774 -1.0625 8.125 C-1.07410156 7.03445312 -1.08570313 5.94390625 -1.09765625 4.8203125 C-1 2 -1 2 0 0 Z " fill="#E4F6FB" transform="translate(160,153)"/>
<path d="M0 0 C0.99 0 1.98 0 3 0 C3 3.3 3 6.6 3 10 C2.01 10.495 2.01 10.495 1 11 C-0.17571451 7.32589215 -0.07366746 3.83070817 0 0 Z " fill="#F3FEF5" transform="translate(43,150)"/>
<path d="M0 0 C0.66 0.33 1.32 0.66 2 1 C2 5.95 2 10.9 2 16 C1.67 16 1.34 16 1 16 C0.7834375 14.63875 0.7834375 14.63875 0.5625 13.25 C0.10440943 10.18058227 0.10440943 10.18058227 -0.625 8 C-1.15211371 5.18872687 -0.56791744 2.77648527 0 0 Z " fill="#D1DBE3" transform="translate(63,68)"/>
<path d="M0 0 C2.3125 -0.3125 2.3125 -0.3125 5 0 C6.8125 2.5 6.8125 2.5 8 5 C6.25 5.75 6.25 5.75 4 6 C1.75 4.1875 1.75 4.1875 0 2 C0 1.34 0 0.68 0 0 Z " fill="#3C6080" transform="translate(177,149)"/>
<path d="M0 0 C0.5 2 0.5 2 1 4 C1.20625 4.721875 1.4125 5.44375 1.625 6.1875 C1.74875 6.785625 1.8725 7.38375 2 8 C1 9 1 9 -1.5625 9.0625 C-2.366875 9.041875 -3.17125 9.02125 -4 9 C-3.34 7.02 -2.68 5.04 -2 3 C-1.34 3 -0.68 3 0 3 C0 2.01 0 1.02 0 0 Z " fill="#18365A" transform="translate(135,94)"/>
<path d="M0 0 C0.66 0.33 1.32 0.66 2 1 C2 2.98 2 4.96 2 7 C2.99 7 3.98 7 5 7 C5 7.99 5 8.98 5 10 C4.34 10 3.68 10 3 10 C2.67 10.66 2.34 11.32 2 12 C1.01 8.37 0.02 4.74 -1 1 C-0.67 0.67 -0.34 0.34 0 0 Z " fill="#2A4B7A" transform="translate(95,65)"/>
<path d="M0 0 C1.62490954 -0.02698189 3.24994633 -0.04638757 4.875 -0.0625 C5.77992187 -0.07410156 6.68484375 -0.08570313 7.6171875 -0.09765625 C10 0 10 0 12 1 C12 1.66 12 2.32 12 3 C3.96428571 3.40178571 3.96428571 3.40178571 0 0 Z " fill="#488E48" transform="translate(96,33)"/>
<path d="M0 0 C3.3 0.66 6.6 1.32 10 2 C10 2.33 10 2.66 10 3 C8.741875 3.28875 7.48375 3.5775 6.1875 3.875 C3.1460601 4.57303539 1.69330122 5.20446585 -1 7 C-0.67 4.69 -0.34 2.38 0 0 Z " fill="#DBEFF9" transform="translate(122,146)"/>
<path d="M0 0 C0.33 0 0.66 0 1 0 C1 1.65 1 3.3 1 5 C1.66 5.33 2.32 5.66 3 6 C2.67 6.99 2.34 7.98 2 9 C0.35 9.33 -1.3 9.66 -3 10 C-2.01 6.7 -1.02 3.4 0 0 Z " fill="#D5E1ED" transform="translate(87,62)"/>
<path d="M0 0 C-0.375 1.9375 -0.375 1.9375 -1 4 C-4.21451269 5.60725635 -7.43612536 5.05748185 -11 5 C-10.4225 4.731875 -9.845 4.46375 -9.25 4.1875 C-6.94603902 3.05815166 -6.94603902 3.05815166 -4.9375 1.375 C-3 0 -3 0 0 0 Z " fill="#61955E" transform="translate(23,163)"/>
<path d="M0 0 C1.65 0.99 3.3 1.98 5 3 C4.1875 5.4375 4.1875 5.4375 3 8 C2.01 8.33 1.02 8.66 0 9 C0 6.03 0 3.06 0 0 Z " fill="#F5FAEF" transform="translate(52,158)"/>
<path d="M0 0 C0.99 0.33 1.98 0.66 3 1 C3 2.32 3 3.64 3 5 C-1.29 4.67 -5.58 4.34 -10 4 C-10 3.67 -10 3.34 -10 3 C-6.7 3 -3.4 3 0 3 C0 2.01 0 1.02 0 0 Z " fill="#4A8949" transform="translate(74,153)"/>
<path d="M0 0 C0.28875 0.61875 0.5775 1.2375 0.875 1.875 C1.93720042 4.13325765 1.93720042 4.13325765 4 6 C4.70211894 7.65204456 5.36971413 9.31923769 6 11 C6.33 11.66 6.66 12.32 7 13 C3.16031141 11.5435664 1.68993538 9.71785783 0 6 C-0.1875 2.6875 -0.1875 2.6875 0 0 Z " fill="#D6F5D5" transform="translate(4,150)"/>
<path d="M0 0 C0.99 0.33 1.98 0.66 3 1 C3 2.98 3 4.96 3 7 C2.01 7 1.02 7 0 7 C-0.38133299 5.0085944 -0.71325582 3.00720923 -1 1 C-0.67 0.67 -0.34 0.34 0 0 Z " fill="#F3FAFC" transform="translate(116,151)"/>
<path d="M0 0 C0.66 0.66 1.32 1.32 2 2 C1.63318342 4.93453261 1.13562754 5.86437246 -1 8 C-1.99 7.01 -2.98 6.02 -4 5 C-2.68 3.35 -1.36 1.7 0 0 Z " fill="#609461" transform="translate(5,142)"/>
<path d="M0 0 C1.65 0 3.3 0 5 0 C5 1.65 5 3.3 5 5 C3.35 5 1.7 5 0 5 C0 3.35 0 1.7 0 0 Z " fill="#2E4F70" transform="translate(168,141)"/>
<path d="M0 0 C0.639375 0.804375 1.27875 1.60875 1.9375 2.4375 C5.17112801 6.45503783 6.81594715 6.34021146 12 7 C12 7.33 12 7.66 12 8 C10.37581255 8.08090971 8.75048255 8.13914995 7.125 8.1875 C5.76761719 8.23970703 5.76761719 8.23970703 4.3828125 8.29296875 C3.20332031 8.14794922 3.20332031 8.14794922 2 8 C-0.1519437 4.77208445 -0.20086443 3.71599191 0 0 Z " fill="#D7F3D2" transform="translate(59,160)"/>
<path d="M0 0 C2.0625 0.4375 2.0625 0.4375 4 1 C4 2.65 4 4.3 4 6 C2.68 6 1.36 6 0 6 C-0.38218767 4.34385343 -0.71395102 2.67542976 -1 1 C-0.67 0.67 -0.34 0.34 0 0 Z " fill="#EEFAFD" transform="translate(139,152)"/>
<path d="M0 0 C-0.66 1.65 -1.32 3.3 -2 5 C-2.33 3.68 -2.66 2.36 -3 1 C-4.98 1.66 -6.96 2.32 -9 3 C-9 2.34 -9 1.68 -9 1 C-9.66 0.67 -10.32 0.34 -11 0 C-6.94952424 -1.35015859 -4.2079832 -0.62084998 0 0 Z " fill="#D7F0F6" transform="translate(168,148)"/>
<path d="M0 0 C0.66 0 1.32 0 2 0 C2.66 1.65 3.32 3.3 4 5 C2.35 5 0.7 5 -1 5 C-1.33 6.32 -1.66 7.64 -2 9 C-2.25 3.375 -2.25 3.375 0 0 Z " fill="#DFF1F8" transform="translate(169,136)"/>
<path d="M0 0 C1.65 0 3.3 0 5 0 C6.25664978 2.90600261 7 4.79604584 7 8 C3.75700849 5.61042731 1.49097658 3.7952131 0 0 Z " fill="#D6F3DE" transform="translate(71,107)"/>
<path d="M0 0 C0.66 0.33 1.32 0.66 2 1 C2.625 4.0625 2.625 4.0625 3 7 C1.35 7.33 -0.3 7.66 -2 8 C-1.34 5.36 -0.68 2.72 0 0 Z " fill="#3A5470" transform="translate(89,68)"/>
<path d="M0 0 C2.16874252 0.50603992 3.99967627 0.99983813 6 2 C5.67 3.32 5.34 4.64 5 6 C3.68 5.67 2.36 5.34 1 5 C0.67 3.35 0.34 1.7 0 0 Z " fill="#0E466E" transform="translate(98,156)"/>
<path d="M0 0 C4.54805635 -0.17835515 7.8794254 0.00214565 12 2 C9 4 9 4 7 4 C7 3.34 7 2.68 7 2 C6.401875 2.226875 5.80375 2.45375 5.1875 2.6875 C4.465625 2.790625 3.74375 2.89375 3 3 C1.25 1.5625 1.25 1.5625 0 0 Z " fill="#EEFAEC" transform="translate(79,123)"/>
<path d="M0 0 C1.32 0 2.64 0 4 0 C4 2 4 4 4 6 C2.68 6.33 1.36 6.66 0 7 C0 4.69 0 2.38 0 0 Z " fill="#F6FEF8" transform="translate(102,97)"/>
<path d="M0 0 C2.18975773 3.28463659 2.99806563 6.20696275 4 10 C2.35 9.67 0.7 9.34 -1 9 C-0.67 6.03 -0.34 3.06 0 0 Z " fill="#234C71" transform="translate(124,75)"/>
<path d="M0 0 C-0.33 2.31 -0.66 4.62 -1 7 C-2.32 7.33 -3.64 7.66 -5 8 C-4.6875 5.125 -4.6875 5.125 -4 2 C-1 0 -1 0 0 0 Z " fill="#F2F9FD" transform="translate(119,62)"/>
<path d="M0 0 C1.17571451 3.67410785 1.07366746 7.16929183 1 11 C0.34 11 -0.32 11 -1 11 C-2.1875 7.75 -2.1875 7.75 -3 4 C-1.625 1.5625 -1.625 1.5625 0 0 Z " fill="#26446C" transform="translate(127,58)"/>
<path d="M0 0 C-0.66 1.32 -1.32 2.64 -2 4 C-4.97 3.67 -7.94 3.34 -11 3 C-11 2.67 -11 2.34 -11 2 C-9.5422647 1.664061 -8.08378894 1.33133376 -6.625 1 C-5.40683594 0.7215625 -5.40683594 0.7215625 -4.1640625 0.4375 C-2 0 -2 0 0 0 Z " fill="#EEFDEB" transform="translate(75,166)"/>
<path d="M0 0 C2.97 0 5.94 0 9 0 C8.67 1.32 8.34 2.64 8 4 C7.01 4.33 6.02 4.66 5 5 C4.34 4.01 3.68 3.02 3 2 C2.01 1.34 1.02 0.68 0 0 Z " fill="#D5E9F2" transform="translate(132,149)"/>
<path d="M0 0 C2.76223278 2.76223278 2.57856291 5.20706617 3 9 C2.01 9.495 2.01 9.495 1 10 C1 8.68 1 7.36 1 6 C0.34 6 -0.32 6 -1 6 C-0.67 4.02 -0.34 2.04 0 0 Z " fill="#345875" transform="translate(110,139)"/>
<path d="M0 0 C0.66 1.32 1.32 2.64 2 4 C0.68 5.65 -0.64 7.3 -2 9 C-2.66 8.67 -3.32 8.34 -4 8 C-2.25 2.25 -2.25 2.25 0 0 Z " fill="#62965C" transform="translate(73,43)"/>
<path d="M0 0 C3.3 0 6.6 0 10 0 C8.02 0.99 8.02 0.99 6 2 C5.67 2.33 5.34 2.66 5 3 C3.33382885 3.04063832 1.66611905 3.042721 0 3 C0 2.01 0 1.02 0 0 Z " fill="#4B8948" transform="translate(11,164)"/>
<path d="M0 0 C1.9375 0.75 1.9375 0.75 4 2 C4.75 4.125 4.75 4.125 5 6 C3.125 5.75 3.125 5.75 1 5 C-0.25 2.9375 -0.25 2.9375 -1 1 C-0.67 0.67 -0.34 0.34 0 0 Z " fill="#074779" transform="translate(183,154)"/>
<path d="M0 0 C0.66 0 1.32 0 2 0 C2.6875 3.25 2.6875 3.25 3 7 C2.01 8.32 1.02 9.64 0 11 C0 7.37 0 3.74 0 0 Z " fill="#06406D" transform="translate(144,151)"/>
<path d="M0 0 C1.20628008 2.33214148 2.1654738 4.49642139 3 7 C2.01 8.485 2.01 8.485 1 10 C-1.56687367 6.1496895 -0.83288724 4.41430237 0 0 Z " fill="#385B82" transform="translate(91,147)"/>
<path d="M0 0 C1.98 0.495 1.98 0.495 4 1 C3.01 1.495 3.01 1.495 2 2 C1.59270772 4.32156597 1.25561323 6.6568787 1 9 C-0.61949011 6.42786866 -1.04408751 5.32330841 -0.625 2.25 C-0.41875 1.5075 -0.2125 0.765 0 0 Z " fill="#DCEAF2" transform="translate(91,138)"/>
<path d="M0 0 C3.3 0.99 6.6 1.98 10 3 C9.34 3.66 8.68 4.32 8 5 C4.55834679 4.64700993 2.93127462 3.95418308 0 2 C0 1.34 0 0.68 0 0 Z " fill="#E6EAF0" transform="translate(86,115)"/>
<path d="M0 0 C2.69504819 2.69504819 5 6.08360477 5 10 C3.0625 9.5 3.0625 9.5 1 8 C0.31209578 5.30341548 0.18053536 2.7982981 0 0 Z " fill="#DCF3D5" transform="translate(59,96)"/>
<path d="M0 0 C0.33 0 0.66 0 1 0 C1.33 3.3 1.66 6.6 2 10 C1.01 9.67 0.02 9.34 -1 9 C-1.09765625 2.84765625 -1.09765625 2.84765625 -1 1 C-0.67 0.67 -0.34 0.34 0 0 Z " fill="#FDFAFC" transform="translate(63,77)"/>
<path d="M0 0 C0.99 0 1.98 0 3 0 C3.33 1.65 3.66 3.3 4 5 C3.38125 5.12375 2.7625 5.2475 2.125 5.375 C-0.19120832 5.87197356 -0.19120832 5.87197356 -2 8 C-1.125 2.25 -1.125 2.25 0 0 Z " fill="#034A80" transform="translate(118,80)"/>
<path d="M0 0 C0.66 0 1.32 0 2 0 C1.67 1.98 1.34 3.96 1 6 C-0.32 6.33 -1.64 6.66 -3 7 C-2.25 2.25 -2.25 2.25 0 0 Z " fill="#518D4E" transform="translate(69,47)"/>
<path d="M0 0 C0.99 0 1.98 0 3 0 C3 2.31 3 4.62 3 7 C2.01 7 1.02 7 0 7 C0 4.69 0 2.38 0 0 Z " fill="#224664" transform="translate(155,160)"/>
<path d="M0 0 C1 2 1 2 0.0625 5.125 C-0.288125 6.07375 -0.63875 7.0225 -1 8 C-1.66 8 -2.32 8 -3 8 C-3.33 6.02 -3.66 4.04 -4 2 C-2.68 1.34 -1.36 0.68 0 0 Z " fill="#CEECF7" transform="translate(106,102)"/>
<path d="M0 0 C2.31 0 4.62 0 7 0 C6.01 0.495 6.01 0.495 5 1 C4.34786708 3.02463255 4.34786708 3.02463255 4 5 C3.01 4.67 2.02 4.34 1 4 C0.3125 1.9375 0.3125 1.9375 0 0 Z " fill="#0F396C" transform="translate(128,96)"/>
<path d="M0 0 C0.144375 0.61875 0.28875 1.2375 0.4375 1.875 C0.93152225 4.03258322 0.93152225 4.03258322 2 6 C-0.31 6 -2.62 6 -5 6 C-5 5.34 -5 4.68 -5 4 C-4.01 3.67 -3.02 3.34 -2 3 C-1.34 2.01 -0.68 1.02 0 0 Z " fill="#1C3B6B" transform="translate(77,76)"/>
<path d="M0 0 C0.66 0.33 1.32 0.66 2 1 C1.34 3.31 0.68 5.62 0 8 C-3 4.25 -3 4.25 -3 2 C-2.01 2 -1.02 2 0 2 C0 1.34 0 0.68 0 0 Z " fill="#2E5777" transform="translate(103,160)"/>
<path d="M0 0 C0.78375 0.04125 1.5675 0.0825 2.375 0.125 C2.045 1.115 1.715 2.105 1.375 3.125 C-0.5625 3.9375 -0.5625 3.9375 -2.625 4.125 C-3.285 3.465 -3.945 2.805 -4.625 2.125 C-2.625 0.125 -2.625 0.125 0 0 Z " fill="#6D916C" transform="translate(55.625,148.875)"/>
<path d="M0 0 C1.9375 0.6875 1.9375 0.6875 4 2 C4.75 4.625 4.75 4.625 5 7 C4.01 6.67 3.02 6.34 2 6 C0.8125 2.9375 0.8125 2.9375 0 0 Z " fill="#E9F2F7" transform="translate(97,146)"/>
<path d="M0 0 C0.66 0 1.32 0 2 0 C2 1.32 2 2.64 2 4 C1.34 4 0.68 4 0 4 C-0.33 4.99 -0.66 5.98 -1 7 C-1.66 6.67 -2.32 6.34 -3 6 C-1.125 1.125 -1.125 1.125 0 0 Z " fill="#DDF1D9" transform="translate(8,144)"/>
<path d="M0 0 C0.99 0.33 1.98 0.66 3 1 C3 2.98 3 4.96 3 7 C2.34 7 1.68 7 1 7 C-0.0625 4.625 -0.0625 4.625 -1 2 C-0.67 1.34 -0.34 0.68 0 0 Z " fill="#1F5888" transform="translate(108,144)"/>
<path d="M0 0 C0.99 0.66 1.98 1.32 3 2 C1.07423885 4.43929746 -0.80090595 6.80090595 -3 9 C-3.36923077 3.46153846 -3.36923077 3.46153846 -1.5 1.125 C-1.005 0.75375 -0.51 0.3825 0 0 Z " fill="#E0F8DA" transform="translate(3,140)"/>
<path d="M0 0 C0.33 0.99 0.66 1.98 1 3 C0.67 3.66 0.34 4.32 0 5 C-1.65 4.67 -3.3 4.34 -5 4 C-4.67 3.01 -4.34 2.02 -4 1 C-1.9375 0.3125 -1.9375 0.3125 0 0 Z " fill="#293E65" transform="translate(135,76)"/>
<path d="M0 0 C1.98 0.99 1.98 0.99 4 2 C3.34 3.65 2.68 5.3 2 7 C1.34 7 0.68 7 0 7 C0 4.69 0 2.38 0 0 Z " fill="#21466F" transform="translate(107,74)"/>
<path d="M0 0 C2.31 0.33 4.62 0.66 7 1 C7 1.99 7 2.98 7 4 C5.35 4 3.7 4 2 4 C1.34 2.68 0.68 1.36 0 0 Z " fill="#5E9960" transform="translate(92,33)"/>
<path d="M0 0 C1.32 0.99 2.64 1.98 4 3 C3.67 3.66 3.34 4.32 3 5 C1.35 5 -0.3 5 -2 5 C-2.33 4.34 -2.66 3.68 -3 3 C-2.01 2.01 -1.02 1.02 0 0 Z " fill="#DBEFF7" transform="translate(121,163)"/>
<path d="M0 0 C1.98 0.99 1.98 0.99 4 2 C3.67 2.66 3.34 3.32 3 4 C2.9603287 5.66619446 2.95615553 7.33391013 3 9 C0.90250005 6.64031256 0.03094296 5.45383006 -0.1875 2.25 C-0.125625 1.5075 -0.06375 0.765 0 0 Z " fill="#E6F7E1" transform="translate(76,149)"/>
<path d="M0 0 C0.99 0 1.98 0 3 0 C3 1.98 3 3.96 3 6 C2.01 6 1.02 6 0 6 C0 4.02 0 2.04 0 0 Z " fill="#164272" transform="translate(144,144)"/>
<path d="M0 0 C0.99 1.32 1.98 2.64 3 4 C1.625 5.5 1.625 5.5 0 7 C-0.66 7 -1.32 7 -2 7 C-1.125 2.25 -1.125 2.25 0 0 Z " fill="#274669" transform="translate(128,105)"/>
<path d="M0 0 C0.94875 0.350625 1.8975 0.70125 2.875 1.0625 C2.545 2.0525 2.215 3.0425 1.875 4.0625 C-1.04017292 2.98848892 -2.90310176 2.28439824 -5.125 0.0625 C-3.125 -0.9375 -3.125 -0.9375 0 0 Z " fill="#D6E4EA" transform="translate(125.125,42.9375)"/>
<path d="M0 0 C1.32 0 2.64 0 4 0 C3.67 1.32 3.34 2.64 3 4 C1.35 4.33 -0.3 4.66 -2 5 C-1.34 3.35 -0.68 1.7 0 0 Z " fill="#4E924C" transform="translate(78,39)"/>
<path d="M0 0 C1.74627478 2.61941217 2.38722388 4.03824877 3 7 C2.34 7 1.68 7 1 7 C0.67 7.66 0.34 8.32 0 9 C-1.10844919 5.67465243 -0.84454356 3.37817425 0 0 Z " fill="#DBEDF5" transform="translate(98,158)"/>
<path d="M0 0 C2.15377564 2.62198774 3.40072174 4.64404172 4 8 C3.01 8.495 3.01 8.495 2 9 C2 8.01 2 7.02 2 6 C1.34 6 0.68 6 0 6 C0 4.02 0 2.04 0 0 Z " fill="#D1EEF6" transform="translate(94,150)"/>
<path d="M0 0 C1.32 0 2.64 0 4 0 C4 1.32 4 2.64 4 4 C2.68 4 1.36 4 0 4 C-0.33 3.01 -0.66 2.02 -1 1 C-0.67 0.67 -0.34 0.34 0 0 Z " fill="#3C5C79" transform="translate(161,149)"/>
<path d="M0 0 C0 0.33 0 0.66 0 1 C-2.31 1.66 -4.62 2.32 -7 3 C-7 2.34 -7 1.68 -7 1 C-8.32 0.67 -9.64 0.34 -11 0 C-7.18243176 -1.37432457 -3.92744671 -0.67975039 0 0 Z " fill="#DFF9DF" transform="translate(58,148)"/>
<path d="M0 0 C0.66 0 1.32 0 2 0 C2.66 1.98 3.32 3.96 4 6 C2.35 6 0.7 6 -1 6 C-0.67 4.02 -0.34 2.04 0 0 Z " fill="#395F7E" transform="translate(93,140)"/>
<path d="M0 0 C0.33 1.32 0.66 2.64 1 4 C-1.9375 3.625 -1.9375 3.625 -5 3 C-5.33 2.34 -5.66 1.68 -6 1 C-3 0 -3 0 0 0 Z " fill="#4C8B46" transform="translate(118,34)"/>
</svg>
