<?xml version="1.0" encoding="UTF-8"?>
<svg version="1.1" xmlns="http://www.w3.org/2000/svg" width="180" height="180">
<path d="M0 0 C59.4 0 118.8 0 180 0 C180 59.4 180 118.8 180 180 C120.6 180 61.2 180 0 180 C0 120.6 0 61.2 0 0 Z " fill="#4A3682" transform="translate(0,0)"/>
<path d="M0 0 C12.54 0 25.08 0 38 0 C38 13.53 38 27.06 38 41 C49.88 41 61.76 41 74 41 C74 27.47 74 13.94 74 0 C86.54 0 99.08 0 112 0 C112 39.6 112 79.2 112 120 C99.13 120 86.26 120 73 120 C73 104.82 73 89.64 73 74 C61.45 74 49.9 74 38 74 C38 88.85 38 103.7 38 119 C25.46 119 12.92 119 0 119 C0 79.73 0 40.46 0 0 Z " fill="#FDFCFC" transform="translate(35,18)"/>
<path d="M0 0 C59.4 0 118.8 0 180 0 C180 15.84 180 31.68 180 48 C179.01 48.33 178.02 48.66 177 49 C176.01 49.99 176.01 49.99 175 51 C173.37401496 51.23712282 171.74629131 51.46586495 170.11328125 51.6484375 C166.92576321 52.17870852 163.95295619 53.28714657 160.91796875 54.37890625 C158 55 158 55 148 55 C148 82.39 148 109.78 148 138 C147.67 138 147.34 138 147 138 C147 98.4 147 58.8 147 18 C134.46 18 121.92 18 109 18 C109 31.53 109 45.06 109 59 C97.12 59 85.24 59 73 59 C73 45.47 73 31.94 73 18 C60.46 18 47.92 18 35 18 C35 57.27 35 96.54 35 137 C47.54 137 60.08 137 73 137 C73 137.33 73 137.66 73 138 C60.13 138 47.26 138 34 138 C34 110.94 34 83.88 34 56 C30.7 55.67 27.4 55.34 24 55 C24 54.34 24 53.68 24 53 C21.36 53.66 18.72 54.32 16 55 C16 54.34 16 53.68 16 53 C15.41992188 52.81824219 14.83984375 52.63648438 14.2421875 52.44921875 C2.75182482 48.75182482 2.75182482 48.75182482 0 46 C0 30.82 0 15.64 0 0 Z " fill="#7560A6" transform="translate(0,0)"/>
<path d="M0 0 C11.22 0 22.44 0 34 0 C33.67 0.66 33.34 1.32 33 2 C32.91036153 3.48100811 32.88242075 4.96599424 32.88647461 6.44970703 C32.88655014 7.37051056 32.88662567 8.29131409 32.88670349 9.24002075 C32.89186478 10.23589203 32.89702606 11.23176331 32.90234375 12.2578125 C32.9037587 13.27600067 32.90517365 14.29418884 32.90663147 15.3432312 C32.912241 18.60385035 32.92479512 21.86440151 32.9375 25.125 C32.94251377 27.33203026 32.94707689 29.53906159 32.95117188 31.74609375 C32.96221352 37.16408581 32.97896095 42.58203805 33 48 C31.515 47.505 31.515 47.505 30 47 C30 47.66 30 48.32 30 49 C29.34 49 28.68 49 28 49 C28 49.66 28 50.32 28 51 C23.545 51.495 23.545 51.495 19 52 C19 59.26 19 66.52 19 74 C17.02 74 15.04 74 13 74 C10.36091208 70.87476431 9 69.13534147 9 65 C8.34 65 7.68 65 7 65 C7.05220703 65.92232422 7.05220703 65.92232422 7.10546875 66.86328125 C7.13253906 67.67152344 7.15960938 68.47976562 7.1875 69.3125 C7.23970703 70.51326172 7.23970703 70.51326172 7.29296875 71.73828125 C7 74 7 74 5.73046875 75.8125 C3.09396851 77.62174621 0.76846718 76.78592508 -2.25 76.32421875 C-6.55892826 75.8162059 -10.84776169 75.98057233 -15.1796875 76.0625 C-18 76 -18 76 -21 75 C-21 67.41 -21 59.82 -21 52 C-25.95 51.67 -30.9 51.34 -36 51 C-36 50.67 -36 50.34 -36 50 C-31.05 49.505 -31.05 49.505 -26 49 C-26 48.67 -26 48.34 -26 48 C-17.09 47.67 -8.18 47.34 1 47 C1 48.65 1 50.3 1 52 C4.04134491 50.33075929 4.04134491 50.33075929 5 48 C4.01 47.67 3.02 47.34 2 47 C0 45 0 45 -0.24050903 43.05111694 C-0.2338472 41.85864853 -0.2338472 41.85864853 -0.22705078 40.64208984 C-0.22689972 39.74130707 -0.22674866 38.84052429 -0.22659302 37.91244507 C-0.21627045 36.93844757 -0.20594788 35.96445007 -0.1953125 34.9609375 C-0.1924826 33.96494537 -0.18965271 32.96895325 -0.18673706 31.94277954 C-0.1755184 28.75339882 -0.15041081 25.56429622 -0.125 22.375 C-0.11497238 20.21614988 -0.10584615 18.05729537 -0.09765625 15.8984375 C-0.07727289 10.59876429 -0.0381273 5.29969443 0 0 Z " fill="#4B3882" transform="translate(74,92)"/>
<path d="M0 0 C0.33 0 0.66 0 1 0 C0.99333817 1.06044525 0.98667633 2.1208905 0.97981262 3.21347046 C0.91908845 13.19036089 0.87406928 23.16721399 0.84456348 33.14424706 C0.82888448 38.27397721 0.80760557 43.4035586 0.77368164 48.53320312 C0.74116771 53.48040867 0.72316384 58.42747082 0.71536827 63.37477493 C0.7098104 65.26550175 0.69895773 67.15622042 0.68280983 69.04688644 C0.66114121 71.68817061 0.6580286 74.3288566 0.65942383 76.97021484 C0.648638 77.75783707 0.63785217 78.54545929 0.6267395 79.35694885 C0.60504948 81.75291707 0.60504948 81.75291707 1 85 C1.99 85.66 2.98 86.32 4 87 C3.34 87 2.68 87 2 87 C2.20625 87.598125 2.4125 88.19625 2.625 88.8125 C3 91 3 91 1 94 C-0.4606285 91.35261084 -1 90.10551666 -1 87 C-9.415 87.99 -9.415 87.99 -18 89 C-18.33 93.95 -18.66 98.9 -19 104 C-22.3 104 -25.6 104 -29 104 C-29 103.34 -29 102.68 -29 102 C-26.36 102 -23.72 102 -21 102 C-21 100.02 -21 98.04 -21 96 C-23.64 96 -26.28 96 -29 96 C-29 95.34 -29 94.68 -29 94 C-26.03 94 -23.06 94 -20 94 C-20 92.02 -20 90.04 -20 88 C-31.22 88 -42.44 88 -54 88 C-54 93.28 -54 98.56 -54 104 C-53.34 104.33 -52.68 104.66 -52 105 C-51.59270772 107.32156597 -51.25561323 109.6568787 -51 112 C-51.99 111.67 -52.98 111.34 -54 111 C-54.680625 111.185625 -55.36125 111.37125 -56.0625 111.5625 C-56.701875 111.706875 -57.34125 111.85125 -58 112 C-58.66 111.34 -59.32 110.68 -60 110 C-58.35 110 -56.7 110 -55 110 C-55 102.74 -55 95.48 -55 88 C-56.65 88 -58.3 88 -60 88 C-60 87.67 -60 87.34 -60 87 C-55.38 87 -50.76 87 -46 87 C-46 86.34 -46 85.68 -46 85 C-45.34 85 -44.68 85 -44 85 C-44 84.34 -44 83.68 -44 83 C-43.34 83 -42.68 83 -42 83 C-42 67.82 -42 52.64 -42 37 C-41.34 37 -40.68 37 -40 37 C-40 51.85 -40 66.7 -40 82 C-26.8 82 -13.6 82 0 82 C0 54.94 0 27.88 0 0 Z " fill="#43327D" transform="translate(148,56)"/>
<path d="M0 0 C1.98 0 3.96 0 6 0 C6 7.26 6 14.52 6 22 C4.02 22 2.04 22 0 22 C-2.63908792 18.87476431 -4 17.13534147 -4 13 C-4.66 13 -5.32 13 -6 13 C-6 15.97 -6 18.94 -6 22 C-8.31 22 -10.62 22 -13 22 C-13 15.07 -13 8.14 -13 1 C-10.69 1 -8.38 1 -6 1 C-4.35 3.97 -2.7 6.94 -1 10 C-0.67 6.7 -0.34 3.4 0 0 Z " fill="#C8C3D7" transform="translate(87,144)"/>
<path d="M0 0 C2.31 0 4.62 0 7 0 C7.33 5.28 7.66 10.56 8 16 C8.99 16 9.98 16 11 16 C11.33 10.72 11.66 5.44 12 0 C14.31 0 16.62 0 19 0 C19 7.26 19 14.52 19 22 C5.62631579 22.49532164 5.62631579 22.49532164 2.609375 20.109375 C-0.43697134 16.11659097 -0.11691256 12.72190326 -0.0625 7.875 C-0.05798828 7.12089844 -0.05347656 6.36679688 -0.04882812 5.58984375 C-0.03703499 3.72652873 -0.01909942 1.86325445 0 0 Z " fill="#CEC8DC" transform="translate(54,144)"/>
<path d="M0 0 C1.98 0 3.96 0 6 0 C6 2.64 6 5.28 6 8 C7.65 8 9.3 8 11 8 C11 5.36 11 2.72 11 0 C13.31 0 15.62 0 18 0 C18 7.26 18 14.52 18 22 C15.69 22 13.38 22 11 22 C11 19.03 11 16.06 11 13 C9.35 13 7.7 13 6 13 C6 15.64 6 18.28 6 21 C4.02 21 2.04 21 0 21 C0 14.07 0 7.14 0 0 Z " fill="#D7D3E4" transform="translate(35,144)"/>
<path d="M0 0 C0.33 0 0.66 0 1 0 C1.00546844 0.83565239 1.00546844 0.83565239 1.01104736 1.68818665 C1.05281472 7.47964394 1.12211861 13.27030443 1.20751953 19.0612793 C1.23576861 21.22330766 1.25696346 23.38544005 1.27099609 25.54760742 C1.29237096 28.65337541 1.33899343 31.75788732 1.390625 34.86328125 C1.39185364 35.83211746 1.39308228 36.80095367 1.39434814 37.79914856 C1.41406677 38.6998558 1.4337854 39.60056305 1.45410156 40.52856445 C1.46298401 41.32132278 1.47186646 42.11408112 1.48101807 42.93086243 C2.18810409 45.74995526 3.64739524 46.41357734 6 48 C6.75 50.1875 6.75 50.1875 7 52 C5.35 52 3.7 52 2 52 C1.505 50.02 1.505 50.02 1 48 C0.34 48.66 -0.32 49.32 -1 50 C-3.61376953 50.31884766 -3.61376953 50.31884766 -6.8828125 50.4140625 C-8.04941406 50.45273438 -9.21601562 50.49140625 -10.41796875 50.53125 C-12.25294922 50.57765625 -12.25294922 50.57765625 -14.125 50.625 C-15.35605469 50.66367188 -16.58710937 50.70234375 -17.85546875 50.7421875 C-20.90349376 50.8366999 -23.95150862 50.92225494 -27 51 C-27 53.97 -27 56.94 -27 60 C-28.65 60 -30.3 60 -32 60 C-32 57.36 -32 54.72 -32 52 C-33.98 52 -35.96 52 -38 52 C-38 58.93 -38 65.86 -38 73 C-36.02 73 -34.04 73 -32 73 C-32 70.36 -32 67.72 -32 65 C-30.35 65 -28.7 65 -27 65 C-28.98 65.495 -28.98 65.495 -31 66 C-31 68.64 -31 71.28 -31 74 C-33.64 74 -36.28 74 -39 74 C-39.02505615 73.28344238 -39.0501123 72.56688477 -39.07592773 71.82861328 C-39.19169751 68.59388486 -39.31450969 65.35946159 -39.4375 62.125 C-39.47681641 60.99707031 -39.51613281 59.86914062 -39.55664062 58.70703125 C-39.59853516 57.63066406 -39.64042969 56.55429688 -39.68359375 55.4453125 C-39.72025146 54.45031738 -39.75690918 53.45532227 -39.79467773 52.43017578 C-39.84959532 49.99220499 -39.84959532 49.99220499 -41 48 C-36.57732754 45.79057504 -32.47377025 45.73884906 -27.63671875 45.8046875 C-26.58272888 45.80770874 -26.58272888 45.80770874 -25.50744629 45.81079102 C-22.90073043 45.82119819 -20.29410816 45.84912057 -17.6875 45.875 C-8.9321875 45.936875 -8.9321875 45.936875 0 46 C0 30.82 0 15.64 0 0 Z " fill="#52457C" transform="translate(73,92)"/>
<path d="M0 0 C2.248125 -0.04125 4.49625 -0.0825 6.8125 -0.125 C8.07707031 -0.14820313 9.34164062 -0.17140625 10.64453125 -0.1953125 C14 0 14 0 17 2 C17.31206719 5.5887727 16.89558232 8.54561104 16 12 C16.33 12.33 16.66 12.66 17 13 C17.04092937 15.33297433 17.04241723 17.66705225 17 20 C15.02 20 13.04 20 11 20 C10.67 18.02 10.34 16.04 10 14 C8.68 13.67 7.36 13.34 6 13 C6 15.31 6 17.62 6 20 C4.02 20 2.04 20 0 20 C0 13.4 0 6.8 0 0 Z " fill="#FCFAFB" transform="translate(130,145)"/>
<path d="M0 0 C4.95 0 9.9 0 15 0 C15 1.65 15 3.3 15 5 C12.03 5 9.06 5 6 5 C6 5.66 6 6.32 6 7 C8.64 7 11.28 7 14 7 C14 8.98 14 10.96 14 13 C11.36 13 8.72 13 6 13 C6 13.99 6 14.98 6 16 C8.97 16 11.94 16 15 16 C15 17.32 15 18.64 15 20 C10.05 20 5.1 20 0 20 C0 13.4 0 6.8 0 0 Z " fill="#ECE9F0" transform="translate(113,145)"/>
<path d="M0 0 C8.58 0 17.16 0 26 0 C26 0.33 26 0.66 26 1 C24.02 1 22.04 1 20 1 C20 6.28 20 11.56 20 17 C18.68 17.33 17.36 17.66 16 18 C15 17 15 17 14.90234375 13.40234375 C14.9090178 11.91403133 14.92097817 10.42573568 14.9375 8.9375 C14.94201172 8.17888672 14.94652344 7.42027344 14.95117188 6.63867188 C14.9629932 4.75908129 14.98092922 2.87953101 15 1 C12.69 1 10.38 1 8 1 C8.11418667 3.58422459 8.24092362 6.16679513 8.375 8.75 C8.4059375 9.47960937 8.436875 10.20921875 8.46875 10.9609375 C8.73832667 16.28910914 8.73832667 16.28910914 11 21 C15.54601728 23.27300864 22.08679597 22.68734156 27 23 C27 15.74 27 8.48 27 1 C27.33 1 27.66 1 28 1 C28 8.26 28 15.52 28 23 C29.98 23 31.96 23 34 23 C33.34 23.99 32.68 24.98 32 26 C30.783125 25.835 29.56625 25.67 28.3125 25.5 C23.13708389 24.90758353 18.02286706 24.96410653 12.8203125 25.0625 C10 25 10 25 7 24 C7 16.41 7 8.82 7 1 C4.69 1 2.38 1 0 1 C0 0.67 0 0.34 0 0 Z " fill="#392E5C" transform="translate(46,143)"/>
<path d="M0 0 C0.33 0 0.66 0 1 0 C1 27.72 1 55.44 1 84 C-11.87 84 -24.74 84 -38 84 C-38.495 84.99 -38.495 84.99 -39 86 C-39 85.34 -39 84.68 -39 84 C-39.66 84 -40.32 84 -41 84 C-41.82130142 81.12586454 -42.12230589 78.58400178 -42.11352539 75.59863281 C-42.11344986 74.7380426 -42.11337433 73.87745239 -42.11329651 72.99078369 C-42.10813522 72.07085632 -42.10297394 71.15092896 -42.09765625 70.203125 C-42.0962413 69.25435486 -42.09482635 68.30558472 -42.09336853 67.32806396 C-42.08777742 64.30201038 -42.07522652 61.27603117 -42.0625 58.25 C-42.05748385 56.19661565 -42.05292115 54.14323014 -42.04882812 52.08984375 C-42.03781089 47.05986724 -42.02055233 42.02994622 -42 37 C-41.34 37 -40.68 37 -40 37 C-40 51.85 -40 66.7 -40 82 C-26.8 82 -13.6 82 0 82 C0 54.94 0 27.88 0 0 Z " fill="#45386D" transform="translate(148,56)"/>
<path d="M0 0 C5.61 0 11.22 0 17 0 C17 1.65 17 3.3 17 5 C15.35 5 13.7 5 12 5 C12 9.95 12 14.9 12 20 C10.02 20 8.04 20 6 20 C6 15.05 6 10.1 6 5 C4.02 5 2.04 5 0 5 C0 3.35 0 1.7 0 0 Z " fill="#F8F5FA" transform="translate(94,145)"/>
<path d="M0 0 C1.98 0 3.96 0 6 0 C6 2.64 6 5.28 6 8 C7.65 8 9.3 8 11 8 C11 9.65 11 11.3 11 13 C9.35 13 7.7 13 6 13 C6 15.64 6 18.28 6 21 C4.02 21 2.04 21 0 21 C0 14.07 0 7.14 0 0 Z " fill="#FBF8FB" transform="translate(35,144)"/>
<path d="M0 0 C1 3 1 3 0 6 C0.66 6.33 1.32 6.66 2 7 C1.67 7.33 1.34 7.66 1 8 C0.91224395 10.14558827 0.89304781 12.29404421 0.90234375 14.44140625 C0.90556641 15.74658203 0.90878906 17.05175781 0.91210938 18.39648438 C0.92046599 19.7851569 0.92893095 21.17382877 0.9375 22.5625 C0.94251334 23.95507656 0.94707653 25.34765481 0.95117188 26.74023438 C0.96300566 30.1601987 0.9794912 33.58007844 1 37 C8.64153131 38.99855434 18.33520805 40.55462336 26.078125 38.4296875 C28 38 28 38 32 39 C32 27.12 32 15.24 32 3 C32.33 3 32.66 3 33 3 C33 15.54 33 28.08 33 41 C21.78 41 10.56 41 -1 41 C-1.02290685 35.32164603 -1.04283457 29.64345119 -1.05493164 23.96508789 C-1.05997256 22.03181415 -1.06680519 20.09854424 -1.07543945 18.1652832 C-1.08751565 15.39273128 -1.09323057 12.62022959 -1.09765625 9.84765625 C-1.10281754 8.97786636 -1.10797882 8.10807648 -1.11329651 7.21192932 C-1.11349185 5.14094186 -1.06208168 3.07005676 -1 1 C-0.67 0.67 -0.34 0.34 0 0 Z " fill="#66598C" transform="translate(75,17)"/>
<path d="M0 0 C1.98 0 3.96 0 6 0 C6 6.6 6 13.2 6 20 C2.37 20 -1.26 20 -5 20 C-5.66 18.68 -6.32 17.36 -7 16 C-4 15 -4 15 -1 15 C-0.67 10.05 -0.34 5.1 0 0 Z " fill="#F6F3F9" transform="translate(66,145)"/>
<path d="M0 0 C2.375 -0.125 2.375 -0.125 5 0 C7 2 7 2 7 5 C7.99 5 8.98 5 10 5 C12.32590854 8.63423209 12.16265833 11.77088331 12 16 C10.02 16 8.04 16 6 16 C5.67 14.02 5.34 12.04 5 10 C3.68 9.67 2.36 9.34 1 9 C1 11.31 1 13.62 1 16 C0.34 15.34 -0.32 14.68 -1 14 C-1.99 13.67 -2.98 13.34 -4 13 C-3.34 13 -2.68 13 -2 13 C-1.67 11.68 -1.34 10.36 -1 9 C-1.66 8.67 -2.32 8.34 -3 8 C-2.34 8 -1.68 8 -1 8 C-0.67 5.36 -0.34 2.72 0 0 Z " fill="#D5D1DA" transform="translate(135,149)"/>
<path d="M0 0 C1.98 0 3.96 0 6 0 C6.1079859 2.43868168 6.18726589 4.87259133 6.25 7.3125 C6.30027344 8.34793945 6.30027344 8.34793945 6.3515625 9.40429688 C6.45030795 14.51437378 6.45030795 14.51437378 4.20703125 16.93359375 C0.08863987 18.92354215 -3.66638597 19.44453801 -8 18 C-8 12.72 -8 7.44 -8 2 C-8.99 1.67 -9.98 1.34 -11 1 C-9.68 1 -8.36 1 -7 1 C-7 5.95 -7 10.9 -7 16 C-4.69 16 -2.38 16 0 16 C0 10.72 0 5.44 0 0 Z " fill="#41326D" transform="translate(106,150)"/>
<path d="M0 0 C1.98 0 3.96 0 6 0 C6.77842938 3.40562852 7.09978121 6.50765756 7 10 C6.34 10 5.68 10 5 10 C5 13.3 5 16.6 5 20 C3.35 20 1.7 20 0 20 C0 13.4 0 6.8 0 0 Z " fill="#FCFAFD" transform="translate(75,145)"/>
<path d="M0 0 C1.65 0 3.3 0 5 0 C5 6.6 5 13.2 5 20 C3.35 19.67 1.7 19.34 0 19 C0 12.73 0 6.46 0 0 Z " fill="#FCF9FB" transform="translate(87,145)"/>
<path d="M0 0 C11.55 0.33 23.1 0.66 35 1 C35 1.33 35 1.66 35 2 C31.37 2.33 27.74 2.66 24 3 C23.67 7.95 23.34 12.9 23 18 C19.7 18 16.4 18 13 18 C13 17.34 13 16.68 13 16 C15.64 16 18.28 16 21 16 C21 14.02 21 12.04 21 10 C18.36 10 15.72 10 13 10 C13 9.34 13 8.68 13 8 C15.97 8 18.94 8 22 8 C22 6.02 22 4.04 22 2 C14.74 2 7.48 2 0 2 C0 1.34 0 0.68 0 0 Z " fill="#392F5D" transform="translate(106,142)"/>
<path d="M0 0 C0.33 0 0.66 0 1 0 C1 7.26 1 14.52 1 22 C3.64 22 6.28 22 9 22 C9 19.36 9 16.72 9 14 C10.32 14 11.64 14 13 14 C13 16.64 13 19.28 13 22 C14.98 22 16.96 22 19 22 C19 22.66 19 23.32 19 24 C16.125 24.125 16.125 24.125 13 24 C12.34 23.34 11.68 22.68 11 22 C10.113125 22.53625 9.22625 23.0725 8.3125 23.625 C5 25 5 25 2.1875 24.375 C0 23 0 23 -1 20 C-1.01553817 18.44356451 -0.96798687 16.88599313 -0.87890625 15.33203125 C-0.83056641 14.43935547 -0.78222656 13.54667969 -0.73242188 12.62695312 C-0.67634766 11.69818359 -0.62027344 10.76941406 -0.5625 9.8125 C-0.51029297 8.87212891 -0.45808594 7.93175781 -0.40429688 6.96289062 C-0.27468082 4.64158499 -0.13971819 2.32071591 0 0 Z " fill="#382C64" transform="translate(33,144)"/>
<path d="M0 0 C1.98 0.495 1.98 0.495 4 1 C4 5.95 4 10.9 4 16 C2.68 16.33 1.36 16.66 0 17 C-1.75559942 15.24440058 -1.13221919 12.96417558 -1.13671875 10.62890625 C-1.13285156 9.92636719 -1.12898438 9.22382813 -1.125 8.5 C-1.12886719 7.79746094 -1.13273437 7.09492188 -1.13671875 6.37109375 C-1.12661378 1.12661378 -1.12661378 1.12661378 0 0 Z " fill="#413375" transform="translate(62,144)"/>
<path d="M0 0 C0.78503906 0.00515625 1.57007813 0.0103125 2.37890625 0.015625 C3.55259766 0.00789062 3.55259766 0.00789062 4.75 0 C6.94140625 0.265625 6.94140625 0.265625 9.94140625 2.265625 C10.12890625 5.390625 10.12890625 5.390625 9.94140625 8.265625 C8.29140625 8.595625 6.64140625 8.925625 4.94140625 9.265625 C4.28140625 7.945625 3.62140625 6.625625 2.94140625 5.265625 C0.30140625 5.265625 -2.33859375 5.265625 -5.05859375 5.265625 C-3.45185218 0.44540028 -3.45185218 0.44540028 0 0 Z " fill="#FAF8F8" transform="translate(137.05859375,144.734375)"/>
<path d="M0 0 C1.98 0 3.96 0 6 0 C6 4.95 6 9.9 6 15 C7.98 15 9.96 15 12 15 C12 15.33 12 15.66 12 16 C9.69 16 7.38 16 5 16 C5 11.05 5 6.1 5 1 C3.63467451 2.13701597 3.63467451 2.13701597 3.90234375 5.16015625 C3.91394531 6.44792969 3.92554687 7.73570312 3.9375 9.0625 C3.94652344 10.35285156 3.95554687 11.64320313 3.96484375 12.97265625 C3.97644531 13.97167969 3.98804687 14.97070312 4 16 C1.7522025 13.94766315 0.9977758 12.99332739 0 10 C-0.06802967 8.27204648 -0.08495645 6.54164635 -0.0625 4.8125 C-0.05347656 3.91144531 -0.04445313 3.01039063 -0.03515625 2.08203125 C-0.02355469 1.39496094 -0.01195313 0.70789063 0 0 Z " fill="#594B8C" transform="translate(94,150)"/>
<path d="M0 0 C0.66 0.66 1.32 1.32 2 2 C4.20250992 2.46006346 4.20250992 2.46006346 6.625 2.625 C7.44226563 2.69976562 8.25953125 2.77453125 9.1015625 2.8515625 C9.72804688 2.90054688 10.35453125 2.94953125 11 3 C11 4.32 11 5.64 11 7 C6.05 7 1.1 7 -4 7 C-4 5.35 -4 3.7 -4 2 C-2.68 1.34 -1.36 0.68 0 0 Z " fill="#FDF9FE" transform="translate(117,158)"/>
<path d="M0 0 C0.33 0.66 0.66 1.32 1 2 C-2.63 2 -6.26 2 -10 2 C-10 7.28 -10 12.56 -10 18 C-9.34 18.33 -8.68 18.66 -8 19 C-7.59270772 21.32156597 -7.25561323 23.6568787 -7 26 C-7.99 25.67 -8.98 25.34 -10 25 C-10.680625 25.185625 -11.36125 25.37125 -12.0625 25.5625 C-13.0215625 25.7790625 -13.0215625 25.7790625 -14 26 C-14.66 25.34 -15.32 24.68 -16 24 C-14.35 24 -12.7 24 -11 24 C-11 16.74 -11 9.48 -11 2 C-12.65 2 -14.3 2 -16 2 C-16 1.67 -16 1.34 -16 1 C-8.08 0.505 -8.08 0.505 0 0 Z " fill="#382D5F" transform="translate(104,142)"/>
<path d="M0 0 C12.54 0 25.08 0 38 0 C38 3.3 38 6.6 38 10 C37.67 10 37.34 10 37 10 C37 7.69 37 5.38 37 3 C34.04189524 1.52094762 31.0452845 1.87809097 27.8046875 1.90234375 C27.09724396 1.9037587 26.38980042 1.90517365 25.66091919 1.90663147 C23.39890331 1.912234 21.13698602 1.92478682 18.875 1.9375 C17.34244935 1.94251468 15.80989714 1.94707764 14.27734375 1.95117188 C10.51819112 1.96220423 6.75911228 1.97947048 3 2 C3 2.99 3 3.98 3 5 C2.01 5.33 1.02 5.66 0 6 C0 4.02 0 2.04 0 0 Z " fill="#F3EFFE" transform="translate(109,18)"/>
<path d="M0 0 C0.66 0 1.32 0 2 0 C2 0.99 2 1.98 2 3 C4.64 3 7.28 3 10 3 C8 5 8 5 5.50390625 5.16015625 C4.53324219 5.12792969 3.56257813 5.09570312 2.5625 5.0625 C-0.736716 4.96145876 -2.84389105 4.94796368 -6 6 C-6.56203125 5.85691406 -7.1240625 5.71382812 -7.703125 5.56640625 C-11.03418024 4.74497256 -14.34263542 4.89563257 -17.75 4.9375 C-18.44738281 4.94201172 -19.14476563 4.94652344 -19.86328125 4.95117188 C-21.57555803 4.9628998 -23.28779033 4.98083347 -25 5 C-25.33 4.34 -25.66 3.68 -26 3 C-17.42 3 -8.84 3 0 3 C0 2.01 0 1.02 0 0 Z " fill="#372965" transform="translate(138,163)"/>
<path d="M0 0 C0.99 3.96 1.98 7.92 3 12 C1.68 12.99 0.36 13.98 -1 15 C-2.60080151 10.99799622 -1.29279692 7.95443764 0 4 C-3.46712111 2.84429296 -6.5414956 2.67164707 -10.1875 2.4375 C-11.45980469 2.35371094 -12.73210937 2.26992187 -14.04296875 2.18359375 C-15.01878906 2.12300781 -15.99460938 2.06242188 -17 2 C-17 1.67 -17 1.34 -17 1 C-15.29201415 0.82980924 -13.58358904 0.66402455 -11.875 0.5 C-10.92367187 0.4071875 -9.97234375 0.314375 -8.9921875 0.21875 C-6.00188528 0.00013783 -2.99828261 0 0 0 Z " fill="#594D78" transform="translate(147,143)"/>
<path d="M0 0 C0.66 0 1.32 0 2 0 C2.33773437 0.63808594 2.67546875 1.27617187 3.0234375 1.93359375 C3.46945313 2.75988281 3.91546875 3.58617187 4.375 4.4375 C4.81585938 5.26121094 5.25671875 6.08492187 5.7109375 6.93359375 C6.83418559 9.13466578 6.83418559 9.13466578 9 10 C8.67 11.32 8.34 12.64 8 14 C7.67 13.34 7.34 12.68 7 12 C6.01 12 5.02 12 4 12 C3.01 13.485 3.01 13.485 2 15 C2 13.35 2 11.7 2 10 C1.01 9.67 0.02 9.34 -1 9 C-0.67 6.03 -0.34 3.06 0 0 Z " fill="#41366C" transform="translate(81,157)"/>
<path d="M0 0 C0.66 0 1.32 0 2 0 C3.00496852 3.01490557 3.10335303 5.04181692 3.0625 8.1875 C3.05347656 9.08855469 3.04445313 9.98960937 3.03515625 10.91796875 C3.02355469 11.60503906 3.01195312 12.29210937 3 13 C1.35 13 -0.3 13 -2 13 C-2.16682272 8.07872966 -2.24828052 4.49656104 0 0 Z " fill="#FCF9FE" transform="translate(49,152)"/>
<path d="M0 0 C0.33 0 0.66 0 1 0 C1 7.26 1 14.52 1 22 C2.98 22 4.96 22 7 22 C6.34 22.99 5.68 23.98 5 25 C-0.3503559 24.42978066 -5.67787852 23.79265639 -11 23 C-11 22.67 -11 22.34 -11 22 C-7.37 22 -3.74 22 0 22 C0 14.74 0 7.48 0 0 Z " fill="#332858" transform="translate(73,144)"/>
<path d="M0 0 C2.475 0.495 2.475 0.495 5 1 C5 2.98 5 4.96 5 7 C8.465 6.505 8.465 6.505 12 6 C12 6.66 12 7.32 12 8 C9.36 8 6.72 8 4 8 C4 7.01 4 6.02 4 5 C3.34 5 2.68 5 2 5 C2 5.99 2 6.98 2 8 C1.34 8 0.68 8 0 8 C0 5.36 0 2.72 0 0 Z " fill="#5E5481" transform="translate(136,158)"/>
<path d="M0 0 C0.66 0.33 1.32 0.66 2 1 C2 3.31 2 5.62 2 8 C0.02 8 -1.96 8 -4 8 C-4 6.02 -4 4.04 -4 2 C-2.125 0.9375 -2.125 0.9375 0 0 Z " fill="#F4EDFB" transform="translate(145,157)"/>
<path d="M0 0 C1.32 0.66 2.64 1.32 4 2 C4 3.98 4 5.96 4 8 C2.35 8.33 0.7 8.66 -1 9 C-2.0326802 6.21176345 -2.04509293 5.1322726 -1.0625 2.25 C-0.711875 1.5075 -0.36125 0.765 0 0 Z M0 2 C1 4 1 4 1 4 Z " fill="#EFE9F4" transform="translate(143,145)"/>
<path d="M0 0 C1.65 0 3.3 0 5 0 C5 2.97 5 5.94 5 9 C4.01 9.495 4.01 9.495 3 10 C2.67 8.35 2.34 6.7 2 5 C1.01 5.495 1.01 5.495 0 6 C0 4.02 0 2.04 0 0 Z " fill="#FCF8FE" transform="translate(55,145)"/>
<path d="M0 0 C0.99 0.33 1.98 0.66 3 1 C3 1.66 3 2.32 3 3 C2.67 3.33 2.34 3.66 2 4 C2.99 5.485 2.99 5.485 4 7 C3.34 7 2.68 7 2 7 C2 8.65 2 10.3 2 12 C1.67 10.68 1.34 9.36 1 8 C0.34 8 -0.32 8 -1 8 C-1.04241723 5.66705225 -1.04092937 3.33297433 -1 1 C-0.67 0.67 -0.34 0.34 0 0 Z " fill="#3D2E67" transform="translate(148,156)"/>
<path d="M0 0 C0.8353125 0.680625 0.8353125 0.680625 1.6875 1.375 C4.05313439 3.03733768 6.29015658 4.02144543 9 5 C9 5.33 9 5.66 9 6 C7.741875 6.020625 6.48375 6.04125 5.1875 6.0625 C4.47980469 6.07410156 3.77210937 6.08570313 3.04296875 6.09765625 C1 6 1 6 -2 5 C-2 4.01 -2 3.02 -2 2 C-1.34 2 -0.68 2 0 2 C0 1.34 0 0.68 0 0 Z " fill="#413469" transform="translate(55,162)"/>
<path d="M0 0 C1.98 0 3.96 0 6 0 C6 2.31 6 4.62 6 7 C5.67 6.01 5.34 5.02 5 4 C3.35 4.33 1.7 4.66 0 5 C0 3.35 0 1.7 0 0 Z " fill="#E2DDED" transform="translate(35,144)"/>
<path d="M0 0 C1.65 1.32 3.3 2.64 5 4 C4.67 5.32 4.34 6.64 4 8 C3.67 7.34 3.34 6.68 3 6 C2.01 6 1.02 6 0 6 C-0.66 6.99 -1.32 7.98 -2 9 C-1.125 1.125 -1.125 1.125 0 0 Z " fill="#423279" transform="translate(85,163)"/>
<path d="M0 0 C0.66 0.33 1.32 0.66 2 1 C2.40729228 3.32156597 2.74438677 5.6568787 3 8 C2.01 7.67 1.02 7.34 0 7 C-1.0209375 7.2784375 -1.0209375 7.2784375 -2.0625 7.5625 C-3.0215625 7.7790625 -3.0215625 7.7790625 -4 8 C-4.66 7.34 -5.32 6.68 -6 6 C-4.35 6 -2.7 6 -1 6 C-0.67 4.02 -0.34 2.04 0 0 Z " fill="#3B2D6E" transform="translate(94,160)"/>
<path d="M0 0 C1.98 0 3.96 0 6 0 C6.33 0.99 6.66 1.98 7 3 C5.35 3.33 3.7 3.66 2 4 C1.67 4.99 1.34 5.98 1 7 C0.67 4.69 0.34 2.38 0 0 Z " fill="#F4F0FA" transform="translate(75,145)"/>
<path d="M0 0 C1.65 0 3.3 0 5 0 C5 1.32 5 2.64 5 4 C3.02 4 1.04 4 -1 4 C-0.67 2.68 -0.34 1.36 0 0 Z " fill="#FBF8FE" transform="translate(121,153)"/>
<path d="M0 0 C1.485 0.99 1.485 0.99 3 2 C2.67 2.99 2.34 3.98 2 5 C2.66 5 3.32 5 4 5 C4 5.99 4 6.98 4 8 C2.68 7.67 1.36 7.34 0 7 C0 4.69 0 2.38 0 0 Z " fill="#4A3D6E" transform="translate(61,153)"/>
<path d="M0 0 C1.32 0 2.64 0 4 0 C4 2.31 4 4.62 4 7 C2 5.1875 2 5.1875 0 3 C0 2.01 0 1.02 0 0 Z " fill="#42376F" transform="translate(82,145)"/>
<path d="M0 0 C1 3 1 3 1 5 C2.98 5 4.96 5 7 5 C7 5.33 7 5.66 7 6 C0.47692308 6.36923077 0.47692308 6.36923077 -1.9375 4.5 C-2.4634375 3.7575 -2.4634375 3.7575 -3 3 C-2.01 2.01 -1.02 1.02 0 0 Z " fill="#625090" transform="translate(74,139)"/>
</svg>
