<?xml version="1.0" standalone="no"?>
<!DOCTYPE svg PUBLIC "-//W3C//DTD SVG 20010904//EN"
 "http://www.w3.org/TR/2001/REC-SVG-20010904/DTD/svg10.dtd">
<svg version="1.0" xmlns="http://www.w3.org/2000/svg"
 width="180.000000pt" height="180.000000pt" viewBox="0 0 180.000000 180.000000"
 preserveAspectRatio="xMidYMid meet">

<g transform="translate(0.000000,180.000000) scale(0.100000,-0.100000)"
fill="#000000" stroke="none">
<path d="M0 900 l0 -900 900 0 900 0 0 900 0 900 -900 0 -900 0 0 -900z m737
700 c0 -14 1 -105 2 -202 l1 -178 170 0 170 0 2 203 3 202 189 3 c104 1 193
-1 197 -5 5 -5 6 -277 2 -606 l-6 -597 -191 2 -191 3 -3 228 -2 227 -175 0
-175 0 0 -230 0 -230 -195 0 -195 0 0 605 0 604 198 -2 197 -2 2 -25z m-327
-1275 c0 -30 3 -35 24 -35 21 0 25 6 28 33 3 28 7 32 36 35 l32 3 0 -111 0
-111 -32 3 c-30 3 -33 6 -36 41 -3 32 -7 37 -28 37 -21 0 -24 -4 -24 -41 0
-39 -1 -40 -31 -37 l-31 3 1 98 c0 53 0 102 1 107 0 6 14 10 30 10 28 0 30 -3
30 -35z m200 -44 c0 -55 4 -81 13 -84 30 -10 37 5 37 85 l0 79 33 -3 32 -3 0
-105 0 -105 -55 -2 c-78 -3 -98 3 -115 37 -15 29 -22 160 -8 173 3 4 19 7 35
7 l28 0 0 -79z m222 29 c17 -27 32 -50 34 -50 1 0 2 21 1 48 -2 46 -1 47 31
50 l32 3 0 -111 0 -111 -32 3 c-28 3 -37 11 -60 53 l-27 50 -3 -50 c-3 -48 -4
-50 -33 -50 l-30 0 -3 94 c-1 52 -1 100 2 108 3 7 17 13 31 13 20 0 33 -11 57
-50z m284 18 c1 -24 -3 -28 -27 -28 l-29 0 0 -80 0 -80 -30 0 -29 0 -3 78 c-3
76 -3 77 -30 80 -24 3 -28 8 -28 33 l0 30 88 -3 87 -3 1 -27z m164 2 c0 -29
-2 -30 -45 -30 -25 0 -45 -4 -45 -10 0 -5 18 -10 41 -10 38 0 40 -1 37 -27 -3
-24 -8 -28 -40 -31 -54 -5 -47 -20 10 -24 43 -3 47 -5 47 -28 0 -24 -2 -25
-77 -28 l-78 -3 0 111 0 110 75 0 75 0 0 -30z m149 19 c36 -13 49 -48 32 -86
-8 -18 -9 -29 -1 -37 5 -5 10 -27 10 -48 0 -36 -2 -38 -30 -38 -27 0 -30 3
-30 30 0 19 -7 33 -19 40 -29 15 -31 13 -31 -30 0 -38 -2 -40 -30 -40 l-30 0
-2 88 c0 48 -2 94 -3 102 -1 8 0 18 2 23 6 11 96 8 132 -4z"/>
<path d="M1360 286 c0 -11 9 -16 26 -16 31 0 28 23 -4 28 -15 2 -22 -2 -22
-12z"/>
</g>
</svg>
