<?xml version="1.0" encoding="UTF-8"?>
<svg version="1.1" xmlns="http://www.w3.org/2000/svg" width="200" height="200">
<path d="M0 0 C66 0 132 0 200 0 C200 66 200 132 200 200 C134 200 68 200 0 200 C0 134 0 68 0 0 Z " fill="#FDFDFD" transform="translate(0,0)"/>
<path d="M0 0 C5.61 0 11.22 0 17 0 C15.46441188 3.07117624 14.43010884 4.8569473 12.25 7.3125 C11.7240625 7.91320313 11.198125 8.51390625 10.65625 9.1328125 C9.55208333 10.37760417 8.44791667 11.62239583 7.34375 12.8671875 C6.8178125 13.46789063 6.291875 14.06859375 5.75 14.6875 C5.03070313 15.49767578 5.03070313 15.49767578 4.296875 16.32421875 C0.63693357 21.05348042 0.49482391 25.20990486 1 31 C1.51361788 33.42640172 2.19849862 35.64558969 3 38 C3.66 38 4.32 38 5 38 C6.76953125 39.94140625 6.76953125 39.94140625 8.8125 42.5625 C9.52019531 43.46871094 10.22789062 44.37492187 10.95703125 45.30859375 C13.37547499 48.49465061 15.71583753 51.71651645 18 55 C3.24716744 56.35793118 3.24716744 56.35793118 -1.734375 53.34765625 C-3.85369837 51.01065044 -5.43823171 48.74015676 -7 46 C-7.50917969 45.11441406 -8.01835938 44.22882813 -8.54296875 43.31640625 C-12.75987113 35.36689561 -14.35773656 28.15737852 -12.38671875 19.21875 C-10.35903944 12.85880433 -7.35062807 8.54155347 -2.70703125 3.77734375 C-0.92552722 2.098574 -0.92552722 2.098574 0 0 Z " fill="#1537AB" transform="translate(123,50)"/>
<path d="M0 0 C4.62 0 9.24 0 14 0 C14.02463956 7.81453214 14.04283105 15.62904188 14.05493164 23.44360352 C14.05997383 26.10441481 14.06680736 28.76522332 14.07543945 31.42602539 C14.08751009 35.24105516 14.09322929 39.05604844 14.09765625 42.87109375 C14.10281754 44.06899033 14.10797882 45.2668869 14.11329651 46.50108337 C14.11337204 47.6021492 14.11344757 48.70321503 14.11352539 49.83764648 C14.115746 50.81249496 14.11796661 51.78734344 14.12025452 52.79173279 C14 55 14 55 13 56 C8.71 56 4.42 56 0 56 C0 37.52 0 19.04 0 0 Z " fill="#1235B1" transform="translate(148,64)"/>
<path d="M0 0 C4.29 0 8.58 0 13 0 C13 18.15 13 36.3 13 55 C8.71 55 4.42 55 0 55 C0 36.85 0 18.7 0 0 Z " fill="#1435AD" transform="translate(63,65)"/>
<path d="M0 0 C4.29 0 8.58 0 13 0 C13 18.15 13 36.3 13 55 C8.71 55 4.42 55 0 55 C0 36.85 0 18.7 0 0 Z " fill="#1D3AA4" transform="translate(39,37)"/>
<path d="M0 0 C4.29 0 8.58 0 13 0 C13 18.15 13 36.3 13 55 C8.71 55 4.42 55 0 55 C0 36.85 0 18.7 0 0 Z " fill="#1235B2" transform="translate(87,37)"/>
<path d="M0 0 C4.62 0 9.24 0 14 0 C14.02463956 7.81453214 14.04283105 15.62904188 14.05493164 23.44360352 C14.05997383 26.10441481 14.06680736 28.76522332 14.07543945 31.42602539 C14.08751009 35.24105516 14.09322929 39.05604844 14.09765625 42.87109375 C14.10281754 44.06899033 14.10797882 45.2668869 14.11329651 46.50108337 C14.11337204 47.6021492 14.11344757 48.70321503 14.11352539 49.83764648 C14.115746 50.81249496 14.11796661 51.78734344 14.12025452 52.79173279 C14 55 14 55 13 56 C8.71 56 4.42 56 0 56 C0 37.52 0 19.04 0 0 Z M1 1 C1 2.98 1 4.96 1 7 C1.66 7 2.32 7 3 7 C3 6.34 3 5.68 3 5 C3.66 5 4.32 5 5 5 C5 19.19 5 33.38 5 48 C4.01 48.495 4.01 48.495 3 49 C2.67 35.47 2.34 21.94 2 8 C1.67 8 1.34 8 1 8 C1 23.51 1 39.02 1 55 C4.96 55 8.92 55 13 55 C13 37.18 13 19.36 13 1 C9.04 1 5.08 1 1 1 Z " fill="#435DB9" transform="translate(148,64)"/>
<path d="M0 0 C0 5.61 0 11.22 0 17 C-11.01639344 17.60529634 -11.01639344 17.60529634 -15.25 15 C-17.68288481 10.82934033 -17.68424771 8.78973399 -17 4 C-12.64344703 -2.02322456 -6.79852744 -0.2719411 0 0 Z " fill="#252525" transform="translate(76,146)"/>
<path d="M0 0 C11.6556391 -0.12669173 11.6556391 -0.12669173 16 1 C16.33 0.67 16.66 0.34 17 0 C22.27573169 -0.45875928 22.27573169 -0.45875928 24.68359375 1.06640625 C26.70789836 4.03979136 26.28491652 6.64803329 26.1875 10.1875 C26.16042969 11.45980469 26.13335937 12.73210937 26.10546875 14.04296875 C26.07066406 15.01878906 26.03585938 15.99460938 26 17 C24.68 17 23.36 17 22 17 C21.67 13.04 21.34 9.08 21 5 C19.35 5.33 17.7 5.66 16 6 C15.67 9.3 15.34 12.6 15 16 C13.68 16 12.36 16 11 16 C10.67 12.7 10.34 9.4 10 6 C8.68 5.67 7.36 5.34 6 5 C4.33657163 6.66342837 4.63951903 8.7825709 4.4375 11.0625 C4.31181641 12.44115234 4.31181641 12.44115234 4.18359375 13.84765625 C4.12300781 14.55792969 4.06242188 15.26820313 4 16 C2.68 16 1.36 16 0 16 C0 10.72 0 5.44 0 0 Z " fill="#272727" transform="translate(135,146)"/>
<path d="M0 0 C4.29 0 8.58 0 13 0 C13 18.15 13 36.3 13 55 C8.71 55 4.42 55 0 55 C0 36.85 0 18.7 0 0 Z M1 4 C0.56247107 6.17659601 0.56247107 6.17659601 0.65942383 8.72509766 C0.65965042 9.70596344 0.65987701 10.68682922 0.66011047 11.69741821 C0.67559433 12.75891083 0.69107819 13.82040344 0.70703125 14.9140625 C0.71127609 15.99883881 0.71552094 17.08361511 0.71989441 18.20126343 C0.736727 21.67609167 0.77438811 25.15034618 0.8125 28.625 C0.82754089 30.97655414 0.84123033 33.32811735 0.85351562 35.6796875 C0.88664561 41.45334706 0.93845973 47.22657617 1 53 C3.97 53 6.94 53 10 53 C11.11548332 47.63487263 11.12858261 42.458154 11.09765625 37.0078125 C11.0962413 36.06187225 11.09482635 35.11593201 11.09336853 34.1413269 C11.08779484 31.13585171 11.0752472 28.13045247 11.0625 25.125 C11.0574816 23.08073025 11.05291929 21.03645932 11.04882812 18.9921875 C11.03783403 13.99476264 11.02058757 8.99739417 11 4 C9.68 4 8.36 4 7 4 C7 3.34 7 2.68 7 2 C3.81509993 1.7226499 3.81509993 1.7226499 1 4 Z " fill="#32469C" transform="translate(63,65)"/>
<path d="M0 0 C3.96 0 7.92 0 12 0 C12 17.82 12 35.64 12 54 C8.04 54 4.08 54 0 54 C0 38.49 0 22.98 0 7 C0.33 7 0.66 7 1 7 C1.02505615 8.1552417 1.0501123 9.3104834 1.07592773 10.50073242 C1.17026945 14.79657629 1.27042437 19.09226854 1.37231445 23.38793945 C1.41556221 25.24532519 1.45724428 27.10274808 1.49731445 28.96020508 C1.5552637 31.63374008 1.61888652 34.30708981 1.68359375 36.98046875 C1.70030624 37.80773972 1.71701874 38.63501068 1.73423767 39.48735046 C1.83593817 43.46676454 2.2078492 47.09109924 3 51 C2.67 51.66 2.34 52.32 2 53 C4.64 53 7.28 53 10 53 C10 51.68 10 50.36 10 49 C9.34 49 8.68 49 8 49 C8.33 48.01 8.66 47.02 9 46 C9.11294746 44.60420727 9.17589187 43.20400091 9.20532227 41.80395508 C9.22526749 40.96331009 9.24521271 40.1226651 9.26576233 39.25654602 C9.29083107 37.90172371 9.29083107 37.90172371 9.31640625 36.51953125 C9.3475779 35.12754768 9.3475779 35.12754768 9.37937927 33.70744324 C9.44477323 30.7425376 9.50371262 27.77754328 9.5625 24.8125 C9.60569487 22.8027252 9.64930947 20.79295937 9.69335938 18.78320312 C9.80044427 13.85555968 9.90174045 8.92782701 10 4 C7.36 4 4.72 4 2 4 C2 4.66 2 5.32 2 6 C1.34 6 0.68 6 0 6 C0 4.02 0 2.04 0 0 Z " fill="#1D3597" transform="translate(149,65)"/>
<path d="M0 0 C1.32 0 2.64 0 4 0 C4 2.97 4 5.94 4 9 C4.99 9 5.98 9 7 9 C7.2475 8.443125 7.495 7.88625 7.75 7.3125 C9.27877922 4.48425845 10.71707696 2.28292304 13 0 C16.25 -0.3125 16.25 -0.3125 19 0 C17.63629701 2.99220268 16.05091917 5.29026529 13.875 7.75 C13.06675781 8.67039063 13.06675781 8.67039063 12.2421875 9.609375 C11.62730469 10.29773438 11.62730469 10.29773438 11 11 C11.95421808 12.14926266 12.91352045 13.29430541 13.875 14.4375 C14.67550781 15.39462891 14.67550781 15.39462891 15.4921875 16.37109375 C16.9222757 18.10805004 16.9222757 18.10805004 19 19 C19 19.66 19 20.32 19 21 C16.375 21.4375 16.375 21.4375 13 21 C11.22362662 19.3386436 9.83171776 17.58870604 8.39453125 15.62890625 C6.99628482 13.71264829 6.99628482 13.71264829 4 13 C4 15.64 4 18.28 4 21 C2.68 21 1.36 21 0 21 C0 14.07 0 7.14 0 0 Z " fill="#191919" transform="translate(39,141)"/>
<path d="M0 0 C4.29 0 8.58 0 13 0 C13 18.15 13 36.3 13 55 C8.71 55 4.42 55 0 55 C0 36.85 0 18.7 0 0 Z M2 3 C1.70107366 5.17544788 1.70107366 5.17544788 1.75708008 7.70922852 C1.75400345 8.68686661 1.75092682 9.6645047 1.74775696 10.67176819 C1.75494247 11.73012375 1.76212799 12.78847931 1.76953125 13.87890625 C1.76998947 14.96131088 1.77044769 16.04371552 1.7709198 17.15892029 C1.77394441 19.44962661 1.78183691 21.74033084 1.79418945 24.03100586 C1.81244215 27.55134303 1.81469922 31.07141734 1.81445312 34.59179688 C1.81936825 36.81250229 1.82519654 39.03320591 1.83203125 41.25390625 C1.83314407 42.31428604 1.8342569 43.37466583 1.83540344 44.46717834 C1.84178329 45.44166428 1.84816315 46.41615021 1.85473633 47.42016602 C1.85854813 48.28239273 1.86235992 49.14461945 1.86628723 50.03297424 C1.78363428 52.00280837 1.78363428 52.00280837 3 53 C7.08803366 53.44087923 7.08803366 53.44087923 10.67303467 51.78005981 C12.39355797 49.47206101 12.36882528 48.13185963 12.35644531 45.26904297 C12.35944641 44.31150116 12.36244751 43.35395935 12.36553955 42.36740112 C12.35319275 41.33608063 12.34084595 40.30476013 12.328125 39.2421875 C12.32625183 38.18339386 12.32437866 37.12460022 12.32244873 36.03372192 C12.31572522 33.7960495 12.30180485 31.55838889 12.28125 29.32080078 C12.250061 25.88172583 12.24027668 22.44310868 12.234375 19.00390625 C12.22520673 16.8333277 12.21483152 14.66275384 12.203125 12.4921875 C12.19887512 11.45681854 12.19462524 10.42144958 12.19024658 9.35470581 C12.18063904 8.40346832 12.17103149 7.45223083 12.16113281 6.47216797 C12.15089081 5.20999954 12.15089081 5.20999954 12.14044189 3.92233276 C12.20997871 1.99207715 12.20997871 1.99207715 11 1 C5.97490684 0.45584266 5.97490684 0.45584266 2 3 Z " fill="#354A94" transform="translate(87,37)"/>
<path d="M0 0 C1.32 0 2.64 0 4 0 C4 2.64 4 5.28 4 8 C4.66 7.67 5.32 7.34 6 7 C9.49076486 6.62056904 11.30195515 6.48835064 14.1796875 8.59765625 C16.60419839 11.79738629 16.40864063 13.78398435 16.25 17.75 C16.21390625 18.92046875 16.1778125 20.0909375 16.140625 21.296875 C16.07101563 22.63492188 16.07101563 22.63492188 16 24 C14.35 24 12.7 24 11 24 C10.67 20.04 10.34 16.08 10 12 C8.35 12.33 6.7 12.66 5 13 C4.67 16.3 4.34 19.6 4 23 C2.68 23 1.36 23 0 23 C0 15.41 0 7.82 0 0 Z " fill="#2D2D2D" transform="translate(116,139)"/>
<path d="M0 0 C5.61 0 11.22 0 17 0 C15.46441188 3.07117624 14.43010884 4.8569473 12.25 7.3125 C11.7240625 7.91320313 11.198125 8.51390625 10.65625 9.1328125 C9.55208333 10.37760417 8.44791667 11.62239583 7.34375 12.8671875 C6.8178125 13.46789063 6.291875 14.06859375 5.75 14.6875 C5.27046875 15.22761719 4.7909375 15.76773438 4.296875 16.32421875 C0.64544765 21.04247879 0.48083671 25.21931642 1 31 C1.88460028 34.41471924 1.88460028 34.41471924 3 37 C2.34 37.66 1.68 38.32 1 39 C-1.31054554 33.05859718 -2.21937334 28.36182676 -2 22 C-2.33 21.01 -2.66 20.02 -3 19 C-2.34 19 -1.68 19 -1 19 C-1 17.68 -1 16.36 -1 15 C-1.66 14.67 -2.32 14.34 -3 14 C-1.61725283 10.65836101 -0.20955991 8.74233252 3 7 C5.75 7.3125 5.75 7.3125 8 8 C8 7.34 8 6.68 8 6 C8.99 6 9.98 6 11 6 C11 5.34 11 4.68 11 4 C11.66 4 12.32 4 13 4 C13 3.34 13 2.68 13 2 C8.71 2.66 4.42 3.32 0 4 C-0.33 3.34 -0.66 2.68 -1 2 C-0.67 1.34 -0.34 0.68 0 0 Z " fill="#1534A6" transform="translate(123,50)"/>
<path d="M0 0 C1.65 0 3.3 0 5 0 C5.33 3.96 5.66 7.92 6 12 C7.32 12 8.64 12 10 12 C11.14814997 9.70370006 11.30769809 7.92301914 11.5625 5.375 C11.64628906 4.55773437 11.73007813 3.74046875 11.81640625 2.8984375 C11.87699219 2.27195313 11.93757813 1.64546875 12 1 C13.32 1 14.64 1 16 1 C16 5.95 16 10.9 16 16 C6.13671875 17.171875 6.13671875 17.171875 3 17 C1.09375 15.4375 1.09375 15.4375 0 13 C-0.29296875 9.765625 -0.29296875 9.765625 -0.1875 6.25 C-0.16042969 5.07953125 -0.13335937 3.9090625 -0.10546875 2.703125 C-0.07066406 1.81109375 -0.03585938 0.9190625 0 0 Z " fill="#292929" transform="translate(96,146)"/>
<path d="M0 0 C4.62 0 9.24 0 14 0 C12.875 5.625 12.875 5.625 9.9375 8.8125 C9.38964844 9.41707031 8.84179688 10.02164063 8.27734375 10.64453125 C7.85582031 11.09183594 7.43429688 11.53914062 7 12 C9.64 12.33 12.28 12.66 15 13 C14.67 14.32 14.34 15.64 14 17 C9.38 17 4.76 17 0 17 C1.125 11.375 1.125 11.375 4.0625 8.1875 C4.61035156 7.58292969 5.15820312 6.97835937 5.72265625 6.35546875 C6.14417969 5.90816406 6.56570312 5.46085938 7 5 C4.69 4.67 2.38 4.34 0 4 C0 2.68 0 1.36 0 0 Z " fill="#4D4D4D" transform="translate(79,146)"/>
<path d="M0 0 C3.4375 0.1875 3.4375 0.1875 4.4375 1.1875 C4.54619029 2.67522488 4.58652873 4.16802713 4.59863281 5.65966797 C4.60824036 6.61090546 4.6178479 7.56214294 4.62774658 8.54220581 C4.63199646 9.57757477 4.63624634 10.61294373 4.640625 11.6796875 C4.64632507 12.73656769 4.65202515 13.79344788 4.65789795 14.88235474 C4.66736448 17.12354526 4.67388846 19.36474981 4.67773438 21.60595703 C4.68743908 25.04093641 4.71844701 28.4753175 4.75 31.91015625 C4.75652972 34.08332976 4.76178031 36.25650758 4.765625 38.4296875 C4.7779718 39.461008 4.7903186 40.49232849 4.80303955 41.55490112 C4.80003845 42.51244293 4.79703735 43.46998474 4.79394531 44.45654297 C4.79759094 45.29957977 4.80123657 46.14261658 4.80499268 47.01119995 C4.35031546 49.70380885 3.62651562 50.59131782 1.4375 52.1875 C-1.6875 52.4375 -1.6875 52.4375 -4.5625 52.1875 C-6.17349645 50.57650355 -5.69791431 48.83558736 -5.70776367 46.60766602 C-5.71414352 45.63318008 -5.72052338 44.65869415 -5.72709656 43.65467834 C-5.72820938 42.59429855 -5.7293222 41.53391876 -5.73046875 40.44140625 C-5.73379715 39.35995834 -5.73712555 38.27851044 -5.74055481 37.16429138 C-5.74562877 34.87182034 -5.74796299 32.57934188 -5.74780273 30.28686523 C-5.74998845 26.76859433 -5.76813728 23.25063719 -5.78710938 19.73242188 C-5.79004328 17.51041775 -5.79202809 15.28841212 -5.79296875 13.06640625 C-5.80015427 12.00805069 -5.80733978 10.94969513 -5.81474304 9.85926819 C-5.81166641 8.8816301 -5.80858978 7.903992 -5.80541992 6.89672852 C-5.80684494 6.03370621 -5.80826996 5.1706839 -5.80973816 4.2815094 C-5.34357853 0.33332174 -3.74635929 0.1971768 0 0 Z M-4.5625 2.1875 C-4.58779705 8.70197727 -4.60534444 15.21644193 -4.61743164 21.73095703 C-4.62246909 23.94840976 -4.62929922 26.16585916 -4.63793945 28.38330078 C-4.65003072 31.56543805 -4.6557341 34.74753151 -4.66015625 37.9296875 C-4.66531754 38.92555878 -4.67047882 39.92143005 -4.67579651 40.94747925 C-4.67587204 41.86828278 -4.67594757 42.7890863 -4.67602539 43.73779297 C-4.678246 44.5505368 -4.68046661 45.36328064 -4.68275452 46.20065308 C-4.68834658 48.26277359 -4.68834658 48.26277359 -3.5625 50.1875 C-2.2425 50.1875 -0.9225 50.1875 0.4375 50.1875 C0.1075 47.5475 -0.2225 44.9075 -0.5625 42.1875 C1.4175 41.6925 1.4175 41.6925 3.4375 41.1875 C3.46214849 35.79403012 3.48033531 30.40059275 3.49243164 25.00708008 C3.49747231 23.17081125 3.50430477 21.33454646 3.51293945 19.49829102 C3.52501672 16.86473599 3.53073081 14.23123384 3.53515625 11.59765625 C3.54031754 10.77161392 3.54547882 9.94557159 3.55079651 9.09449768 C3.55099205 7.12513632 3.49954152 5.15588386 3.4375 3.1875 C2.25325674 1.77172523 2.25325674 1.77172523 -1.125 2.125 C-2.8265625 2.1559375 -2.8265625 2.1559375 -4.5625 2.1875 Z " fill="#1736A2" transform="translate(94.5625,37.8125)"/>
<path d="M0 0 C0.66 0 1.32 0 2 0 C3.76953125 1.94140625 3.76953125 1.94140625 5.8125 4.5625 C6.52019531 5.46871094 7.22789062 6.37492187 7.95703125 7.30859375 C10.37547499 10.49465061 12.71583753 13.71651645 15 17 C0.06850558 18.37437619 0.06850558 18.37437619 -4.91015625 15.06640625 C-10 9.29299002 -10 9.29299002 -10 6 C-6.46352101 7.0716603 -4.26907155 8.57361097 -1.625 11.0625 C1.88596107 14.23393956 4.32232119 14.80907433 9 15 C9 14.01 9 13.02 9 12 C8.01 12 7.02 12 6 12 C6 11.34 6 10.68 6 10 C5.34 10 4.68 10 4 10 C1.70351351 7.4385343 1 6.52032428 1 3 C0.01 2.67 -0.98 2.34 -2 2 C-1.34 2 -0.68 2 0 2 C0 1.34 0 0.68 0 0 Z " fill="#3A4D92" transform="translate(126,88)"/>
<path d="M0 0 C0.33 0 0.66 0 1 0 C1 17.82 1 35.64 1 54 C-0.98 54.495 -0.98 54.495 -3 55 C-3.99 54.34 -4.98 53.68 -6 53 C-6.1875 50.375 -6.1875 50.375 -6 48 C-4.35 47.34 -2.7 46.68 -1 46 C-1.00870117 44.77772705 -1.00870117 44.77772705 -1.01757812 43.53076172 C-1.05486331 34.05100449 -0.82101341 24.59812724 -0.5 15.125 C-0.45161485 13.64714221 -0.40343675 12.16927763 -0.35546875 10.69140625 C-0.23935443 7.12752303 -0.12047885 3.56373866 0 0 Z " fill="#D9E2FA" transform="translate(62,65)"/>
<path d="M0 0 C2.04171598 1.81485865 2.93657511 3.19173919 3.15234375 5.94140625 C3.12630321 7.96140801 3.06410008 9.98084761 3 12 C3.33 12.99 3.66 13.98 4 15 C3.67 15.66 3.34 16.32 3 17 C0.69 17 -1.62 17 -4 17 C-4 16.67 -4 16.34 -4 16 C-2.35 16 -0.7 16 1 16 C1 15.34 1 14.68 1 14 C0.443125 13.814375 -0.11375 13.62875 -0.6875 13.4375 C-4.06754192 11.33639286 -5.85140381 8.29334006 -8 5 C-3.375 0 -3.375 0 0 0 Z " fill="#E7E7E7" transform="translate(57,146)"/>
<path d="M0 0 C1.98 0 3.96 0 6 0 C4.63629701 2.99220268 3.05091917 5.29026529 0.875 7.75 C0.06675781 8.67039063 0.06675781 8.67039063 -0.7578125 9.609375 C-1.37269531 10.29773438 -1.37269531 10.29773438 -2 11 C-1.04578192 12.14926266 -0.08647955 13.29430541 0.875 14.4375 C1.67550781 15.39462891 1.67550781 15.39462891 2.4921875 16.37109375 C3.9222757 18.10805004 3.9222757 18.10805004 6 19 C6 19.66 6 20.32 6 21 C3.375 21.4375 3.375 21.4375 0 21 C-1.77839353 19.37513684 -3.16520199 17.65485354 -4.60546875 15.7265625 C-6.06980823 13.73769912 -6.06980823 13.73769912 -9 12 C-8.01 12 -7.02 12 -6 12 C-5.67 11.34 -5.34 10.68 -5 10 C-4.319375 9.195625 -3.63875 8.39125 -2.9375 7.5625 C-0.69844586 5.13659105 -0.69844586 5.13659105 -1 2 C-0.67 1.34 -0.34 0.68 0 0 Z " fill="#282828" transform="translate(52,141)"/>
<path d="M0 0 C1.485 0.99 1.485 0.99 3 2 C5.0492094 2.45139459 5.0492094 2.45139459 7.1875 2.625 C8.445625 2.74875 9.70375 2.8725 11 3 C8.86217633 6.31731259 6.78069509 9.21930491 4 12 C2.82425289 14.09989652 2.82425289 14.09989652 2 16 C1.34 15.67 0.68 15.34 0 15 C0 10.05 0 5.1 0 0 Z " fill="#E6E6E6" transform="translate(76,147)"/>
<path d="M0 0 C1.65 0 3.3 0 5 0 C5.33 5.28 5.66 10.56 6 16 C2 15 2 15 0 13 C-0.1953125 9.9609375 -0.1953125 9.9609375 -0.125 6.375 C-0.10695313 5.18648437 -0.08890625 3.99796875 -0.0703125 2.7734375 C-0.04710938 1.85820312 -0.02390625 0.94296875 0 0 Z " fill="#373737" transform="translate(96,146)"/>
<path d="M0 0 C-0.125 3.25 -0.125 3.25 -1 7 C-3.75 9.0625 -3.75 9.0625 -7 11 C-8.82675281 12.90720565 -10.38160736 14.90560952 -12 17 C-12.99 16.67 -13.98 16.34 -15 16 C-14.37351563 15.24074219 -13.74703125 14.48148438 -13.1015625 13.69921875 C-12.28429687 12.70535156 -11.46703125 11.71148437 -10.625 10.6875 C-9.81289062 9.70136719 -9.00078125 8.71523438 -8.1640625 7.69921875 C-5.94395043 5.01091621 -5.94395043 5.01091621 -4 2 C-9.28 2 -14.56 2 -20 2 C-20 1.67 -20 1.34 -20 1 C-17.22922802 0.83225597 -14.45839073 0.66576064 -11.6875 0.5 C-10.90181641 0.45230469 -10.11613281 0.40460937 -9.30664062 0.35546875 C-8.54931641 0.31035156 -7.79199219 0.26523437 -7.01171875 0.21875 C-6.31522217 0.17685547 -5.61872559 0.13496094 -4.90112305 0.09179688 C-3.26903034 0.01299029 -1.63399421 0 0 0 Z " fill="#D6E2F5" transform="translate(144,48)"/>
<path d="M0 0 C0 0.66 0 1.32 0 2 C-0.66 2 -1.32 2 -2 2 C-2 2.66 -2 3.32 -2 4 C-2.99 4 -3.98 4 -5 4 C-5 4.66 -5 5.32 -5 6 C-6.051875 5.8453125 -6.051875 5.8453125 -7.125 5.6875 C-11.28882548 6.14008973 -12.89607308 8.24095385 -16 11 C-16.66 11 -17.32 11 -18 11 C-17.71125 10.46375 -17.4225 9.9275 -17.125 9.375 C-15.83288192 6.64719516 -14.91441408 3.87387282 -14 1 C-9.23692563 0.04738513 -4.8333472 -0.08333357 0 0 Z " fill="#1134B2" transform="translate(136,52)"/>
<path d="M0 0 C4.62 0 9.24 0 14 0 C12.9957244 5.02137798 12.60239038 5.86243419 9 9 C8.34 8.67 7.68 8.34 7 8 C7.33 6.68 7.66 5.36 8 4 C5.36 4 2.72 4 0 4 C0 2.68 0 1.36 0 0 Z " fill="#303030" transform="translate(79,146)"/>
<path d="M0 0 C2.5 0.25 2.5 0.25 4.5 2.25 C4.8125 4.75 4.8125 4.75 4.5 7.25 C1.5 9.25 1.5 9.25 -1.125 8.9375 C-3.5 8.25 -3.5 8.25 -4.5 7.25 C-4.6875 4.8125 -4.6875 4.8125 -4.5 2.25 C-2.5 0.25 -2.5 0.25 0 0 Z " fill="#E8E8E8" transform="translate(67.5,149.75)"/>
<path d="M0 0 C5.61 0 11.22 0 17 0 C15.4005386 3.19892281 14.17187081 5.15353735 11.875 7.75 C11.06675781 8.67039062 11.06675781 8.67039062 10.2421875 9.609375 C9.62730469 10.29773438 9.62730469 10.29773438 9 11 C8.34 10.01 7.68 9.02 7 8 C7.33 7.34 7.66 6.68 8 6 C8.99 6 9.98 6 11 6 C11 5.34 11 4.68 11 4 C11.66 4 12.32 4 13 4 C13 3.34 13 2.68 13 2 C8.71 2.66 4.42 3.32 0 4 C-0.33 3.34 -0.66 2.68 -1 2 C-0.67 1.34 -0.34 0.68 0 0 Z " fill="#263CA0" transform="translate(123,50)"/>
<path d="M0 0 C0.66 0 1.32 0 2 0 C2 4.95 2 9.9 2 15 C0.35 14.67 -1.3 14.34 -3 14 C-3 10.04 -3 6.08 -3 2 C-2.01 2 -1.02 2 0 2 C0 1.34 0 0.68 0 0 Z " fill="#1A1A1A" transform="translate(74,147)"/>
<path d="M0 0 C0.66 0.33 1.32 0.66 2 1 C2.59355614 3.64860427 2.74209269 6.29197322 3 9 C-0.96 8.67 -4.92 8.34 -9 8 C-5.38671875 2.53125 -5.38671875 2.53125 -4 1 C-3.01 1 -2.02 1 -1 1 C-0.67 0.67 -0.34 0.34 0 0 Z " fill="#ECECEC" transform="translate(94,151)"/>
<path d="M0 0 C1.32 0 2.64 0 4 0 C4 0.66 4 1.32 4 2 C4.66 2 5.32 2 6 2 C6 5.63 6 9.26 6 13 C4.68 13 3.36 13 2 13 C1.93941406 12.31292969 1.87882813 11.62585938 1.81640625 10.91796875 C1.73261719 10.01691406 1.64882812 9.11585938 1.5625 8.1875 C1.48128906 7.29417969 1.40007812 6.40085938 1.31640625 5.48046875 C1.06510233 2.87256441 1.06510233 2.87256441 0 0 Z " fill="#1D1D1D" transform="translate(144,149)"/>
<path d="M0 0 C2.475 0.495 2.475 0.495 5 1 C4.34 5.62 3.68 10.24 3 15 C2.01 15 1.02 15 0 15 C0 10.05 0 5.1 0 0 Z " fill="#191919" transform="translate(136,147)"/>
<path d="M0 0 C0.66 0 1.32 0 2 0 C2 0.99 2 1.98 2 3 C3.65 3.33 5.3 3.66 7 4 C3.10421317 5.29859561 -0.94232915 5.48226416 -5 5 C-7.5 3.625 -7.5 3.625 -9 2 C-9 1.34 -9 0.68 -9 0 C-5.50022502 -1.16659166 -3.57216487 -0.68403157 0 0 Z " fill="#363636" transform="translate(69,158)"/>
<path d="M0 0 C0.66 0 1.32 0 2 0 C3.41696507 1.57054206 4.76106816 3.20746664 6.0625 4.875 C6.77535156 5.77992187 7.48820313 6.68484375 8.22265625 7.6171875 C10 10 10 10 11 12 C9.35 12 7.7 12 6 12 C6 11.34 6 10.68 6 10 C5.34 10 4.68 10 4 10 C1.70351351 7.4385343 1 6.52032428 1 3 C0.01 2.67 -0.98 2.34 -2 2 C-1.34 2 -0.68 2 0 2 C0 1.34 0 0.68 0 0 Z " fill="#27449E" transform="translate(126,88)"/>
<path d="M0 0 C3.96 0 7.92 0 12 0 C12 0.66 12 1.32 12 2 C11.01 2 10.02 2 9 2 C9 2.66 9 3.32 9 4 C7.68 4.33 6.36 4.66 5 5 C4.67 4.01 4.34 3.02 4 2 C3.01 1.67 2.02 1.34 1 1 C1 5.95 1 10.9 1 16 C0.67 16 0.34 16 0 16 C0 10.72 0 5.44 0 0 Z " fill="#3C3C3C" transform="translate(135,146)"/>
<path d="M0 0 C1.0625 1.8125 1.0625 1.8125 2 4 C1.67 4.99 1.34 5.98 1 7 C0.67 6.67 0.34 6.34 0 6 C-0.12117188 6.69867188 -0.24234375 7.39734375 -0.3671875 8.1171875 C-0.53476563 9.02726562 -0.70234375 9.93734375 -0.875 10.875 C-1.11863281 12.23238281 -1.11863281 12.23238281 -1.3671875 13.6171875 C-2 16 -2 16 -4 18 C-4.3690205 7.44191344 -4.3690205 7.44191344 -2 3 C-1.34 3 -0.68 3 0 3 C0 2.01 0 1.02 0 0 Z " fill="#283E9E" transform="translate(114,64)"/>
<path d="M0 0 C1.32 0 2.64 0 4 0 C4 2.97 4 5.94 4 9 C2.02 9.99 2.02 9.99 0 11 C0 7.37 0 3.74 0 0 Z " fill="#181818" transform="translate(108,147)"/>
<path d="M0 0 C0.66 0.33 1.32 0.66 2 1 C2.33 2.32 2.66 3.64 3 5 C-1.29 5 -5.58 5 -10 5 C-9.67 4.01 -9.34 3.02 -9 2 C-6.03 2 -3.06 2 0 2 C0 1.34 0 0.68 0 0 Z " fill="#DBE6F7" transform="translate(97,32)"/>
<path d="M0 0 C0.99 0 1.98 0 3 0 C3 4.62 3 9.24 3 14 C2.01 14 1.02 14 0 14 C0 9.38 0 4.76 0 0 Z " fill="#1C1C1C" transform="translate(128,148)"/>
<path d="M0 0 C4.22419176 1.50863992 5.6874017 4.29984272 8 8 C8.66 8.66 9.32 9.32 10 10 C9.67 11.32 9.34 12.64 9 14 C5.7 10.04 2.4 6.08 -1 2 C-0.67 1.34 -0.34 0.68 0 0 Z " fill="#E4EFFB" transform="translate(129,88)"/>
<path d="M0 0 C0.8353125 0.37125 0.8353125 0.37125 1.6875 0.75 C0.800625 1.28625 -0.08625 1.8225 -1 2.375 C-4.49538216 4.68311458 -6.76124658 7.44837793 -9.3125 10.75 C-10.3025 10.42 -11.2925 10.09 -12.3125 9.75 C-4.19598416 -0.45361991 -4.19598416 -0.45361991 0 0 Z " fill="#E4F0F7" transform="translate(141.3125,54.25)"/>
<path d="M0 0 C5.01113235 1.4317521 6.94469549 3.98445693 10 8 C9.34 8 8.68 8 8 8 C7.67 8.66 7.34 9.32 7 10 C5.82739389 8.71372289 4.6620717 7.42080217 3.5 6.125 C2.8503125 5.40570313 2.200625 4.68640625 1.53125 3.9453125 C0 2 0 2 0 0 Z " fill="#2C439E" transform="translate(116,94)"/>
<path d="M0 0 C1.32 0 2.64 0 4 0 C4 1.32 4 2.64 4 4 C3.34 4 2.68 4 2 4 C2 9.28 2 14.56 2 20 C1.34 20.33 0.68 20.66 0 21 C0 14.07 0 7.14 0 0 Z " fill="#292929" transform="translate(39,141)"/>
<path d="M0 0 C-0.61875 0.0825 -1.2375 0.165 -1.875 0.25 C-4.17972859 0.79394438 -4.17972859 0.79394438 -5.0625 3 C-5.371875 3.66 -5.68125 4.32 -6 5 C-6.99 5.33 -7.98 5.66 -9 6 C-9.66 5.34 -10.32 4.68 -11 4 C-10.34 4 -9.68 4 -9 4 C-9 3.34 -9 2.68 -9 2 C-9.66 1.67 -10.32 1.34 -11 1 C-7.32589215 -0.17571451 -3.83070817 -0.07366746 0 0 Z " fill="#E2E2E2" transform="translate(112,162)"/>
<path d="M0 0 C1.00289062 0.10183594 2.00578125 0.20367187 3.0390625 0.30859375 C3.80992188 0.39238281 4.58078125 0.47617188 5.375 0.5625 C5.375 1.2225 5.375 1.8825 5.375 2.5625 C1.085 2.5625 -3.205 2.5625 -7.625 2.5625 C-7.625 1.9025 -7.625 1.2425 -7.625 0.5625 C-4.89657939 -0.80171031 -3.01546682 -0.31557211 0 0 Z " fill="#181818" transform="translate(87.625,159.4375)"/>
<path d="M0 0 C0.99 0 1.98 0 3 0 C3.33 2.31 3.66 4.62 4 7 C2.68 7 1.36 7 0 7 C0 4.69 0 2.38 0 0 Z " fill="#0F34BB" transform="translate(42,80)"/>
<path d="M0 0 C0.66 0 1.32 0 2 0 C2.13277344 0.68707031 2.26554687 1.37414062 2.40234375 2.08203125 C2.57894531 2.98308594 2.75554687 3.88414063 2.9375 4.8125 C3.11152344 5.70582031 3.28554687 6.59914063 3.46484375 7.51953125 C3.97741153 10.11397171 3.97741153 10.11397171 5 13 C4.34 13.66 3.68 14.32 3 15 C1.094753 9.89665983 -0.42589023 5.53657294 0 0 Z " fill="#2C4197" transform="translate(121,74)"/>
<path d="M0 0 C1.4540625 0.0309375 1.4540625 0.0309375 2.9375 0.0625 C1.88875002 2.68437494 1.28818687 3.85621361 -1.1875 5.3125 C-1.80625 5.56 -2.425 5.8075 -3.0625 6.0625 C-3.44468767 4.40635343 -3.77645102 2.73792976 -4.0625 1.0625 C-3.0625 0.0625 -3.0625 0.0625 0 0 Z " fill="#3E3E3E" transform="translate(55.0625,140.9375)"/>
<path d="M0 0 C0.99 0.66 1.98 1.32 3 2 C1.73046875 3.46484375 0.4609375 4.9296875 -0.80859375 6.39453125 C-2.20871231 8.10712971 -2.20871231 8.10712971 -3 11 C-3.66 11 -4.32 11 -5 11 C-4.34 8.69 -3.68 6.38 -3 4 C-2.01 4 -1.02 4 0 4 C0 2.68 0 1.36 0 0 Z " fill="#2A4198" transform="translate(128,60)"/>
<path d="M0 0 C5.28 0 10.56 0 16 0 C15.34 1.32 14.68 2.64 14 4 C13.67 3.01 13.34 2.02 13 1 C6.565 1.495 6.565 1.495 0 2 C0 1.34 0 0.68 0 0 Z " fill="#2C3C89" transform="translate(124,50)"/>
<path d="M0 0 C0.66 0 1.32 0 2 0 C2 2.64 2 5.28 2 8 C1.01 7.67 0.02 7.34 -1 7 C-1.04254356 5.00045254 -1.04080783 2.99958364 -1 1 C-0.67 0.67 -0.34 0.34 0 0 Z " fill="#1D1D1D" transform="translate(61,151)"/>
<path d="M0 0 C0.33 0 0.66 0 1 0 C1.25 2.3125 1.25 2.3125 1 5 C-1 6.8125 -1 6.8125 -3 8 C-3.66 7.34 -4.32 6.68 -5 6 C-3.35830472 3.97945196 -1.69088222 1.97956942 0 0 Z " fill="#2940A4" transform="translate(121,53)"/>
<path d="M0 0 C0.53625 0.226875 1.0725 0.45375 1.625 0.6875 C0.965 0.6875 0.305 0.6875 -0.375 0.6875 C-0.375 1.3475 -0.375 2.0075 -0.375 2.6875 C-1.365 2.6875 -2.355 2.6875 -3.375 2.6875 C-3.705 3.3475 -4.035 4.0075 -4.375 4.6875 C-5.695 4.0275 -7.015 3.3675 -8.375 2.6875 C-2.95961538 -0.38942308 -2.95961538 -0.38942308 0 0 Z " fill="#383838" transform="translate(74.375,146.3125)"/>
<path d="M0 0 C2.40072955 2.88087546 4.47291037 5.56404834 6 9 C5.01 9 4.02 9 3 9 C3 8.34 3 7.68 3 7 C2.34 7 1.68 7 1 7 C0.67 4.69 0.34 2.38 0 0 Z " fill="#D8E6F7" transform="translate(112,89)"/>
<path d="M0 0 C0.99 0 1.98 0 3 0 C2.34 2.31 1.68 4.62 1 7 C0.34 6.67 -0.32 6.34 -1 6 C-1.042721 4.33388095 -1.04063832 2.66617115 -1 1 C-0.67 0.67 -0.34 0.34 0 0 Z " fill="#0D35BD" transform="translate(43,41)"/>
<path d="M0 0 C1.9375 0.375 1.9375 0.375 4 1 C4.33 1.66 4.66 2.32 5 3 C4.34 3 3.68 3 3 3 C2.34 4.65 1.68 6.3 1 8 C0.67 8 0.34 8 0 8 C0 5.36 0 2.72 0 0 Z " fill="#CECECE" transform="translate(43,154)"/>
<path d="M0 0 C1.32 0.66 2.64 1.32 4 2 C3.34 2.66 2.68 3.32 2 4 C1.34 4 0.68 4 0 4 C-0.33 5.98 -0.66 7.96 -1 10 C-1.33 10 -1.66 10 -2 10 C-2.1953125 3.9453125 -2.1953125 3.9453125 -2 2 C-1.34 1.34 -0.68 0.68 0 0 Z " fill="#373737" transform="translate(61,148)"/>
<path d="M0 0 C0.66 0.66 1.32 1.32 2 2 C0.1875 4.5 0.1875 4.5 -2 7 C-2.99 7 -3.98 7 -5 7 C-3.70700306 4.11562221 -2.34058637 2.12780579 0 0 Z " fill="#242424" transform="translate(51,143)"/>
<path d="M0 0 C5.07865169 1.26966292 5.07865169 1.26966292 7 4 C6.67 5.32 6.34 6.64 6 8 C4.02 5.36 2.04 2.72 0 0 Z " fill="#D3E3F5" transform="translate(132,94)"/>
<path d="M0 0 C2.475 0.99 2.475 0.99 5 2 C5 2.66 5 3.32 5 4 C3.02 4 1.04 4 -1 4 C-0.67 2.68 -0.34 1.36 0 0 Z " fill="#262626" transform="translate(53,158)"/>
<path d="M0 0 C0.99 0.66 1.98 1.32 3 2 C2.34 3.65 1.68 5.3 1 7 C-0.32 5.68 -1.64 4.36 -3 3 C-2.34 3 -1.68 3 -1 3 C-0.67 2.01 -0.34 1.02 0 0 Z " fill="#484848" transform="translate(51,154)"/>
<path d="M0 0 C0.66 0 1.32 0 2 0 C2.33 1.32 2.66 2.64 3 4 C1.35 4.33 -0.3 4.66 -2 5 C-2.33 4.34 -2.66 3.68 -3 3 C-2.34 3 -1.68 3 -1 3 C-0.67 2.01 -0.34 1.02 0 0 Z " fill="#DDDDDD" transform="translate(104,154)"/>
</svg>
